<svg width="602" height="602" viewBox="0 0 602 602" fill="none" xmlns="http://www.w3.org/2000/svg">
    <g>
    <g>
    <mask id="mask0_1100_47084" style="mask-type:alpha" maskUnits="userSpaceOnUse" x="0" y="0" width="602" height="602">
        <path d="M118.064 486.036C111.238 486.036 103.779 483.888 96.0673 479.467C68.0021 463.801 44.7409 424.639 44.3616 392.045V391.666C44.2352 375.875 49.4184 364.126 59.0263 358.314C68.5078 352.629 81.2762 353.64 94.8031 361.22C122.995 376.885 146.129 416.174 146.509 448.768C146.762 464.686 141.452 476.687 131.844 482.498C127.672 484.899 123.121 486.036 118.064 486.036ZM44.6145 392.424C45.1202 424.891 68.2549 463.675 96.1937 479.34C109.594 486.794 122.236 487.804 131.591 482.246C141.199 476.561 146.382 464.686 146.129 448.894C145.75 416.427 122.615 377.264 94.5502 361.599C81.1498 354.145 68.5078 353.135 59.1527 358.693C49.5448 364.378 44.3616 376.254 44.6145 392.045L44.8673 392.298C44.7409 376.759 49.9241 365.136 59.4056 359.451C68.7606 353.893 81.2762 354.903 94.6767 362.357C122.363 377.769 145.244 416.427 145.624 448.642C145.877 464.307 140.693 476.182 131.086 481.867C121.73 487.425 109.215 486.415 95.8144 478.961C68.1285 463.549 45.2466 424.891 44.8673 392.803L44.6145 392.424ZM45.1202 392.55C45.4994 424.512 68.2549 463.17 95.9408 478.456C109.215 485.783 121.604 486.794 130.833 481.362C140.314 475.803 145.371 464.054 145.118 448.389C144.739 416.427 121.983 377.769 94.2974 362.483C81.0233 355.156 68.6342 354.145 59.4056 359.578C50.0505 365.263 44.9937 376.885 45.1202 392.55Z"
              fill="url(#paint0_radial_1100_47084)" stroke="white" stroke-width="1.26316"/>
        <path d="M157.633 537.448C144.486 537.448 129.947 533.153 114.777 524.815C88.229 510.034 63.1979 484.263 44.235 452.174C25.272 420.086 14.5264 385.471 14.1471 354.899V354.267C14.0207 338.855 16.5491 325.464 21.4794 314.22C26.4098 303.229 33.4893 294.892 42.5915 289.459C61.0488 278.468 85.7006 280.49 111.996 295.144C138.544 309.925 163.575 335.697 182.538 367.785C201.501 399.873 212.247 434.488 212.626 465.187C212.879 480.852 210.35 494.496 205.294 505.865C200.363 516.856 193.284 525.194 184.181 530.627C176.343 535.048 167.368 537.448 157.633 537.448ZM111.111 522.289C112.375 523.047 113.639 523.805 115.03 524.563C141.199 539.091 165.724 541.112 184.055 530.248C193.157 524.815 200.237 516.604 205.041 505.613C210.098 494.369 212.626 480.725 212.373 465.06C211.615 401.894 166.609 325.716 111.996 295.27C85.827 280.616 61.3016 278.595 42.9708 289.586C33.8686 295.018 26.7891 303.229 21.9851 314.22C16.9283 325.464 14.3999 339.108 14.6528 354.773C14.5264 339.487 17.0547 326.095 21.9851 314.978C26.9155 304.114 33.995 295.776 42.9708 290.47C61.3016 279.605 85.7006 281.5 111.869 296.028C138.165 310.683 163.069 336.328 181.906 368.164C200.742 399.999 211.362 434.362 211.741 464.808C211.994 480.346 209.465 493.864 204.409 505.234C199.478 516.098 192.399 524.436 183.423 529.742C165.092 540.607 140.693 538.712 114.524 524.184C113.387 523.552 112.249 522.92 111.111 522.289ZM14.9056 355.278C15.6641 418.065 60.4167 493.738 114.651 523.931C140.693 538.459 164.966 540.354 183.17 529.616C192.146 524.31 199.225 516.098 204.029 505.234C209.086 493.99 211.488 480.473 211.362 464.934C210.603 402.147 165.851 326.474 111.617 296.281C85.5742 281.753 61.3016 279.858 43.0972 290.596C34.1214 295.902 27.0419 304.114 22.238 314.978C17.1812 326.222 14.7792 339.739 14.9056 355.278ZM14.6528 355.278C14.6528 355.657 14.6528 356.036 14.6528 356.415C14.6528 356.036 14.6528 355.657 14.6528 355.278Z"
              fill="url(#paint1_radial_1100_47084)" stroke="white" stroke-width="1.26316"/>
        <path d="M205.546 574.846C203.397 574.846 201.122 574.719 198.973 574.593C181.78 573.33 163.449 567.392 144.486 556.78C136.901 552.611 129.315 547.684 121.983 542.126L120.466 540.989L120.592 540.736C145.876 558.422 169.643 569.161 191.514 572.572C211.867 575.73 229.566 572.445 244.357 562.844C260.286 552.485 271.917 534.925 277.985 512.185C284.053 489.066 284.179 461.021 278.238 431.206C268.124 380.168 243.346 329.383 208.328 288.199C175.585 249.668 136.521 222.885 101.25 214.674C85.195 211.01 70.4039 211.136 57.2562 215.179C43.2237 219.474 31.3402 227.939 21.8587 240.572C14.0207 250.805 1.12593 274.05 1.50519 315.107H1.25235L1.12593 314.476C0.873089 292.115 4.41284 272.66 11.6188 256.49C18.5718 240.824 28.8118 228.949 41.833 221.243C54.6014 213.663 69.5189 210.378 86.2063 211.515C103.399 212.779 121.73 218.716 140.693 229.328C178.493 250.299 214.143 287.188 241.197 332.92C268.251 378.779 283.547 428.048 284.053 471.759C284.306 494.12 280.766 513.575 273.56 529.745C266.607 545.41 256.367 557.285 243.346 564.992C232.221 571.435 219.579 574.846 205.546 574.846ZM129.568 547.305C134.499 550.716 139.555 553.748 144.612 556.527C163.449 567.013 181.78 572.951 198.973 574.214C215.534 575.351 230.451 572.193 243.219 564.613C256.114 556.906 266.228 545.158 273.307 529.492C280.513 513.322 284.053 493.867 283.8 471.632C283.295 427.922 268.124 378.652 241.07 332.92C214.017 287.188 178.366 250.426 140.567 229.455C121.73 218.969 103.399 212.905 86.2063 211.768C69.6454 210.631 54.7279 213.789 41.9595 221.369C29.0647 229.076 18.9511 240.824 11.8716 256.49C8.33185 264.322 5.80345 272.786 4.03358 282.009C8.20543 260.785 16.1699 247.267 21.6059 240.193C31.2138 227.56 43.2237 218.969 57.2562 214.674C70.5303 210.631 85.3214 210.505 101.377 214.168C136.774 222.38 175.838 249.162 208.707 287.82C243.725 329.004 268.503 379.916 278.617 430.954C284.559 460.894 284.432 488.94 278.238 512.059C272.17 534.925 260.539 552.485 244.484 562.97C229.693 572.572 211.741 575.856 191.387 572.824C172.172 569.919 151.439 561.328 129.568 547.305Z"
              fill="url(#paint2_radial_1100_47084)" stroke="white" stroke-width="1.26316"/>
        <path d="M2.76987 338.734C2.64346 338.228 2.64346 337.597 2.51704 337.091V336.712C1.6321 329.132 1.12642 321.552 1 314.352H1.25284L1.37926 314.983C1.50568 322.184 2.01136 329.511 2.89629 337.091L3.14913 338.734H2.76987Z"
              fill="url(#paint3_radial_1100_47084)" stroke="white" stroke-width="1.26316"/>
        <path d="M259.149 596.452C249.288 596.452 239.048 595.188 228.555 592.535L227.923 592.409C227.67 592.409 227.417 592.283 227.165 592.156L227.291 591.904L228.05 592.156C244.737 596.325 260.539 597.21 275.204 594.683C289.742 592.283 302.89 586.471 314.141 577.628C327.542 567.143 337.782 552.614 344.861 534.423C352.194 515.599 355.733 493.491 355.481 468.604C355.101 441.19 350.171 412.134 340.816 382.067C331.714 353.01 318.819 324.333 302.511 296.793C286.203 269.252 267.366 244.239 246.38 222.383C224.636 199.77 201.754 181.704 178.114 168.566C157.255 156.943 136.775 149.743 117.432 147.342C98.7223 144.942 81.5292 146.963 66.3588 153.406C53.3376 158.838 42.0863 167.429 32.8576 178.799C23.629 190.169 16.6759 204.192 12.1248 220.488L11.872 221.373L11.6191 221.246C11.7456 220.994 11.7456 220.741 11.872 220.362L11.9984 219.73C16.6759 203.055 23.7554 188.905 33.2369 177.283C42.4655 165.913 53.8433 157.449 66.8645 152.017C82.1613 145.7 99.3544 143.679 118.191 146.079C137.533 148.606 158.013 155.806 178.999 167.429C202.766 180.694 225.774 198.759 247.518 221.499C268.504 243.354 287.467 268.494 303.901 296.161C320.336 323.828 333.231 352.631 342.333 381.814C351.814 412.007 356.745 441.19 357.124 468.73C357.377 493.618 353.837 515.852 346.505 534.802C339.425 552.993 329.059 567.648 315.658 578.26C304.407 587.103 291.386 592.914 276.848 595.441C270.779 596.073 264.964 596.452 259.149 596.452ZM102.262 145.826C107.066 145.826 112.123 146.205 117.18 146.837C136.522 149.364 157.002 156.438 177.987 168.187C201.628 181.325 224.636 199.517 246.38 222.131C267.366 243.986 286.329 269 302.637 296.666C318.945 324.207 331.84 353.01 340.942 382.067C350.424 412.134 355.354 441.316 355.733 468.73C355.986 493.618 352.446 515.852 345.114 534.675C338.035 552.867 327.668 567.522 314.268 578.007C303.016 586.85 289.869 592.662 275.204 595.062C274.698 595.188 274.319 595.188 273.813 595.315C274.698 595.188 275.583 595.062 276.468 594.936C291.007 592.409 304.028 586.724 315.153 577.881C328.427 567.395 338.793 552.741 345.873 534.549C353.205 515.726 356.745 493.491 356.365 468.604C355.986 441.19 351.056 412.007 341.574 381.814C332.472 352.631 319.577 323.954 303.143 296.287C286.835 268.621 267.872 243.607 246.886 221.625C225.142 199.012 202.134 180.82 178.367 167.682C157.507 156.059 137.027 148.858 117.685 146.332C98.9751 143.931 81.782 145.953 66.6117 152.269C53.5905 157.701 42.3391 166.166 33.1105 177.536C32.7312 178.041 32.2255 178.673 31.8463 179.178C31.9727 178.925 32.2255 178.673 32.352 178.546C41.5806 167.05 52.9584 158.459 65.9796 153.027C76.9781 148.227 89.2408 145.826 102.262 145.826Z"
              fill="url(#paint4_radial_1100_47084)" stroke="white" stroke-width="1.26316"/>
        <path d="M322.865 600.623V600.37H323.371C353.838 597.97 379.248 583.821 397.074 559.313C415.531 533.92 424.886 498.168 424.38 455.847C424.001 424.769 418.312 391.67 407.693 357.434C397.326 324.335 382.662 291.742 364.078 260.412C345.494 229.081 324.003 200.53 300.236 175.769C275.584 150.124 249.415 129.532 222.488 114.498C186.838 94.6644 152.072 86.2001 121.858 90.1164C92.6551 93.9064 68.5089 108.814 51.6951 133.575L51.4423 133.954L51.1895 133.827C51.3159 133.701 51.3159 133.575 51.4423 133.448L51.948 132.69C68.8882 107.677 93.2872 92.5167 122.743 88.8531C152.957 85.0632 187.849 93.5274 223.499 113.361C250.427 128.395 276.596 148.987 301.374 174.759C325.267 199.646 346.759 228.197 365.342 259.527C383.926 290.984 398.591 323.704 408.957 356.803C419.703 391.039 425.392 424.264 425.771 455.468C426.277 497.789 416.795 533.541 398.464 559.06C380.639 583.821 354.976 598.223 324.256 600.623H323.371C323.245 600.623 322.992 600.623 322.865 600.623ZM136.649 88.7268C163.324 88.7268 192.779 97.3173 222.741 114.119C249.668 129.153 275.837 149.745 300.489 175.39C324.382 200.278 345.874 228.702 364.457 260.033C383.041 291.363 397.706 324.083 408.072 357.182C418.818 391.418 424.507 424.517 424.886 455.72C425.392 498.042 415.91 533.92 397.453 559.313C387.466 573.209 374.95 583.695 360.538 590.769C375.329 583.695 388.098 572.956 398.211 558.807C416.542 533.414 425.897 497.663 425.392 455.468C425.012 424.264 419.323 391.165 408.578 356.929C398.211 323.83 383.547 291.11 364.963 259.78C346.379 228.45 324.888 199.899 300.995 175.011C276.216 149.24 250.048 128.648 223.247 113.614C187.723 93.78 152.957 85.3158 122.743 89.2321C106.308 91.2534 91.3909 96.9383 78.4961 105.908C91.1381 97.191 105.803 91.7587 121.984 89.6111C126.662 89.1058 131.592 88.7268 136.649 88.7268Z"
              fill="url(#paint5_radial_1100_47084)" stroke="white" stroke-width="1.26316"/>
        <path d="M411.105 580.405L410.978 580.153L411.231 580.026C422.862 575.352 433.354 568.783 442.583 560.192C451.938 551.602 460.029 540.99 466.476 528.736C480.003 503.09 486.704 471.255 486.198 433.86C485.819 400.761 479.75 365.641 468.373 329.258C457.374 294.138 441.825 259.523 422.103 226.171C402.382 192.819 379.626 162.626 354.216 136.223C328.047 108.935 300.235 87.0798 271.664 71.162C240.312 53.7282 210.35 44.6323 182.411 44.2533C169.011 44.127 156.243 45.8957 144.486 49.8119C132.981 53.6019 122.362 59.2868 112.881 66.8667L112.628 67.1194L112.375 66.8667C112.501 66.7404 112.628 66.7404 112.628 66.6141L113.386 65.9824C122.994 58.4025 133.74 52.5912 145.371 48.8013C157.128 45.0113 169.896 43.1164 183.296 43.369C211.235 43.8744 241.197 52.8439 272.549 70.2777C301.12 86.1955 328.932 108.051 355.227 135.465C380.637 161.868 403.393 192.188 423.115 225.413C442.836 258.765 458.386 293.506 469.384 328.626C480.762 365.01 486.83 400.256 487.209 433.355C488.094 507.006 460.788 560.318 412.242 579.774L411.231 580.153C411.357 580.405 411.231 580.405 411.105 580.405ZM180.768 44.127C181.4 44.127 182.032 44.127 182.664 44.127C210.603 44.506 240.691 53.6019 272.169 71.0357C300.74 86.9535 328.553 108.809 354.721 136.097C380.005 162.5 402.887 192.693 422.609 226.045C442.33 259.396 457.88 294.011 468.878 329.131C480.256 365.515 486.324 400.635 486.704 433.734C487.209 471.128 480.509 503.09 466.982 528.736C460.535 540.99 452.444 551.602 443.089 560.318C442.33 561.076 441.445 561.834 440.687 562.466C471.407 536.315 488.094 491.089 487.336 433.355C486.956 400.256 480.888 365.136 469.51 328.752C458.512 293.632 442.962 259.017 423.241 225.666C403.519 192.314 380.764 162.121 355.354 135.718C329.185 108.43 301.372 86.5745 272.802 70.6567C241.576 53.2229 211.614 44.2533 183.676 43.748C170.402 43.4954 157.886 45.264 146.255 49.054C156.875 45.7693 168.505 44.127 180.768 44.127Z"
              fill="url(#paint6_radial_1100_47084)" stroke="white" stroke-width="1.26316"/>
        <path d="M488.473 535.817L488.22 535.564C504.149 522.805 516.664 505.371 525.008 483.389C533.731 460.776 538.029 433.994 537.65 404.053C537.271 370.954 531.203 335.834 519.825 299.45C508.826 264.33 493.277 229.715 473.555 196.364C453.834 163.012 431.078 132.819 405.668 106.415C379.499 79.1278 351.687 57.2724 323.116 41.3546C298.211 27.4581 273.812 18.8675 250.804 15.7092C228.554 12.6773 207.948 14.9513 189.617 22.2785L189.49 22.0258L190.754 21.5205C209.085 14.3196 229.565 12.172 251.815 15.2039C274.823 18.3622 299.096 26.9528 324.001 40.8493C352.572 56.7671 380.384 78.6225 406.553 105.91C431.837 132.313 454.719 162.507 474.44 195.858C494.162 229.21 509.711 263.825 520.71 298.945C532.087 335.329 538.156 370.449 538.535 403.548C538.914 433.362 534.616 460.018 526.019 482.631C517.549 504.487 505.286 522.047 489.358 534.806L488.473 535.817ZM231.967 14.0669C238.162 14.0669 244.483 14.4459 250.93 15.3303C274.065 18.4885 298.464 27.0791 323.369 40.9756C351.939 56.8934 379.752 78.7488 406.047 106.163C431.457 132.566 454.213 162.886 473.934 196.111C493.656 229.336 509.206 264.204 520.204 299.324C531.582 335.707 537.65 370.954 538.029 404.053C538.408 433.994 534.11 460.776 525.387 483.516C522.732 490.464 519.698 496.907 516.285 502.844C519.951 496.528 523.112 489.832 525.893 482.631C534.616 460.018 538.788 433.488 538.408 403.548C538.029 370.449 531.961 335.329 520.583 298.945C509.585 263.825 494.035 229.21 474.314 195.858C454.592 162.507 431.837 132.313 406.426 105.91C380.257 78.6225 352.445 56.7671 323.874 40.8493C299.096 27.0791 274.823 18.4885 251.815 15.3303C245.115 14.5723 238.541 14.0669 231.967 14.0669Z"
              fill="url(#paint7_radial_1100_47084)" stroke="white" stroke-width="1.26316"/>
        <path d="M550.041 469.363L549.788 469.236L550.041 468.731C566.855 443.591 575.578 408.976 575.072 368.55C574.693 337.346 569.004 304.247 558.258 270.011C547.892 236.912 533.227 204.192 514.643 172.862C496.186 141.406 474.568 112.855 450.675 88.0936C425.897 62.3219 399.728 41.7298 372.927 26.6964C355.987 17.2215 339.173 10.3996 322.991 6.23062C307.442 2.18801 292.524 0.672026 278.365 1.68268H277.859V1.43002C277.986 1.43002 278.239 1.43002 278.365 1.43002L279.25 1.30368C293.409 0.293031 308.579 1.80901 324.129 5.85163C340.184 10.0206 356.998 16.9688 373.812 26.3174C400.739 41.3508 426.908 61.9429 451.56 87.5883C475.453 112.476 496.945 140.9 515.528 172.231C534.112 203.561 548.777 236.281 559.143 269.38C569.889 303.616 575.451 336.714 575.957 367.918C576.463 408.345 567.74 442.959 550.926 468.226L550.42 468.984C550.167 469.11 550.041 469.236 550.041 469.363ZM335.001 9.38892C347.517 13.5579 360.285 19.2428 373.18 26.4437C400.107 41.4772 426.276 62.0692 451.054 87.8409C474.948 112.728 496.439 141.279 515.023 172.61C533.606 204.066 548.271 236.786 558.637 269.885C569.383 304.121 575.072 337.346 575.451 368.55C575.704 385.226 574.313 400.891 571.406 415.419C574.313 400.765 575.704 384.847 575.578 368.045C575.198 336.967 569.509 303.868 558.89 269.632C548.524 236.66 533.859 203.94 515.402 172.61C496.818 141.279 475.327 112.728 451.56 87.9672C426.908 62.3219 400.739 41.7298 373.938 26.6964C360.664 19.3691 347.643 13.5579 335.001 9.38892Z"
              fill="url(#paint8_radial_1100_47084)" stroke="white" stroke-width="1.26316"/>
        <path d="M590.368 382.32L590.115 382.194L590.368 381.436C594.666 365.77 596.689 348.084 596.562 328.882C596.183 301.468 591.253 272.285 581.771 242.092C572.669 213.035 559.774 184.232 543.34 156.565C527.031 128.898 508.069 103.885 487.083 81.9031C465.339 59.2897 442.33 41.0979 418.563 27.9594C403.52 19.6215 388.602 13.4313 374.19 9.76767L373.432 9.64134L373.558 9.38867C373.811 9.38867 374.064 9.515 374.317 9.515L375.075 9.76767C389.487 13.4313 404.278 19.4952 419.322 27.9594C442.962 41.0979 465.971 59.2897 487.715 81.9031C508.701 103.758 527.664 128.772 543.972 156.312C560.28 183.853 573.175 212.656 582.277 241.713C591.758 271.78 596.689 300.962 597.068 328.376C597.321 347.452 595.298 365.139 591 380.804L590.747 381.562C590.494 381.815 590.494 382.067 590.368 382.32ZM477.349 72.0492C480.635 75.2075 483.922 78.4921 487.209 81.9031C508.195 103.758 527.158 128.898 543.592 156.565C559.901 184.232 572.922 213.035 582.024 242.218C584.047 248.535 585.817 254.851 587.334 261.041C585.69 254.725 583.92 248.282 581.898 241.839C572.795 212.783 559.901 184.105 543.592 156.565C527.284 129.025 508.448 104.011 487.462 82.1557C484.175 78.6185 480.762 75.2075 477.349 72.0492Z"
              fill="url(#paint9_radial_1100_47084)" stroke="white" stroke-width="1.26316"/>
        <path d="M599.091 264.957L598.965 263.694C598.965 263.315 598.838 262.809 598.838 262.43C597.068 249.039 591.885 221.373 577.853 188.021C572.543 175.514 566.222 163.26 559.143 151.006C552.948 140.394 546.248 130.161 539.042 120.307C523.998 100.094 505.161 80.0074 481.774 61.184C481.521 61.0576 481.268 60.805 481.015 60.6786L480.004 59.9206L480.13 59.668C480.51 59.9206 480.762 60.1733 481.142 60.426L481.774 60.9313C481.774 60.9313 481.774 60.9313 481.9 61.0576C496.312 72.0485 510.345 85.187 523.366 100.347C528.928 106.79 534.238 113.359 539.295 120.307C556.614 143.552 569.003 166.797 577.979 187.768C588.725 212.782 595.931 237.922 599.091 262.304C599.091 262.557 599.091 262.809 599.218 262.936L599.344 263.567C599.344 263.946 599.47 264.452 599.47 264.831L599.091 264.957ZM496.565 73.5645C502.38 78.8704 507.943 84.1763 513.126 89.6086C507.816 83.9237 502.254 78.6177 496.565 73.5645Z"
              fill="url(#paint10_radial_1100_47084)" stroke="white" stroke-width="1.26316"/>
        <path d="M121.856 542.266C121.603 542.013 121.224 541.761 120.971 541.634L120.339 541.129C120.086 541.003 119.96 540.75 119.707 540.624C105.422 529.759 91.642 516.62 78.6208 501.713C74.5754 497.039 70.6563 492.238 66.8638 487.312C53.2104 469.751 39.3043 448.149 27.6737 422.377C14.7789 394.458 6.30875 366.159 2.769 338.872V338.745V337.987C2.769 337.608 2.64258 337.103 2.64258 336.724H2.89542L3.02184 337.987C3.02184 338.24 3.14826 338.493 3.14826 338.872C8.07862 370.328 17.0544 398.121 27.9265 422.251C32.3512 431.852 37.408 441.453 42.844 450.928C50.3028 463.687 58.3936 475.815 67.243 487.312C88.6079 514.726 109.341 532.286 119.834 540.371C120.213 540.75 120.719 541.003 121.098 541.382L121.983 542.013L121.856 542.266ZM5.92949 356.053C7.9522 366.412 10.7334 376.771 14.1468 387.257C10.9863 377.277 8.33146 366.917 5.92949 356.053Z"
              fill="url(#paint11_radial_1100_47084)" stroke="white" stroke-width="1.26316"/>
        <path d="M5.04449 274.55V273.539C4.79165 254.336 6.81436 236.776 11.239 220.985L11.4919 220.227C11.4919 219.974 11.6183 219.848 11.6183 219.595L11.8711 219.722L11.7447 220.353C7.44646 236.145 5.29733 253.831 5.55016 273.034L5.04449 274.55Z"
              fill="url(#paint12_radial_1100_47084)" stroke="white" stroke-width="1.26316"/>
        <path d="M228.428 592.531C228.176 592.531 227.923 592.405 227.796 592.405L227.038 592.152C212.626 588.489 197.708 582.425 182.665 573.961C159.024 560.822 136.016 542.63 114.271 520.017C93.2858 498.162 74.3229 473.148 58.0148 445.481C41.7066 417.941 28.8118 389.137 19.7096 360.081C10.3545 330.14 5.42418 300.958 5.04492 273.544L5.5506 272.028V273.038C5.92986 300.452 10.8602 329.635 20.3417 359.828C29.4439 389.011 42.3387 417.688 58.7733 445.355C75.0814 473.022 94.0443 498.035 115.03 520.017C136.774 542.63 159.783 560.822 183.549 573.961C198.593 582.425 213.637 588.489 227.923 592.152L228.555 592.279L228.428 592.531ZM15.7906 345.679C17.0548 350.48 18.4454 355.28 19.9624 360.207C29.0647 389.264 41.9595 417.941 58.2676 445.481C74.5757 473.022 93.4122 498.035 114.398 519.891C116.547 522.038 118.57 524.186 120.719 526.334C118.696 524.312 116.673 522.291 114.651 520.143C93.6651 498.288 74.7021 473.148 58.2676 445.481C41.9595 417.815 28.9382 389.011 19.836 359.828C18.4454 355.028 17.1812 350.354 15.7906 345.679Z"
              fill="url(#paint13_radial_1100_47084)" stroke="white" stroke-width="1.26316"/>
        <path d="M26.1556 234.377V233.872C25.6499 193.445 34.3728 158.704 51.1867 133.564L51.6923 132.933C51.8188 132.806 51.9452 132.68 51.9452 132.427L52.198 132.554L51.9452 133.059C35.0049 158.199 26.4084 192.94 26.9141 233.366L26.1556 234.377ZM30.3274 187.887C27.5462 202.036 26.282 217.196 26.5348 233.493L26.6612 233.366C26.4084 217.196 27.6726 202.036 30.3274 187.887Z"
              fill="url(#paint14_radial_1100_47084)" stroke="white" stroke-width="1.26316"/>
        <path d="M314.14 601.001C302.509 601.001 290.373 599.359 277.857 596.074C261.802 591.905 244.988 584.957 228.174 575.608C201.247 560.575 175.078 539.983 150.426 514.337C126.533 489.45 105.042 461.025 86.4579 429.695C67.8742 398.365 53.2095 365.645 42.8431 332.546C32.0974 298.31 26.4086 265.211 26.0293 234.007L26.7878 232.997V233.502C27.1671 264.706 32.856 297.805 43.6016 332.041C53.968 365.14 68.6327 397.86 87.2164 429.19C105.8 460.52 127.291 489.071 151.185 513.958C175.963 539.73 202.132 560.322 228.933 575.356C245.873 584.83 262.687 591.652 278.869 595.948C294.418 599.99 309.462 601.506 323.495 600.496H324V600.748C323.874 600.748 323.621 600.748 323.495 600.748L322.61 600.875C319.955 600.875 317.047 601.001 314.14 601.001ZM26.535 234.007C26.9142 265.085 32.6031 298.184 43.2224 332.42C53.5888 365.519 68.2535 398.112 86.8371 429.442C105.421 460.773 126.912 489.324 150.679 514.085C175.331 539.73 201.5 560.322 228.427 575.356C241.069 582.43 253.585 587.989 265.847 592.158C253.711 587.989 241.448 582.43 229.059 575.608C202.132 560.575 175.963 539.983 151.185 514.211C127.291 489.324 105.8 460.773 87.2164 429.442C68.6327 397.986 53.968 365.266 43.6016 332.167C32.856 298.057 27.2935 264.959 26.7878 234.007H26.535Z"
              fill="url(#paint15_radial_1100_47084)" stroke="white" stroke-width="1.26316"/>
        <path d="M63.3239 198.635V198.383C62.9446 168.568 67.2429 141.912 75.8394 119.173C84.3095 97.3174 96.5722 79.7572 112.501 66.9977L113.386 66.3661L113.512 66.2397L113.765 66.4924L113.639 66.6187C97.71 79.2519 85.3209 96.6857 76.8508 118.541C68.1278 141.281 63.8295 167.937 64.2088 197.877V198.004L63.3239 198.635ZM85.8266 98.9597C82.1604 105.276 78.9999 111.972 76.2187 119.299C67.4957 141.786 63.3239 168.316 63.7031 198.004L64.0824 197.751C63.7031 167.81 68.0014 141.028 76.7244 118.415C79.2527 111.466 82.2868 105.024 85.8266 98.9597Z"
              fill="url(#paint16_radial_1100_47084)" stroke="white" stroke-width="1.26316"/>
        <path d="M369.258 588.108C363.063 588.108 356.616 587.603 350.042 586.719C327.034 583.56 302.761 574.97 277.856 561.073C249.286 545.156 221.473 523.3 195.304 496.013C170.02 469.609 147.138 439.416 127.417 406.064C107.696 372.713 92.1459 338.098 81.1474 302.978C69.7697 266.594 63.7015 231.474 63.3223 198.375V198.249L64.3336 197.491V197.743C64.7129 230.842 70.781 265.963 82.1588 302.346C93.1573 337.466 108.707 372.081 128.428 405.433C148.15 438.784 170.905 468.978 196.316 495.381C222.485 522.669 250.297 544.524 278.868 560.442C303.772 574.338 328.171 582.929 351.18 586.087C373.43 589.119 394.036 586.845 412.367 579.518L412.493 579.77L411.229 580.276C398.208 585.582 384.175 588.108 369.258 588.108ZM63.5751 198.375C63.9544 231.348 70.0225 266.594 81.4003 302.851C92.3988 337.972 107.948 372.586 127.67 405.938C147.391 439.29 170.147 469.483 195.557 495.886C221.726 523.174 249.538 545.029 278.109 560.947C302.887 574.717 327.16 583.308 350.168 586.466C356.995 587.35 363.695 587.856 370.143 587.856C363.948 587.856 357.627 587.477 351.18 586.592C328.045 583.434 303.646 574.844 278.741 560.947C250.17 545.029 222.358 523.174 196.063 495.76C170.653 469.357 147.897 439.037 128.176 405.812C108.454 372.46 92.9045 337.719 81.906 302.599C70.5282 266.342 64.5865 231.221 64.0808 198.249L63.5751 198.375Z"
              fill="url(#paint17_radial_1100_47084)" stroke="white" stroke-width="1.26316"/>
        <path d="M114.648 168.7V168.448C114.395 87.3426 143.851 51.7171 167.618 34.536C173.939 29.8617 180.892 25.8191 188.856 22.2818C189.109 22.1555 189.362 22.0291 189.615 21.9028L190.879 21.3975L191.006 21.6501C190.373 21.9028 189.615 22.2818 188.983 22.5344C183.547 25.1874 176.088 28.851 167.871 34.6623C118.061 71.4248 116.418 140.023 115.786 167.942V168.069L114.648 168.7ZM150.046 50.9591C131.588 71.9302 114.775 107.05 114.901 168.195L115.407 167.942C116.039 143.687 117.303 88.9849 150.046 50.9591Z"
              fill="url(#paint18_radial_1100_47084)" stroke="white" stroke-width="1.26316"/>
        <path d="M419.953 557.043C419.447 557.043 418.941 557.043 418.436 557.043C394.037 556.79 367.994 549.968 341.193 536.703C313.76 523.186 286.454 503.604 260.158 478.464C233.989 453.451 210.096 424.142 189.11 391.548C167.493 357.817 150.173 322.065 137.405 285.177C124.004 246.014 116.166 206.725 114.396 168.446V168.32L115.534 167.814V168.067C117.304 206.346 125.016 245.508 138.416 284.671C151.058 321.56 168.378 357.186 189.869 390.916C210.728 423.51 234.495 452.693 260.79 477.706C286.959 502.72 314.266 522.301 341.699 535.819C368.626 549.084 394.669 555.906 419.068 556.158C419.573 556.158 420.079 556.158 420.458 556.158C445.869 556.158 468.877 548.957 489.104 534.808L489.231 535.061L488.219 535.945C468.245 549.842 445.237 557.043 419.953 557.043ZM114.902 168.572C116.672 206.851 124.384 246.014 137.784 285.177C150.426 322.065 167.872 357.817 189.363 391.548C210.223 424.142 234.116 453.324 260.285 478.338C286.58 503.352 313.76 522.933 341.193 536.45C367.994 549.589 393.91 556.411 418.309 556.664C436.134 556.916 452.695 553.505 468.119 546.81C452.948 553.253 436.514 556.537 419.068 556.285C394.542 556.032 368.5 549.21 341.573 535.945C314.14 522.428 286.833 502.846 260.664 477.833C234.495 452.819 210.602 423.636 189.743 391.043C168.125 357.312 150.805 321.56 138.163 284.798C124.763 245.761 117.051 206.598 115.281 168.32L114.902 168.572Z"
              fill="url(#paint19_radial_1100_47084)" stroke="white" stroke-width="1.26316"/>
        <path d="M176.343 146.711V146.459C175.838 104.138 185.319 68.3857 203.65 42.8667C221.475 18.1057 247.138 3.70388 277.858 1.30358L279.249 1.17725V1.42991C180.642 12.9261 178.366 113.107 177.608 146.08V146.206H177.481C177.102 146.332 176.849 146.332 176.47 146.459L176.343 146.711ZM272.17 2.31423C244.104 5.97785 220.464 20.0007 203.776 43.1194C185.446 68.5121 176.091 104.138 176.596 146.332C176.849 146.332 177.102 146.206 177.228 146.206C178.113 113.739 180.389 17.7267 272.17 2.31423Z"
              fill="url(#paint20_radial_1100_47084)" stroke="white" stroke-width="1.26316"/>
        <path d="M464.833 513.964C438.159 513.964 408.703 505.374 378.615 488.572C351.688 473.538 325.519 452.946 300.741 427.175C276.847 402.287 255.356 373.736 236.772 342.406C218.189 310.949 203.524 278.229 193.158 245.131C182.412 210.895 176.723 177.669 176.344 146.465V146.339H176.47C176.849 146.213 177.102 146.213 177.482 146.086H177.734V146.339C177.987 154.045 178.493 165.415 179.378 174.006C183.17 210.01 193.284 247.278 209.339 284.672C224.51 320.045 244.358 353.902 268.124 385.232C315.911 448.146 373.811 492.741 426.907 507.522C477.475 521.671 520.332 508.027 550.546 468.106L550.799 468.232L550.04 469.369C533.226 494.257 508.827 509.29 479.372 513.08C474.568 513.712 469.764 513.964 464.833 513.964ZM176.597 146.592C176.976 177.669 182.665 210.895 193.41 245.004C203.777 278.103 218.441 310.823 237.025 342.153C255.609 373.61 277.1 402.035 300.994 426.922C325.772 452.694 351.941 473.286 378.742 488.319C414.266 508.153 449.031 516.617 479.245 512.701C507.31 509.164 530.824 495.141 547.512 472.275C525.388 499.31 497.07 513.08 464.075 513.08C452.191 513.08 439.676 511.311 426.655 507.648C373.432 492.867 315.532 448.146 267.745 385.232C243.978 353.902 224.13 320.045 208.96 284.672C192.905 247.278 182.791 210.01 178.999 173.879C178.114 165.289 177.482 154.172 177.355 146.339C177.102 146.465 176.849 146.592 176.597 146.592Z"
              fill="url(#paint21_radial_1100_47084)" stroke="white" stroke-width="1.26316"/>
        <path d="M245.494 133.702V133.576C245.873 108.183 249.54 86.075 256.366 67.7569C263.066 49.6915 272.927 35.2896 285.696 25.0568C293.407 18.8665 302.13 14.1922 311.864 11.0339C316.668 9.26531 321.852 8.00199 327.035 7.11767C341.447 4.71736 357.123 5.47535 373.557 9.51797C373.557 9.51797 373.557 9.51797 373.684 9.51797L374.442 9.6443C374.695 9.6443 374.948 9.77063 375.201 9.89696L375.074 10.1496L374.316 10.0233C374.063 9.89696 373.81 9.89696 373.431 9.77063C355.353 6.10701 338.665 5.60169 324.001 8.25465C319.829 9.01264 315.783 10.0233 311.991 11.2866C303.394 14.3186 295.43 18.7402 288.224 24.4251C274.823 34.9106 264.584 49.4388 257.504 67.6306C250.172 86.454 246.632 108.562 246.885 133.449V133.576L245.494 133.702ZM302.004 15.0766C296.188 17.8559 290.752 21.1405 285.696 25.1831C273.054 35.416 263.193 49.6915 256.493 67.7569C249.666 85.9487 246.126 108.057 245.621 133.323L246.379 133.197C246.126 108.309 249.666 86.2013 256.998 67.3779C264.078 49.1861 274.444 34.5317 287.845 24.0461C292.396 20.6352 297.073 17.6032 302.004 15.0766ZM343.722 5.98068C338.033 5.98068 332.471 6.48601 327.035 7.37033C325.771 7.62299 324.38 7.87566 323.116 8.12832C323.369 8.12832 323.621 8.00199 323.874 8.00199C336.263 5.72802 349.917 5.72802 364.708 8.00199C357.502 6.61234 350.549 5.98068 343.722 5.98068Z"
              fill="url(#paint22_radial_1100_47084)" stroke="white" stroke-width="1.26316"/>
        <path d="M500.862 456.474C486.576 456.474 471.28 453.568 455.351 448.01C445.111 444.473 434.744 439.672 424.125 433.861C423.872 433.734 423.493 433.482 423.24 433.355C384.556 411.753 346.63 376.38 315.91 332.922C295.556 304.118 279.248 273.04 267.365 240.573C254.47 205.453 247.138 169.448 245.494 133.697V133.57L246.885 133.444V133.57C247.264 160.984 252.194 190.04 261.549 220.107C270.652 249.164 283.546 277.841 299.855 305.381C316.163 332.922 334.999 357.935 355.985 379.791C377.476 402.151 400.105 420.091 423.493 433.229C433.101 438.535 442.582 443.083 452.19 446.62C453.328 446.999 454.339 447.378 455.477 447.757C465.591 451.294 475.451 453.695 484.933 454.832C503.643 457.232 520.836 455.211 536.006 448.768C549.028 443.336 560.279 434.745 569.508 423.375C576.334 414.911 581.897 404.931 586.321 393.814C588.091 389.266 589.229 385.349 590.114 382.57C590.24 382.191 590.24 381.938 590.367 381.559L590.62 380.801L590.873 380.928C590.746 381.18 590.746 381.433 590.62 381.686L590.367 382.444C590.367 382.57 590.367 382.57 590.24 382.696C589.103 386.613 587.839 390.403 586.448 393.94C582.529 404.425 575.829 418.322 564.198 430.45C550.545 444.725 533.478 453.316 513.63 455.842C509.585 456.221 505.286 456.474 500.862 456.474ZM493.656 455.842C500.609 456.348 507.309 456.095 513.757 455.211C533.478 452.684 550.545 444.22 564.198 429.944C566.474 427.544 568.496 425.144 570.519 422.617C570.266 422.87 570.14 423.123 569.887 423.375C560.658 434.871 549.281 443.462 536.259 448.894C523.238 454.453 508.953 456.727 493.656 455.842ZM245.747 133.57C247.39 169.322 254.723 205.2 267.618 240.194C279.501 272.661 295.809 303.739 316.163 332.543C333.861 357.683 353.962 379.917 375.201 398.488C368.627 392.677 362.053 386.36 355.732 379.664C334.746 357.809 315.783 332.795 299.475 305.255C283.167 277.715 270.272 248.911 261.17 219.855C251.689 189.788 246.758 160.732 246.379 133.444L245.747 133.57Z"
              fill="url(#paint23_radial_1100_47084)" stroke="white" stroke-width="1.26316"/>
        <path d="M319.45 130.419H318.06V130.293C317.807 108.058 321.346 88.4769 328.552 72.3064C335.505 56.6413 345.745 44.8924 358.767 37.0599C371.535 29.48 386.453 26.1954 403.14 27.3323C420.333 28.5957 438.664 34.5332 457.627 45.1451C465.212 49.3141 472.797 54.241 480.256 59.7996L481.267 60.5576C481.394 60.6839 481.647 60.8102 481.773 60.9366L481.647 61.1892L481.141 60.8102C438.917 29.48 395.428 19.6261 364.708 34.5332C351.181 41.1025 340.436 52.2197 332.851 67.5058C324.633 83.929 320.209 105.026 319.577 130.293L319.45 130.419ZM318.312 130.166H319.071C319.703 105.026 324.128 83.929 332.345 67.5058C338.666 54.7463 347.262 44.8924 357.755 38.0705C345.366 45.7768 335.632 57.3993 328.805 72.4328C321.599 88.4769 318.06 107.932 318.312 130.166Z"
              fill="url(#paint24_radial_1100_47084)" stroke="white" stroke-width="1.26316"/>
        <path d="M522.479 390.662C520.33 390.662 518.054 390.536 515.905 390.41C498.712 389.146 480.381 383.209 461.418 372.597C423.619 351.626 387.969 314.737 360.915 269.005C333.861 223.273 318.691 173.877 318.059 130.166V130.04H318.185V130.166V130.04H319.449V130.166C322.989 224.536 378.74 305.136 425.515 345.436C448.524 365.27 472.923 379.04 496.057 385.23C518.813 391.294 539.799 389.904 556.739 381.188C572.415 373.102 584.046 359.332 591.378 340.13C599.342 319.538 601.871 293.513 598.963 262.815H599.216L599.469 264.71C600.354 272.416 600.859 279.996 600.986 287.323C601.239 309.557 597.699 329.139 590.493 345.309C583.54 360.974 573.3 372.723 560.279 380.556C549.154 387.378 536.512 390.662 522.479 390.662ZM318.311 130.419C318.944 174.003 334.114 223.273 361.041 268.879C388.095 314.611 423.745 351.373 461.418 372.344C480.255 382.83 498.586 388.767 515.779 390.031C532.34 391.168 547.257 388.009 559.899 380.43C572.794 372.723 582.908 360.974 589.987 345.309C597.193 329.139 600.733 309.684 600.48 287.449C600.48 283.028 600.227 278.48 599.848 273.932C601.239 299.956 598.457 322.191 591.504 340.382C584.172 359.585 572.415 373.481 556.739 381.567C539.799 390.283 518.687 391.673 495.805 385.609C472.67 379.419 448.271 365.649 425.136 345.688C378.487 305.388 322.61 224.789 319.07 130.293L318.311 130.419Z"
              fill="url(#paint25_radial_1100_47084)" stroke="white" stroke-width="1.26316"/>
        <path d="M532.591 319.534C519.444 319.534 504.905 315.239 489.735 306.901C463.313 292.12 438.282 266.349 419.193 234.26C400.23 202.172 389.611 167.684 389.231 137.111V136.732C389.105 121.194 391.507 107.55 396.564 96.3062C401.494 85.3153 408.574 76.9774 417.676 71.5452C436.133 60.5543 460.785 62.5756 486.954 77.2301C513.375 92.0109 538.406 117.783 557.496 149.871C576.585 181.959 587.204 216.574 587.457 247.273C587.71 262.938 585.182 276.582 580.125 287.951C575.195 298.942 568.115 307.28 559.013 312.712C551.301 317.26 542.325 319.534 532.591 319.534ZM389.611 137.111C390.496 200.277 435.501 276.329 489.988 306.649C516.157 321.177 540.682 323.198 559.013 312.333C568.115 306.901 575.195 298.69 579.999 287.825C585.055 276.582 587.584 262.938 587.331 247.273C587.331 246.641 587.331 246.009 587.331 245.378C587.331 245.757 587.331 246.262 587.331 246.641C587.584 262.18 585.055 275.697 579.999 287.067C575.068 297.932 567.989 306.27 559.013 311.575C540.682 322.44 516.283 320.545 490.114 306.017C463.819 291.362 438.914 265.717 420.078 233.881C401.241 202.046 390.622 167.81 390.243 137.364L389.611 137.111ZM390.622 137.111C391.38 199.898 436.133 275.445 490.241 305.638C516.283 320.166 540.556 322.061 558.76 311.323C567.736 306.017 574.815 297.805 579.619 286.941C584.676 275.697 587.078 262.18 586.952 246.641C586.193 183.854 541.441 108.308 487.333 78.1144C461.29 63.5863 437.018 61.6913 418.813 72.4295C409.838 77.7354 402.758 85.947 397.954 96.8115C392.897 108.055 390.496 121.699 390.622 137.111ZM389.611 136.859L390.369 136.985C390.243 121.573 392.645 108.055 397.701 96.8115C402.632 85.947 409.711 77.6091 418.687 72.3032C437.018 61.4386 461.417 63.3336 487.586 77.8618C488.724 78.4934 489.861 79.1251 491.126 79.8831C489.735 79.1251 488.471 78.3671 487.08 77.6091C460.911 63.081 436.386 61.0597 418.055 71.9242C408.953 77.3564 401.873 85.568 397.069 96.4325C391.886 107.676 389.484 121.32 389.611 136.859Z"
              fill="url(#paint26_radial_1100_47084)" stroke="white" stroke-width="1.26316"/>
        <path d="M529.306 247.276C522.48 247.276 515.021 245.129 507.309 240.707C479.244 225.042 455.983 185.879 455.604 153.286V152.907C455.477 137.115 460.661 125.24 470.269 119.429C479.75 113.744 492.518 114.754 506.045 122.334C534.237 137.999 557.372 177.289 557.751 209.882C558.004 225.8 552.694 237.801 543.086 243.613C538.914 246.013 534.363 247.276 529.306 247.276ZM455.857 153.412C456.362 185.879 479.497 224.789 507.436 240.454C520.836 247.908 533.478 248.919 542.833 243.36C552.441 237.675 557.624 225.8 557.372 210.009C556.992 177.541 533.858 138.378 505.792 122.84C492.392 115.386 479.75 114.375 470.395 119.934C460.787 125.619 455.73 137.494 455.857 153.286L456.489 153.538C456.362 137.873 461.546 126.251 471.027 120.566C480.382 115.007 492.898 116.018 506.298 123.471C533.984 138.884 556.866 177.541 557.245 209.63C557.498 225.295 552.315 237.17 542.707 242.855C533.352 248.413 520.836 247.403 507.436 239.949C479.75 224.537 456.868 185.879 456.489 153.791L455.857 153.412ZM456.742 153.538C457.121 185.5 479.876 224.158 507.562 239.444C520.836 246.771 533.225 247.782 542.454 242.349C551.936 236.791 556.992 225.042 556.74 209.377C556.36 177.415 533.605 138.757 505.919 123.471C492.645 116.144 480.256 115.133 471.027 120.566C461.672 126.251 456.615 137.873 456.742 153.538Z"
              fill="url(#paint27_radial_1100_47084)" stroke="white" stroke-width="1.26316"/>
    </mask>
    <g mask="url(#mask0_1100_47084)">
        <rect width="707.95" height="716.301" transform="matrix(-1 0 0 1 654.053 -57.104)"
              fill="url(#paint28_radial_1100_47084)"/>
    </g>
    <defs>
        <radialGradient id="paint0_radial_1100_47084" cx="0" cy="0" r="1" gradientUnits="userSpaceOnUse"
                        gradientTransform="translate(91.0602 420.244) rotate(86.1928) scale(65.937 51.4208)">
            <stop stop-color="#F08119"/>
            <stop offset="1" stop-color="#9536DF"/>
        </radialGradient>
        <radialGradient id="paint1_radial_1100_47084" cx="0" cy="0" r="1" gradientUnits="userSpaceOnUse"
                        gradientTransform="translate(104.886 409.733) rotate(86.1891) scale(127.998 99.914)">
            <stop stop-color="#F08119"/>
            <stop offset="1" stop-color="#9536DF"/>
        </radialGradient>
        <radialGradient id="paint2_radial_1100_47084" cx="0" cy="0" r="1" gradientUnits="userSpaceOnUse"
                        gradientTransform="translate(130.463 392.75) rotate(86.19) scale(182.499 142.422)">
            <stop stop-color="#F08119"/>
            <stop offset="1" stop-color="#9536DF"/>
        </radialGradient>
        <radialGradient id="paint3_radial_1100_47084" cx="0" cy="0" r="1" gradientUnits="userSpaceOnUse"
                        gradientTransform="translate(1.98246 326.521) rotate(89.5679) scale(12.2129 1.08412)">
            <stop stop-color="#F08119"/>
            <stop offset="1" stop-color="#9536DF"/>
        </radialGradient>
        <radialGradient id="paint4_radial_1100_47084" cx="0" cy="0" r="1" gradientUnits="userSpaceOnUse"
                        gradientTransform="translate(169.57 370.377) rotate(86.2525) scale(226.559 173.927)">
            <stop stop-color="#F08119"/>
            <stop offset="1" stop-color="#9536DF"/>
        </radialGradient>
        <radialGradient id="paint5_radial_1100_47084" cx="0" cy="0" r="1" gradientUnits="userSpaceOnUse"
                        gradientTransform="translate(222.435 343.845) rotate(86.4224) scale(257.28 188.602)">
            <stop stop-color="#F08119"/>
            <stop offset="1" stop-color="#9536DF"/>
        </radialGradient>
        <radialGradient id="paint6_radial_1100_47084" cx="0" cy="0" r="1" gradientUnits="userSpaceOnUse"
                        gradientTransform="translate(283.797 311.402) rotate(86.5811) scale(269.483 188.828)">
            <stop stop-color="#F08119"/>
            <stop offset="1" stop-color="#9536DF"/>
        </radialGradient>
        <radialGradient id="paint7_radial_1100_47084" cx="0" cy="0" r="1" gradientUnits="userSpaceOnUse"
                        gradientTransform="translate(349.064 274.383) rotate(86.7249) scale(261.862 175.803)">
            <stop stop-color="#F08119"/>
            <stop offset="1" stop-color="#9536DF"/>
        </radialGradient>
        <radialGradient id="paint8_radial_1100_47084" cx="0" cy="0" r="1" gradientUnits="userSpaceOnUse"
                        gradientTransform="translate(414.142 234.769) rotate(86.8826) scale(234.942 150.166)">
            <stop stop-color="#F08119"/>
            <stop offset="1" stop-color="#9536DF"/>
        </radialGradient>
        <radialGradient id="paint9_radial_1100_47084" cx="0" cy="0" r="1" gradientUnits="userSpaceOnUse"
                        gradientTransform="translate(475.675 195.525) rotate(87.0625) scale(187.04 112.678)">
            <stop stop-color="#F08119"/>
            <stop offset="1" stop-color="#9536DF"/>
        </radialGradient>
        <radialGradient id="paint10_radial_1100_47084" cx="0" cy="0" r="1" gradientUnits="userSpaceOnUse"
                        gradientTransform="translate(534.617 162.131) rotate(87.1494) scale(102.953 60.1914)">
            <stop stop-color="#F08119"/>
            <stop offset="1" stop-color="#9536DF"/>
        </radialGradient>
        <radialGradient id="paint11_radial_1100_47084" cx="0" cy="0" r="1" gradientUnits="userSpaceOnUse"
                        gradientTransform="translate(57.1981 439.314) rotate(87.1559) scale(103.079 60.128)">
            <stop stop-color="#F08119"/>
            <stop offset="1" stop-color="#9536DF"/>
        </radialGradient>
        <radialGradient id="paint12_radial_1100_47084" cx="0" cy="0" r="1" gradientUnits="userSpaceOnUse"
                        gradientTransform="translate(8.15382 247.024) rotate(89.3891) scale(27.5272 3.45419)">
            <stop stop-color="#F08119"/>
            <stop offset="1" stop-color="#9536DF"/>
        </radialGradient>
        <radialGradient id="paint13_radial_1100_47084" cx="0" cy="0" r="1" gradientUnits="userSpaceOnUse"
                        gradientTransform="translate(107.221 431.997) rotate(86.5852) scale(160.82 112.551)">
            <stop stop-color="#F08119"/>
            <stop offset="1" stop-color="#9536DF"/>
        </radialGradient>
        <radialGradient id="paint14_radial_1100_47084" cx="0" cy="0" r="1" gradientUnits="userSpaceOnUse"
                        gradientTransform="translate(38.0494 183.312) rotate(88.7469) scale(51.077 13.1447)">
            <stop stop-color="#F08119"/>
            <stop offset="1" stop-color="#9536DF"/>
        </radialGradient>
        <radialGradient id="paint15_radial_1100_47084" cx="0" cy="0" r="1" gradientUnits="userSpaceOnUse"
                        gradientTransform="translate(162.245 416.674) rotate(86.0369) scale(184.769 149.955)">
            <stop stop-color="#F08119"/>
            <stop offset="1" stop-color="#9536DF"/>
        </radialGradient>
        <radialGradient id="paint16_radial_1100_47084" cx="0" cy="0" r="1" gradientUnits="userSpaceOnUse"
                        gradientTransform="translate(86.3703 132.321) rotate(88.132) scale(66.3498 25.4438)">
            <stop stop-color="#F08119"/>
            <stop offset="1" stop-color="#9536DF"/>
        </radialGradient>
        <radialGradient id="paint17_radial_1100_47084" cx="0" cy="0" r="1" gradientUnits="userSpaceOnUse"
                        gradientTransform="translate(222.943 392.455) rotate(85.6263) scale(196.225 175.629)">
            <stop stop-color="#F08119"/>
            <stop offset="1" stop-color="#9536DF"/>
        </radialGradient>
        <radialGradient id="paint18_radial_1100_47084" cx="0" cy="0" r="1" gradientUnits="userSpaceOnUse"
                        gradientTransform="translate(149.553 94.919) rotate(87.4603) scale(73.8538 38.4822)">
            <stop stop-color="#F08119"/>
            <stop offset="1" stop-color="#9536DF"/>
        </radialGradient>
        <radialGradient id="paint19_radial_1100_47084" cx="0" cy="0" r="1" gradientUnits="userSpaceOnUse"
                        gradientTransform="translate(285.749 362.085) rotate(85.2895) scale(195.618 188.45)">
            <stop stop-color="#F08119"/>
            <stop offset="1" stop-color="#9536DF"/>
        </radialGradient>
        <radialGradient id="paint20_radial_1100_47084" cx="0" cy="0" r="1" gradientUnits="userSpaceOnUse"
                        gradientTransform="translate(223.376 73.816) rotate(86.5371) scale(73.0288 51.8265)">
            <stop stop-color="#F08119"/>
            <stop offset="1" stop-color="#9536DF"/>
        </radialGradient>
        <radialGradient id="paint21_radial_1100_47084" cx="0" cy="0" r="1" gradientUnits="userSpaceOnUse"
                        gradientTransform="translate(347.523 329.701) rotate(85.0225) scale(184.961 188.185)">
            <stop stop-color="#F08119"/>
            <stop offset="1" stop-color="#9536DF"/>
        </radialGradient>
        <radialGradient id="paint22_radial_1100_47084" cx="0" cy="0" r="1" gradientUnits="userSpaceOnUse"
                        gradientTransform="translate(304.789 69.6164) rotate(85.0425) scale(64.3263 65.1868)">
            <stop stop-color="#F08119"/>
            <stop offset="1" stop-color="#9536DF"/>
        </radialGradient>
        <radialGradient id="paint23_radial_1100_47084" cx="0" cy="0" r="1" gradientUnits="userSpaceOnUse"
                        gradientTransform="translate(403.381 294.674) rotate(84.773) scale(162.476 173.505)">
            <stop stop-color="#F08119"/>
            <stop offset="1" stop-color="#9536DF"/>
        </radialGradient>
        <radialGradient id="paint24_radial_1100_47084" cx="0" cy="0" r="1" gradientUnits="userSpaceOnUse"
                        gradientTransform="translate(392.893 78.6748) rotate(82.2774) scale(52.2178 81.844)">
            <stop stop-color="#F08119"/>
            <stop offset="1" stop-color="#9536DF"/>
        </radialGradient>
        <radialGradient id="paint25_radial_1100_47084" cx="0" cy="0" r="1" gradientUnits="userSpaceOnUse"
                        gradientTransform="translate(447.403 260.121) rotate(84.693) scale(131.103 142.12)">
            <stop stop-color="#F08119"/>
            <stop offset="1" stop-color="#9536DF"/>
        </radialGradient>
        <radialGradient id="paint26_radial_1100_47084" cx="0" cy="0" r="1" gradientUnits="userSpaceOnUse"
                        gradientTransform="translate(479.854 191.819) rotate(86.194) scale(127.997 99.7874)">
            <stop stop-color="#F08119"/>
            <stop offset="1" stop-color="#9536DF"/>
        </radialGradient>
        <radialGradient id="paint27_radial_1100_47084" cx="0" cy="0" r="1" gradientUnits="userSpaceOnUse"
                        gradientTransform="translate(502.302 181.422) rotate(86.1964) scale(66.0001 51.421)">
            <stop stop-color="#F08119"/>
            <stop offset="1" stop-color="#9536DF"/>
        </radialGradient>
        <radialGradient id="paint28_radial_1100_47084" cx="0" cy="0" r="1" gradientUnits="userSpaceOnUse"
                        gradientTransform="translate(323.634 357.519) rotate(85.1662) scale(360.063 355.861)">
            <stop stop-color="#F08119"/>
            <stop offset="1" stop-color="#9536DF"/>
        </radialGradient>
    </defs>
    </g>
        <animateTransform attributeName="transform" attributeType="XML" type="rotate" dur="12s" from="0 300 300" to="360 300 300" repeatCount="indefinite">
        </animateTransform>
    </g>
</svg>
