<svg width="602" height="600" viewBox="0 0 602 600" fill="none" xmlns="http://www.w3.org/2000/svg">
    <g>
    <g>
    <g opacity="0.8">
        <mask id="mask0_1105_46998" style="mask-type:alpha" maskUnits="userSpaceOnUse" x="0" y="111" width="602"
              height="378">
            <path d="M313 116.631C318.289 98.5967 322.521 134.843 322.388 197.401" stroke="white" stroke-width="1.04348"
                  stroke-miterlimit="10"/>
            <path d="M151.75 154.883C69.3389 153.111 2.14998 215.185 2 293.349" stroke="white" stroke-width="1.04348"
                  stroke-miterlimit="10"/>
            <path d="M313 116.631C318.289 98.5967 322.521 134.843 322.388 197.401" stroke="white" stroke-width="1.04348"
                  stroke-miterlimit="10"/>
            <path d="M151.75 154.883C69.3389 153.111 2.14998 215.185 2 293.349" stroke="white" stroke-width="1.04348"
                  stroke-miterlimit="10"/>
            <path d="M214.975 117.32C219.479 116.731 225.558 115.995 230.061 115.553C234.639 115.038 240.794 114.449 245.372 114.155C249.875 113.861 255.879 113.345 260.382 113.125C264.886 112.904 270.965 112.609 275.468 112.462C279.971 112.315 285.9 112.094 290.404 112.094C294.907 112.094 300.836 111.947 305.264 112.021C309.692 112.094 315.621 112.168 320.049 112.315C324.477 112.462 330.332 112.683 334.76 112.904C343.466 113.345 355.024 114.302 363.73 114.965C368.083 115.333 373.787 115.921 378.065 116.51C382.343 117.025 388.047 117.761 392.325 118.35C396.528 118.939 402.082 119.896 406.285 120.558C410.413 121.22 415.892 122.324 419.945 123.134C424.223 123.943 429.852 125.195 434.13 126.225C438.483 127.255 444.262 128.727 448.54 129.905C452.593 131.083 457.996 132.628 461.974 133.953C466.702 135.498 472.932 137.633 477.585 139.473C481.488 141.018 486.742 143.079 490.569 144.845C496.273 147.495 503.779 151.248 509.332 154.192C545.958 174.579 570.2 214.984 570.05 264.369C497.324 223.669 317.648 206.668 168.968 226.245C62.7684 240.228 1.07505 269.152 1 299.328C1.82558 295.574 1.37526 290.275 1.52537 286.448C1.75053 281.738 2.57611 275.555 3.62685 270.919C5.27801 263.559 7.90485 253.844 10.2315 246.631C11.5074 242.657 13.759 237.652 15.4852 233.899C17.2865 230.072 19.6881 224.994 21.9397 221.461C25.9175 215.058 31.6215 206.741 36.1247 200.633C38.7515 197.026 42.8795 192.684 45.8816 189.372C48.5084 186.575 52.261 183.043 55.038 180.393C58.6405 177.008 63.7441 172.813 67.6469 169.869C72.3752 166.336 78.9048 161.699 84.0084 158.682C90.8382 154.56 100.295 149.629 107.425 146.097C111.928 143.889 118.082 141.386 122.736 139.546C137.296 133.806 154.258 129.095 161.088 127.476C169.644 125.415 181.052 122.913 189.683 121.294C197.338 119.822 207.395 118.276 214.975 117.32Z"
                  stroke="white" stroke-width="1.04348" stroke-miterlimit="10"/>
            <path d="M166.9 175.771C92.5934 185.562 32.0974 256.967 31.9473 334.849C104.903 375.483 284.514 392.488 433.277 372.907C433.427 295.024 403.93 215.154 367.527 194.837C293.146 204.628 203.303 196.089 166.9 175.771Z"
                  stroke="white" stroke-width="1.04348" stroke-miterlimit="10"/>
            <path d="M98.8359 204.667C153.647 235.333 288.612 248.19 400.333 233.411" stroke="white"
                  stroke-width="1.04348" stroke-miterlimit="10"/>
            <path d="M49.918 261.465C117.938 299.122 285.547 314.946 424.294 296.777" stroke="white"
                  stroke-width="1.04348" stroke-miterlimit="10"/>
            <path d="M218.637 192.71C172.545 211.327 134.929 289.536 134.777 367.084" stroke="white"
                  stroke-width="1.04348" stroke-miterlimit="10"/>
            <path d="M367.389 195.432C403.782 215.699 433.273 295.373 433.123 373.064C581.774 353.531 643.231 304.772 570.293 264.237C570.443 186.546 510.187 131.252 435.974 141.019C472.443 161.286 441.677 185.665 367.389 195.432Z"
                  stroke="white" stroke-width="1.04348" stroke-miterlimit="10"/>
            <path d="M400.336 232.568C512.603 217.912 559.017 181.345 503.938 150.861" stroke="white"
                  stroke-width="1.04348" stroke-miterlimit="10"/>
            <path d="M424.293 297.335C563.127 279.084 620.436 233.602 552.372 195.7" stroke="white"
                  stroke-width="1.04348" stroke-miterlimit="10"/>
            <path d="M426.293 181.75C495.263 194.286 551.235 267.598 551.085 345.163" stroke="white"
                  stroke-width="1.04348" stroke-miterlimit="10"/>
            <path d="M31.9475 335.199C31.7974 413.196 92.0795 468.708 166.325 458.903C202.809 479.25 292.67 487.801 366.99 477.923C403.4 498.27 433.128 451.309 433.278 373.312C284.562 392.922 104.917 375.893 31.9475 335.199Z"
                  stroke="white" stroke-width="1.04348" stroke-miterlimit="10"/>
            <path d="M134.778 367.085C134.627 445.087 171.806 493.378 217.639 474.652" stroke="white"
                  stroke-width="1.04348" stroke-miterlimit="10"/>
            <path d="M432.784 373.509C432.633 451.365 402.858 498.24 366.391 477.93C440.904 468.143 471.657 443.712 435.115 423.402C509.478 413.614 570.081 342.308 570.231 264.452C643.316 305.072 581.736 353.861 432.784 373.509Z"
                  stroke="white" stroke-width="1.04348" stroke-miterlimit="10"/>
            <path d="M551.081 345.162C550.93 423.224 494.521 476.496 425.291 463.879" stroke="white"
                  stroke-width="1.04348" stroke-miterlimit="10"/>
            <path d="M600.002 306.303C599.852 383.872 532.63 445.532 450.252 443.772" stroke="white"
                  stroke-width="1.04348" stroke-miterlimit="10"/>
            <path d="M367.389 195.432C403.782 215.699 433.273 295.373 433.123 373.064C581.774 353.531 643.231 304.772 570.293 264.237C570.443 186.546 510.187 131.252 435.974 141.019C472.443 161.286 441.677 185.665 367.389 195.432Z"
                  stroke="white" stroke-width="1.04348" stroke-miterlimit="10"/>
            <path d="M424.293 297.335C563.127 279.084 620.436 233.602 552.372 195.7" stroke="white"
                  stroke-width="1.04348" stroke-miterlimit="10"/>
            <path d="M432.784 373.509C432.633 451.365 402.858 498.24 366.391 477.93C440.904 468.143 471.657 443.712 435.115 423.402C509.478 413.614 570.081 342.308 570.231 264.452C643.316 305.072 581.736 353.861 432.784 373.509Z"
                  stroke="white" stroke-width="1.04348" stroke-miterlimit="10"/>
            <path d="M509.15 153.848C516.169 158.052 525.527 163.879 532.169 168.673C537.225 172.286 543.565 177.67 548.093 181.874C551.791 185.267 556.621 189.987 559.791 193.822C562.281 196.773 565.602 200.608 567.941 203.632C570.658 207.172 574.13 212.113 576.47 215.875C580.469 222.291 584.998 231.289 588.243 238.148C590.054 241.983 592.092 247.294 593.224 251.35C594.356 255.333 596.016 260.643 596.997 264.7C597.903 268.387 598.809 273.402 599.337 277.164C600.469 284.023 600.771 293.39 600.997 300.322C600.997 288.227 591.111 275.91 570.13 264.257C570.281 214.768 545.98 174.352 509.15 153.848Z"
                  stroke="white" stroke-width="1.04348" stroke-miterlimit="10"/>
            <path d="M367.389 195.432C403.782 215.699 433.273 295.373 433.123 373.064C581.774 353.531 643.231 304.772 570.293 264.237C570.443 186.546 510.187 131.252 435.974 141.019C472.443 161.286 441.677 185.665 367.389 195.432Z"
                  stroke="white" stroke-width="1.04348" stroke-miterlimit="10"/>
            <path d="M400.336 232.568C512.603 217.912 559.017 181.345 503.938 150.861" stroke="white"
                  stroke-width="1.04348" stroke-miterlimit="10"/>
            <path d="M424.293 297.335C563.127 279.084 620.436 233.602 552.372 195.7" stroke="white"
                  stroke-width="1.04348" stroke-miterlimit="10"/>
            <path d="M432.784 373.509C432.633 451.365 402.858 498.24 366.391 477.93C440.904 468.143 471.657 443.712 435.115 423.402C509.478 413.614 570.081 342.308 570.231 264.452C643.316 305.072 581.736 353.861 432.784 373.509Z"
                  stroke="white" stroke-width="1.04348" stroke-miterlimit="10"/>
            <path d="M166.9 175.771C92.5934 185.562 32.0974 256.967 31.9473 334.849C104.903 375.483 284.514 392.488 433.277 372.907C433.427 295.024 403.93 215.154 367.527 194.837C293.146 204.628 203.303 196.089 166.9 175.771Z"
                  stroke="white" stroke-width="1.04348" stroke-miterlimit="10"/>
            <path d="M218.637 192.71C172.545 211.327 134.929 289.536 134.777 367.084" stroke="white"
                  stroke-width="1.04348" stroke-miterlimit="10"/>
            <path d="M367.389 195.432C403.782 215.699 433.273 295.373 433.123 373.064C581.774 353.531 643.231 304.772 570.293 264.237C570.443 186.546 510.187 131.252 435.974 141.019C472.443 161.286 441.677 185.665 367.389 195.432Z"
                  stroke="white" stroke-width="1.04348" stroke-miterlimit="10"/>
            <path d="M426.293 181.75C495.263 194.286 551.235 267.598 551.085 345.163" stroke="white"
                  stroke-width="1.04348" stroke-miterlimit="10"/>
            <path d="M177.703 302.316C38.8694 320.568 -18.4391 366.05 49.6241 403.951" stroke="white"
                  stroke-width="1.04348" stroke-miterlimit="10"/>
            <path d="M201.664 366.087C89.3964 380.743 42.9825 417.309 98.0613 447.794" stroke="white"
                  stroke-width="1.04348" stroke-miterlimit="10"/>
            <path d="M31.9475 335.199C31.7974 413.196 92.0795 468.708 166.325 458.903C202.809 479.25 292.67 487.801 366.99 477.923C403.4 498.27 433.128 451.309 433.278 373.312C284.562 392.922 104.917 375.893 31.9475 335.199Z"
                  stroke="white" stroke-width="1.04348" stroke-miterlimit="10"/>
            <path d="M49.918 403.951C117.938 441.608 285.547 457.433 424.294 439.264" stroke="white"
                  stroke-width="1.04348" stroke-miterlimit="10"/>
            <path d="M97.8379 447.795C152.83 478.461 288.242 491.319 400.333 476.54" stroke="white"
                  stroke-width="1.04348" stroke-miterlimit="10"/>
            <path d="M134.778 367.085C134.627 445.087 171.806 493.378 217.639 474.652" stroke="white"
                  stroke-width="1.04348" stroke-miterlimit="10"/>
            <path d="M432.784 373.509C432.633 451.365 402.858 498.24 366.391 477.93C440.904 468.143 471.657 443.712 435.115 423.402C509.478 413.614 570.081 342.308 570.231 264.452C643.316 305.072 581.736 353.861 432.784 373.509Z"
                  stroke="white" stroke-width="1.04348" stroke-miterlimit="10"/>
            <path d="M424.293 438.827C562.243 420.575 619.186 375.094 551.556 337.192" stroke="white"
                  stroke-width="1.04348" stroke-miterlimit="10"/>
            <path d="M400.336 476.692C511.719 462.036 557.767 425.47 503.122 394.985" stroke="white"
                  stroke-width="1.04348" stroke-miterlimit="10"/>
            <path d="M551.081 345.162C550.93 423.224 494.521 476.496 425.291 463.879" stroke="white"
                  stroke-width="1.04348" stroke-miterlimit="10"/>
            <path d="M600.002 306.303C599.852 383.872 532.63 445.532 450.252 443.772" stroke="white"
                  stroke-width="1.04348" stroke-miterlimit="10"/>
            <path d="M1 299.328C1 311.401 10.8336 323.695 31.7018 335.327C104.666 375.964 284.298 392.969 433.078 373.387C539.295 359.4 600.999 330.468 600.999 300.285C600.924 309.635 600.174 318.616 598.672 327.008C597.922 331.131 596.721 336.578 595.67 340.554C594.544 344.603 593.042 350.05 591.391 353.952C588.538 360.872 584.335 370.001 580.882 376.7C578.855 380.601 575.477 385.46 573.15 389.141C570.598 393.19 566.619 398.122 563.617 401.803C561.214 404.748 557.762 408.576 555.059 411.3C544.775 421.901 537.269 427.569 530.813 432.354C523.532 437.802 512.197 444.648 506.942 447.372C503.339 449.213 498.61 451.789 494.932 453.409C487.95 456.501 478.567 460.476 471.436 462.979C467.683 464.304 462.653 466.071 458.75 467.175C450.643 469.531 439.833 472.623 431.501 474.39C422.794 476.23 411.008 478.512 402.226 480.058C397.647 480.868 391.416 481.751 386.837 482.34C377.829 483.445 365.744 484.77 356.661 485.506C352.157 485.874 346.076 486.316 341.573 486.536C337.069 486.831 331.063 487.125 326.559 487.199C318.828 487.42 310.045 487.714 296.683 487.641C283.547 487.567 272.512 487.052 267.108 486.757C256.974 486.242 247.14 485.506 237.907 484.622C222.143 483.15 211.109 481.457 209.082 481.162C201.65 480.058 192.342 478.659 180.257 476.156C172.074 474.463 161.34 471.739 153.308 469.678C148.429 468.427 141.973 466.439 137.244 464.746C131.314 462.684 123.432 459.813 117.577 457.458C113.673 455.838 108.569 453.63 104.816 451.716C99.7863 449.213 93.0304 445.9 88.3013 442.955C81.3952 438.612 72.3874 432.575 65.8567 427.716C61.9533 424.772 56.9989 420.502 53.4708 417.115C50.6934 414.392 46.9401 410.784 44.3879 407.913C41.3853 404.601 37.4068 400.257 34.8546 396.65C30.4257 390.466 24.7958 382.074 20.9674 375.595C18.7905 371.988 16.4635 366.909 14.737 363.081C13.0856 359.326 10.9087 354.246 9.70761 350.271C7.53071 343.057 4.97848 333.266 3.4021 325.83C2.42625 321.929 1.90079 316.407 1.52546 312.211C1.2252 308.383 1.15013 303.156 1 299.328Z"
                  stroke="white" stroke-width="1.04348" stroke-miterlimit="10"/>
            <path d="M166.9 175.771C92.5934 185.562 32.0974 256.967 31.9473 334.849C104.903 375.483 284.514 392.488 433.277 372.907C433.427 295.024 403.93 215.154 367.527 194.837C293.146 204.628 203.303 196.089 166.9 175.771Z"
                  stroke="white" stroke-width="1.04348" stroke-miterlimit="10"/>
            <path d="M218.637 192.71C172.545 211.327 134.929 289.536 134.777 367.084" stroke="white"
                  stroke-width="1.04348" stroke-miterlimit="10"/>
            <path d="M367.389 195.432C403.782 215.699 433.273 295.373 433.123 373.064C581.774 353.531 643.231 304.772 570.293 264.237C570.443 186.546 510.187 131.252 435.974 141.019C472.443 161.286 441.677 185.665 367.389 195.432Z"
                  stroke="white" stroke-width="1.04348" stroke-miterlimit="10"/>
            <path d="M426.293 181.75C495.263 194.286 551.235 267.598 551.085 345.163" stroke="white"
                  stroke-width="1.04348" stroke-miterlimit="10"/>
            <path d="M177.703 302.316C38.8694 320.568 -18.4391 366.05 49.6241 403.951" stroke="white"
                  stroke-width="1.04348" stroke-miterlimit="10"/>
            <path d="M201.664 366.087C89.3964 380.743 42.9825 417.309 98.0613 447.794" stroke="white"
                  stroke-width="1.04348" stroke-miterlimit="10"/>
            <path d="M31.9475 335.199C31.7974 413.196 92.0795 468.708 166.325 458.903C202.809 479.25 292.67 487.801 366.99 477.923C403.4 498.27 433.128 451.309 433.278 373.312C284.562 392.922 104.917 375.893 31.9475 335.199Z"
                  stroke="white" stroke-width="1.04348" stroke-miterlimit="10"/>
            <path d="M49.918 403.951C117.938 441.608 285.547 457.433 424.294 439.264" stroke="white"
                  stroke-width="1.04348" stroke-miterlimit="10"/>
            <path d="M97.8379 447.795C152.83 478.461 288.242 491.319 400.333 476.54" stroke="white"
                  stroke-width="1.04348" stroke-miterlimit="10"/>
            <path d="M134.778 367.085C134.627 445.087 171.806 493.378 217.639 474.652" stroke="white"
                  stroke-width="1.04348" stroke-miterlimit="10"/>
            <path d="M432.784 373.509C432.633 451.365 402.858 498.24 366.391 477.93C440.904 468.143 471.657 443.712 435.115 423.402C509.478 413.614 570.081 342.308 570.231 264.452C643.316 305.072 581.736 353.861 432.784 373.509Z"
                  stroke="white" stroke-width="1.04348" stroke-miterlimit="10"/>
            <path d="M424.293 438.827C562.243 420.575 619.186 375.094 551.556 337.192" stroke="white"
                  stroke-width="1.04348" stroke-miterlimit="10"/>
            <path d="M400.336 476.692C511.719 462.036 557.767 425.47 503.122 394.985" stroke="white"
                  stroke-width="1.04348" stroke-miterlimit="10"/>
            <path d="M551.081 345.162C550.93 423.224 494.521 476.496 425.291 463.879" stroke="white"
                  stroke-width="1.04348" stroke-miterlimit="10"/>
            <path d="M600.002 306.303C599.852 383.872 532.63 445.532 450.252 443.772" stroke="white"
                  stroke-width="1.04348" stroke-miterlimit="10"/>
            <path d="M235.001 404.063C271.527 424.435 301.35 377.418 301.501 299.328C301.35 377.418 240.649 448.939 166.167 458.756C129.566 438.385 160.368 413.88 235.001 404.063Z"
                  stroke="white" stroke-width="1.04348" stroke-miterlimit="10"/>
            <path d="M165.725 458.551C239.97 448.747 300.477 377.318 300.628 299.328C300.477 377.318 329.98 457.298 366.39 477.643C292.069 487.374 202.209 478.897 165.725 458.551Z"
                  stroke="white" stroke-width="1.04348" stroke-miterlimit="10"/>
            <path d="M217.641 474.699C263.185 455.983 300.353 377.361 300.502 299.328" stroke="white"
                  stroke-width="1.04348" stroke-miterlimit="10"/>
            <path d="M366.833 477.688C330.661 457.338 301.351 377.338 301.501 299.328C301.351 377.338 361.239 432.858 434.999 423.052C471.245 443.402 440.667 467.881 366.833 477.688Z"
                  stroke="white" stroke-width="1.04348" stroke-miterlimit="10"/>
            <path d="M425.294 463.738C356.876 451.125 301.351 377.366 301.5 299.328" stroke="white"
                  stroke-width="1.04348" stroke-miterlimit="10"/>
            <path d="M450.252 443.81C368.061 442.043 301.351 377.199 301.5 299.328" stroke="white"
                  stroke-width="1.04348" stroke-miterlimit="10"/>
            <path d="M313 116.631C318.289 98.5967 322.521 134.843 322.388 197.401" stroke="white" stroke-width="1.04348"
                  stroke-miterlimit="10"/>
            <path d="M151.75 154.883C69.3389 153.111 2.14998 215.185 2 293.349" stroke="white" stroke-width="1.04348"
                  stroke-miterlimit="10"/>
            <path d="M552.081 338.189C484.06 299.657 316.452 283.464 177.705 302.056" stroke="white"
                  stroke-width="1.04348" stroke-miterlimit="10"/>
            <path d="M503.161 394.985C448.35 364.319 313.385 351.461 201.664 366.24" stroke="white"
                  stroke-width="1.04348" stroke-miterlimit="10"/>
            <path d="M177.703 302.316C38.8694 320.568 -18.4391 366.05 49.6241 403.951" stroke="white"
                  stroke-width="1.04348" stroke-miterlimit="10"/>
            <path d="M201.664 366.087C89.3964 380.743 42.9825 417.309 98.0613 447.794" stroke="white"
                  stroke-width="1.04348" stroke-miterlimit="10"/>
            <path d="M435.275 422.761C361.029 432.544 300.747 377.154 300.897 299.328C300.747 377.154 271.019 424.011 234.609 403.709C308.93 393.999 398.79 402.458 435.275 422.761Z"
                  stroke="white" stroke-width="1.04348" stroke-miterlimit="10"/>
            <path d="M383.363 406.891C338.082 425.617 301.352 377.402 301.5 299.328" stroke="white"
                  stroke-width="1.04348" stroke-miterlimit="10"/>
            <path d="M235.001 404.063C271.527 424.435 301.35 377.418 301.501 299.328C301.35 377.418 240.649 448.939 166.167 458.756C129.566 438.385 160.368 413.88 235.001 404.063Z"
                  stroke="white" stroke-width="1.04348" stroke-miterlimit="10"/>
            <path d="M175.709 418.046C244.389 430.663 300.351 377.391 300.501 299.328" stroke="white"
                  stroke-width="1.04348" stroke-miterlimit="10"/>
            <path d="M367.389 195.432C403.782 215.699 433.273 295.373 433.123 373.064C581.774 353.531 643.231 304.772 570.293 264.237C570.443 186.546 510.187 131.252 435.974 141.019C472.443 161.286 441.677 185.665 367.389 195.432Z"
                  stroke="white" stroke-width="1.04348" stroke-miterlimit="10"/>
            <path d="M432.784 373.509C432.633 451.365 402.858 498.24 366.391 477.93C440.904 468.143 471.657 443.712 435.115 423.402C509.478 413.614 570.081 342.308 570.231 264.452C643.316 305.072 581.736 353.861 432.784 373.509Z"
                  stroke="white" stroke-width="1.04348" stroke-miterlimit="10"/>
            <path d="M424.293 438.827C562.243 420.575 619.186 375.094 551.556 337.192" stroke="white"
                  stroke-width="1.04348" stroke-miterlimit="10"/>
            <path d="M400.336 476.692C511.719 462.036 557.767 425.47 503.122 394.985" stroke="white"
                  stroke-width="1.04348" stroke-miterlimit="10"/>
            <path d="M366.833 477.688C330.661 457.338 301.351 377.338 301.501 299.328C301.351 377.338 361.239 432.858 434.999 423.052C471.245 443.402 440.667 467.881 366.833 477.688Z"
                  stroke="white" stroke-width="1.04348" stroke-miterlimit="10"/>
            <path d="M31.9475 335.199C31.7974 413.196 92.0795 468.708 166.325 458.903C202.809 479.25 292.67 487.801 366.99 477.923C403.4 498.27 433.128 451.309 433.278 373.312C284.562 392.922 104.917 375.893 31.9475 335.199Z"
                  stroke="white" stroke-width="1.04348" stroke-miterlimit="10"/>
            <path d="M134.778 367.085C134.627 445.087 171.806 493.378 217.639 474.652" stroke="white"
                  stroke-width="1.04348" stroke-miterlimit="10"/>
            <path d="M432.784 373.509C432.633 451.365 402.858 498.24 366.391 477.93C440.904 468.143 471.657 443.712 435.115 423.402C509.478 413.614 570.081 342.308 570.231 264.452C643.316 305.072 581.736 353.861 432.784 373.509Z"
                  stroke="white" stroke-width="1.04348" stroke-miterlimit="10"/>
            <path d="M551.081 345.162C550.93 423.224 494.521 476.496 425.291 463.879" stroke="white"
                  stroke-width="1.04348" stroke-miterlimit="10"/>
            <path d="M600.002 306.303C599.852 383.872 532.63 445.532 450.252 443.772" stroke="white"
                  stroke-width="1.04348" stroke-miterlimit="10"/>
            <path d="M435.275 422.761C361.029 432.544 300.747 377.154 300.897 299.328C300.747 377.154 271.019 424.011 234.609 403.709C308.93 393.999 398.79 402.458 435.275 422.761Z"
                  stroke="white" stroke-width="1.04348" stroke-miterlimit="10"/>
            <path d="M367.39 412.919C349.413 402.382 305.18 397.998 268.555 403.074" stroke="white"
                  stroke-width="1.04348" stroke-miterlimit="10"/>
            <path d="M319.469 368.081C314.428 365.44 301.903 364.328 291.516 365.648" stroke="white"
                  stroke-width="1.04348" stroke-miterlimit="10"/>
            <path d="M383.363 406.891C338.082 425.617 301.352 377.402 301.5 299.328" stroke="white"
                  stroke-width="1.04348" stroke-miterlimit="10"/>
            <path d="M235.001 404.063C271.527 424.435 301.35 377.418 301.501 299.328C301.35 377.418 240.649 448.939 166.167 458.756C129.566 438.385 160.368 413.88 235.001 404.063Z"
                  stroke="white" stroke-width="1.04348" stroke-miterlimit="10"/>
            <path d="M268.551 402.956C231.421 407.794 216.07 419.816 234.295 429.859" stroke="white"
                  stroke-width="1.04348" stroke-miterlimit="10"/>
            <path d="M291.515 366.087C281.806 367.33 277.779 370.507 282.525 373.062" stroke="white"
                  stroke-width="1.04348" stroke-miterlimit="10"/>
            <path d="M175.709 418.046C244.389 430.663 300.351 377.391 300.501 299.328" stroke="white"
                  stroke-width="1.04348" stroke-miterlimit="10"/>
            <path d="M165.725 458.551C239.97 448.747 300.477 377.318 300.628 299.328C300.477 377.318 329.98 457.298 366.39 477.643C292.069 487.374 202.209 478.897 165.725 458.551Z"
                  stroke="white" stroke-width="1.04348" stroke-miterlimit="10"/>
            <path d="M233.609 429.859C251.768 440.397 296.448 444.781 333.443 439.705" stroke="white"
                  stroke-width="1.04348" stroke-miterlimit="10"/>
            <path d="M282.531 373.062C287.392 375.703 299.47 376.814 309.486 375.494" stroke="white"
                  stroke-width="1.04348" stroke-miterlimit="10"/>
            <path d="M217.641 474.699C263.185 455.983 300.353 377.361 300.502 299.328" stroke="white"
                  stroke-width="1.04348" stroke-miterlimit="10"/>
            <path d="M366.833 477.688C330.661 457.338 301.351 377.338 301.501 299.328C301.351 377.338 361.239 432.858 434.999 423.052C471.245 443.402 440.667 467.881 366.833 477.688Z"
                  stroke="white" stroke-width="1.04348" stroke-miterlimit="10"/>
            <path d="M333.445 439.824C370.575 434.986 385.926 422.963 367.702 412.92" stroke="white"
                  stroke-width="1.04348" stroke-miterlimit="10"/>
            <path d="M309.484 376.052C320.076 374.631 324.469 371.001 319.291 368.081" stroke="white"
                  stroke-width="1.04348" stroke-miterlimit="10"/>
            <path d="M425.294 463.738C356.876 451.125 301.351 377.366 301.5 299.328" stroke="white"
                  stroke-width="1.04348" stroke-miterlimit="10"/>
            <path d="M450.252 443.81C368.061 442.043 301.351 377.199 301.5 299.328" stroke="white"
                  stroke-width="1.04348" stroke-miterlimit="10"/>
            <path d="M301.372 299.329C301.522 221.767 362.029 150.73 436.275 140.98C399.79 120.746 309.93 112.242 235.609 122.066C272.019 142.226 301.522 221.767 301.372 299.329Z"
                  stroke="white" stroke-width="1.04348" stroke-miterlimit="10"/>
            <path d="M301.5 299.328C301.65 221.812 338.818 143.564 384.362 124.954" stroke="white"
                  stroke-width="1.04348" stroke-miterlimit="10"/>
            <path d="M301.5 299.329C301.647 221.712 306.585 140.355 312.482 117.979" stroke="white"
                  stroke-width="1.04348" stroke-miterlimit="10"/>
            <path d="M301.498 299.327C301.648 221.754 272.144 142.2 235.733 121.964C161.334 131.716 130.629 156.058 167.115 176.295C241.363 166.543 301.648 221.754 301.498 299.327Z"
                  stroke="white" stroke-width="1.04348" stroke-miterlimit="10"/>
            <path d="M301.499 299.327C301.649 221.728 245.602 148.382 176.707 135.914" stroke="white"
                  stroke-width="1.04348" stroke-miterlimit="10"/>
            <path d="M301.498 299.327C301.649 221.456 234.491 156.612 151.748 154.846" stroke="white"
                  stroke-width="1.04348" stroke-miterlimit="10"/>
            <path d="M301.1 299.327C301.25 221.501 240.968 166.111 166.723 175.895C203.207 196.197 293.067 204.73 367.388 194.873C330.978 174.644 301.25 221.501 301.1 299.327Z"
                  stroke="white" stroke-width="1.04348" stroke-miterlimit="10"/>
            <path d="M301.496 299.328C301.647 222.022 264.468 174.163 218.635 192.722" stroke="white"
                  stroke-width="1.04348" stroke-miterlimit="10"/>
            <path d="M301.5 299.326C301.65 221.724 331.275 175.002 367.559 195.246C441.698 185.491 472.296 161.139 435.937 140.895C361.948 150.65 301.65 221.724 301.5 299.326Z"
                  stroke="white" stroke-width="1.04348" stroke-miterlimit="10"/>
            <path d="M301.5 299.327C301.65 221.909 357.611 169.078 426.292 181.59" stroke="white" stroke-width="1.04348"
                  stroke-miterlimit="10"/>
            <path d="M361.436 409.658C362.336 410.174 363.535 410.837 364.509 411.28C365.633 411.796 367.132 412.459 368.257 412.975C365.708 412.238 363.685 411.722 363.685 411.722C362.486 411.427 360.837 411.059 359.637 410.837C358.064 410.543 356.04 410.174 354.466 409.879C351.843 409.363 345.472 408.479 341.949 408.111C339.851 407.889 337.003 407.521 334.829 407.374C332.581 407.152 329.508 406.931 327.259 406.71C324.936 406.489 321.788 406.342 319.389 406.194C316.392 406.047 307.772 405.752 302.826 405.752C300.052 405.752 291.508 405.752 286.037 405.973C283.564 406.121 280.266 406.194 277.792 406.342C275.394 406.489 272.096 406.71 269.698 406.931C267.449 407.152 264.376 407.447 262.128 407.668C259.73 407.889 251.935 408.774 244.665 410.1C242.566 410.469 239.793 410.985 237.769 411.427C237.095 411.574 236.12 411.796 235.446 412.017C234.696 412.238 233.722 412.533 233.047 412.754C234.846 411.943 237.17 410.837 238.894 409.953C240.243 409.216 242.041 408.258 243.316 407.374C245.039 406.268 247.363 404.794 249.012 403.541C251.635 401.551 255.233 398.898 257.631 396.687C259.58 394.918 262.128 392.56 263.927 390.643C266.25 388.211 269.323 384.821 271.497 382.168C275.169 377.672 279.591 371.26 282.589 366.248C284.388 363.227 286.711 359.099 288.135 355.783C289.485 352.614 291.433 348.413 292.632 345.17C293.757 342.222 295.031 338.168 295.855 335.147C296.68 332.051 297.654 327.924 298.329 324.755C298.404 324.386 299.228 320.038 299.678 316.648C300.577 310.236 300.727 305.74 300.802 299.328C300.877 302.645 301.027 307.067 301.252 310.383C301.327 312.005 301.626 314.216 301.776 315.837C302.301 320.185 303.425 326.229 304.25 329.693C305.749 335.81 308.447 343.843 310.62 349.739C311.745 352.909 313.693 357.036 315.342 359.984C316.991 362.932 319.015 366.985 320.963 369.86C322.612 372.292 324.711 375.535 326.435 377.893C328.458 380.546 331.157 384.084 333.48 386.59C335.279 388.506 337.602 391.086 339.551 392.928C341.874 395.213 345.172 398.087 347.646 400.151C349.219 401.477 351.393 403.173 353.117 404.352C355.515 406.047 358.888 408.184 361.436 409.658ZM361.436 409.658C382.572 421.45 407.83 426.609 434.962 422.998C445.38 428.82 450.327 434.938 450.252 441.055C450.252 456.163 419.447 470.609 366.383 477.61C292.108 487.413 202.468 478.863 166.043 458.596C155.625 452.773 150.678 446.656 150.753 440.539C150.753 425.43 181.557 410.985 234.621 403.983C308.897 394.181 398.536 402.73 434.962 422.998C407.83 426.609 382.572 421.45 361.436 409.658Z"
                  stroke="white" stroke-width="1.04348" stroke-miterlimit="10"/>
            <path d="M435.275 422.761C361.029 432.544 300.747 377.154 300.897 299.328C300.747 377.154 271.019 424.011 234.609 403.709C308.93 393.999 398.79 402.458 435.275 422.761Z"
                  stroke="white" stroke-width="1.04348" stroke-miterlimit="10"/>
            <path d="M367.39 412.919C349.413 402.382 305.18 397.998 268.555 403.074" stroke="white"
                  stroke-width="1.04348" stroke-miterlimit="10"/>
            <path d="M319.469 368.081C314.428 365.44 301.903 364.328 291.516 365.648" stroke="white"
                  stroke-width="1.04348" stroke-miterlimit="10"/>
            <path d="M383.363 406.891C338.082 425.617 301.352 377.402 301.5 299.328" stroke="white"
                  stroke-width="1.04348" stroke-miterlimit="10"/>
            <path d="M235.001 404.063C271.527 424.435 301.35 377.418 301.501 299.328C301.35 377.418 240.649 448.939 166.167 458.756C129.566 438.385 160.368 413.88 235.001 404.063Z"
                  stroke="white" stroke-width="1.04348" stroke-miterlimit="10"/>
            <path d="M268.551 402.956C231.421 407.794 216.07 419.816 234.295 429.859" stroke="white"
                  stroke-width="1.04348" stroke-miterlimit="10"/>
            <path d="M291.515 366.087C281.806 367.33 277.779 370.507 282.525 373.062" stroke="white"
                  stroke-width="1.04348" stroke-miterlimit="10"/>
            <path d="M175.709 418.046C244.389 430.663 300.351 377.391 300.501 299.328" stroke="white"
                  stroke-width="1.04348" stroke-miterlimit="10"/>
            <path d="M301.372 299.329C301.522 221.767 362.029 150.73 436.275 140.98C399.79 120.746 309.93 112.242 235.609 122.066C272.019 142.226 301.522 221.767 301.372 299.329Z"
                  stroke="white" stroke-width="1.04348" stroke-miterlimit="10"/>
            <path d="M301.5 299.328C301.65 221.812 338.818 143.564 384.362 124.954" stroke="white"
                  stroke-width="1.04348" stroke-miterlimit="10"/>
            <path d="M301.5 299.329C301.647 221.712 306.585 140.355 312.482 117.979" stroke="white"
                  stroke-width="1.04348" stroke-miterlimit="10"/>
            <path d="M301.498 299.327C301.648 221.754 272.144 142.2 235.733 121.964C161.334 131.716 130.629 156.058 167.115 176.295C241.363 166.543 301.648 221.754 301.498 299.327Z"
                  stroke="white" stroke-width="1.04348" stroke-miterlimit="10"/>
            <path d="M301.499 299.327C301.649 221.728 245.602 148.382 176.707 135.914" stroke="white"
                  stroke-width="1.04348" stroke-miterlimit="10"/>
            <path d="M301.498 299.327C301.649 221.456 234.491 156.612 151.748 154.846" stroke="white"
                  stroke-width="1.04348" stroke-miterlimit="10"/>
            <path d="M254.503 408.353C251.042 408.795 245.401 409.679 241.715 410.342C239.91 410.71 237.578 411.152 235.773 411.594C234.795 411.815 233.591 412.184 232.613 412.552C234.494 411.815 236.149 411.079 239.233 409.384C241.264 408.279 243.896 406.659 245.777 405.407C247.582 404.228 249.839 402.607 251.569 401.281C253.826 399.513 256.91 397.009 259.016 395.02C262.702 391.557 266.839 387.653 272.255 380.876C275.94 376.309 280.228 369.752 283.237 364.743C284.967 361.797 286.998 357.671 288.502 354.577C289.781 351.778 291.286 347.947 292.489 345.074C293.843 341.833 295.122 337.413 296.024 334.025C296.852 330.931 297.754 326.732 298.431 323.638C298.431 323.638 298.808 321.796 299.259 318.702C299.409 317.671 299.635 316.271 299.785 315.24C300.613 308.831 300.688 302.864 300.688 299.328C300.613 348.758 324.834 389.126 361.542 409.605C362.896 410.342 364.626 411.226 366.055 411.889C366.732 412.257 367.71 412.552 368.387 412.92C368.236 412.92 368.086 412.847 367.936 412.773C365.98 412.184 363.497 411.594 363.497 411.594C362.294 411.3 360.714 411.005 359.511 410.71C357.931 410.416 355.9 410.047 354.321 409.753C351.763 409.237 347.551 408.648 341.909 407.985C341.608 407.985 335.365 407.175 327.241 406.585C324.909 406.438 321.675 406.217 319.343 406.07C316.861 405.922 313.626 405.849 311.144 405.775C304.299 405.48 291.586 405.628 285.945 405.849C281.055 406.07 274.511 406.364 269.622 406.806C262.326 407.322 257.21 407.985 254.503 408.353Z"
                  stroke="white" stroke-width="1.04348" stroke-miterlimit="10"/>
            <path d="M366.833 477.688C330.661 457.338 301.351 377.338 301.501 299.328C301.351 377.338 361.239 432.858 434.999 423.052C471.245 443.402 440.667 467.881 366.833 477.688Z"
                  stroke="white" stroke-width="1.04348" stroke-miterlimit="10"/>
            <path d="M309.484 376.052C320.076 374.631 324.469 371.001 319.291 368.081" stroke="white"
                  stroke-width="1.04348" stroke-miterlimit="10"/>
            <path d="M301.5 299.326C301.65 221.724 331.275 175.002 367.559 195.246C441.698 185.491 472.296 161.139 435.937 140.895C361.948 150.65 301.65 221.724 301.5 299.326Z"
                  stroke="white" stroke-width="1.04348" stroke-miterlimit="10"/>
            <path d="M361.4 409.931C325.268 389.466 301.353 348.904 301.501 299.328C301.501 301.988 301.649 305.534 301.723 308.194C301.797 309.82 301.945 312.036 302.167 313.661C302.537 316.912 303.204 321.271 303.722 324.448C304.018 326.369 304.61 328.955 305.055 330.876C306.536 337.009 309.349 344.988 311.496 350.899C312.681 354.149 314.68 358.287 316.309 361.316C317.716 363.976 319.641 367.522 321.27 370.108C323.047 372.99 325.712 376.684 327.637 379.491C329.71 382.447 332.82 386.067 335.264 388.727C338.743 392.495 343.63 397.297 347.628 400.474C350.072 402.469 353.478 404.981 356.069 406.754C357.698 407.715 359.845 408.971 361.4 409.931Z"
                  stroke="white" stroke-width="1.04348" stroke-miterlimit="10"/>
            <path d="M435.275 422.761C361.029 432.544 300.747 377.154 300.897 299.328C300.747 377.154 271.019 424.011 234.609 403.709C308.93 393.999 398.79 402.458 435.275 422.761Z"
                  stroke="white" stroke-width="1.04348" stroke-miterlimit="10"/>
            <path d="M235.001 404.063C271.527 424.435 301.35 377.418 301.501 299.328C301.35 377.418 240.649 448.939 166.167 458.756C129.566 438.385 160.368 413.88 235.001 404.063Z"
                  stroke="white" stroke-width="1.04348" stroke-miterlimit="10"/>
            <path d="M175.709 418.046C244.389 430.663 300.351 377.391 300.501 299.328" stroke="white"
                  stroke-width="1.04348" stroke-miterlimit="10"/>
            <path d="M165.725 458.551C239.97 448.747 300.477 377.318 300.628 299.328C300.477 377.318 329.98 457.298 366.39 477.643C292.069 487.374 202.209 478.897 165.725 458.551Z"
                  stroke="white" stroke-width="1.04348" stroke-miterlimit="10"/>
            <path d="M217.641 474.699C263.185 455.983 300.353 377.361 300.502 299.328" stroke="white"
                  stroke-width="1.04348" stroke-miterlimit="10"/>
            <path d="M366.833 477.688C330.661 457.338 301.351 377.338 301.501 299.328C301.351 377.338 361.239 432.858 434.999 423.052C471.245 443.402 440.667 467.881 366.833 477.688Z"
                  stroke="white" stroke-width="1.04348" stroke-miterlimit="10"/>
            <path d="M425.294 463.738C356.876 451.125 301.351 377.366 301.5 299.328" stroke="white"
                  stroke-width="1.04348" stroke-miterlimit="10"/>
            <path d="M450.252 443.81C368.061 442.043 301.351 377.199 301.5 299.328" stroke="white"
                  stroke-width="1.04348" stroke-miterlimit="10"/>
            <path d="M301.372 299.329C301.522 221.767 362.029 150.73 436.275 140.98C399.79 120.746 309.93 112.242 235.609 122.066C272.019 142.226 301.522 221.767 301.372 299.329Z"
                  stroke="white" stroke-width="1.04348" stroke-miterlimit="10"/>
            <path d="M319.471 225.592C314.61 222.951 302.532 221.839 292.516 223.16" stroke="white"
                  stroke-width="1.04348" stroke-miterlimit="10"/>
            <path d="M368.388 168.797C350.23 159.137 305.55 155.118 268.555 159.772" stroke="white"
                  stroke-width="1.04348" stroke-miterlimit="10"/>
            <path d="M301.498 299.327C301.648 221.754 272.144 142.2 235.733 121.964C161.334 131.716 130.629 156.058 167.115 176.295C241.363 166.543 301.648 221.754 301.498 299.327Z"
                  stroke="white" stroke-width="1.04348" stroke-miterlimit="10"/>
            <path d="M292.513 223.599C281.922 224.842 277.528 228.018 282.706 230.574" stroke="white"
                  stroke-width="1.04348" stroke-miterlimit="10"/>
            <path d="M268.551 159.828C231.421 164.666 216.07 176.689 234.295 186.732" stroke="white"
                  stroke-width="1.04348" stroke-miterlimit="10"/>
            <path d="M301.499 299.327C301.649 221.728 245.602 148.382 176.707 135.914" stroke="white"
                  stroke-width="1.04348" stroke-miterlimit="10"/>
            <path d="M301.498 299.327C301.649 221.456 234.491 156.612 151.748 154.846" stroke="white"
                  stroke-width="1.04348" stroke-miterlimit="10"/>
            <path d="M301.1 299.327C301.25 221.501 240.968 166.111 166.723 175.895C203.207 196.197 293.067 204.73 367.388 194.873C330.978 174.644 301.25 221.501 301.1 299.327Z"
                  stroke="white" stroke-width="1.04348" stroke-miterlimit="10"/>
            <path d="M282.531 230.575C287.572 233.216 300.098 234.328 310.485 233.007" stroke="white"
                  stroke-width="1.04348" stroke-miterlimit="10"/>
            <path d="M234.609 186.73C252.768 196.389 297.448 200.408 334.443 195.755" stroke="white"
                  stroke-width="1.04348" stroke-miterlimit="10"/>
            <path d="M301.496 299.328C301.647 222.022 264.468 174.163 218.635 192.722" stroke="white"
                  stroke-width="1.04348" stroke-miterlimit="10"/>
            <path d="M301.5 299.326C301.65 221.724 331.275 175.002 367.559 195.246C441.698 185.491 472.296 161.139 435.937 140.895C361.948 150.65 301.65 221.724 301.5 299.326Z"
                  stroke="white" stroke-width="1.04348" stroke-miterlimit="10"/>
            <path d="M310.484 233.563C320.193 232.143 324.221 228.512 319.474 225.592" stroke="white"
                  stroke-width="1.04348" stroke-miterlimit="10"/>
            <path d="M334.443 195.699C370.689 190.861 385.675 178.838 367.884 168.795" stroke="white"
                  stroke-width="1.04348" stroke-miterlimit="10"/>
            <path d="M301.5 299.327C301.65 221.909 357.611 169.078 426.292 181.59" stroke="white" stroke-width="1.04348"
                  stroke-miterlimit="10"/>
            <path d="M435.275 422.761C361.029 432.544 300.747 377.154 300.897 299.328C300.747 377.154 271.019 424.011 234.609 403.709C308.93 393.999 398.79 402.458 435.275 422.761Z"
                  stroke="white" stroke-width="1.04348" stroke-miterlimit="10"/>
            <path d="M383.363 406.891C338.082 425.617 301.352 377.402 301.5 299.328" stroke="white"
                  stroke-width="1.04348" stroke-miterlimit="10"/>
            <path d="M235.001 404.063C271.527 424.435 301.35 377.418 301.501 299.328C301.35 377.418 240.649 448.939 166.167 458.756C129.566 438.385 160.368 413.88 235.001 404.063Z"
                  stroke="white" stroke-width="1.04348" stroke-miterlimit="10"/>
            <path d="M175.709 418.046C244.389 430.663 300.351 377.391 300.501 299.328" stroke="white"
                  stroke-width="1.04348" stroke-miterlimit="10"/>
            <path d="M165.725 458.551C239.97 448.747 300.477 377.318 300.628 299.328C300.477 377.318 329.98 457.298 366.39 477.643C292.069 487.374 202.209 478.897 165.725 458.551Z"
                  stroke="white" stroke-width="1.04348" stroke-miterlimit="10"/>
            <path d="M217.641 474.699C263.185 455.983 300.353 377.361 300.502 299.328" stroke="white"
                  stroke-width="1.04348" stroke-miterlimit="10"/>
            <path d="M366.833 477.688C330.661 457.338 301.351 377.338 301.501 299.328C301.351 377.338 361.239 432.858 434.999 423.052C471.245 443.402 440.667 467.881 366.833 477.688Z"
                  stroke="white" stroke-width="1.04348" stroke-miterlimit="10"/>
            <path d="M425.294 463.738C356.876 451.125 301.351 377.366 301.5 299.328" stroke="white"
                  stroke-width="1.04348" stroke-miterlimit="10"/>
            <path d="M450.252 443.81C368.061 442.043 301.351 377.199 301.5 299.328" stroke="white"
                  stroke-width="1.04348" stroke-miterlimit="10"/>
            <path d="M301.372 299.329C301.522 221.767 362.029 150.73 436.275 140.98C399.79 120.746 309.93 112.242 235.609 122.066C272.019 142.226 301.522 221.767 301.372 299.329Z"
                  stroke="white" stroke-width="1.04348" stroke-miterlimit="10"/>
            <path d="M319.471 225.592C314.61 222.951 302.532 221.839 292.516 223.16" stroke="white"
                  stroke-width="1.04348" stroke-miterlimit="10"/>
            <path d="M368.388 168.797C350.23 159.137 305.55 155.118 268.555 159.772" stroke="white"
                  stroke-width="1.04348" stroke-miterlimit="10"/>
            <path d="M301.5 299.328C301.65 221.812 338.818 143.564 384.362 124.954" stroke="white"
                  stroke-width="1.04348" stroke-miterlimit="10"/>
            <path d="M301.5 299.329C301.647 221.712 306.585 140.355 312.482 117.979" stroke="white"
                  stroke-width="1.04348" stroke-miterlimit="10"/>
            <path d="M301.498 299.327C301.648 221.754 272.144 142.2 235.733 121.964C161.334 131.716 130.629 156.058 167.115 176.295C241.363 166.543 301.648 221.754 301.498 299.327Z"
                  stroke="white" stroke-width="1.04348" stroke-miterlimit="10"/>
            <path d="M292.513 223.599C281.922 224.842 277.528 228.018 282.706 230.574" stroke="white"
                  stroke-width="1.04348" stroke-miterlimit="10"/>
            <path d="M268.551 159.828C231.421 164.666 216.07 176.689 234.295 186.732" stroke="white"
                  stroke-width="1.04348" stroke-miterlimit="10"/>
            <path d="M301.499 299.327C301.649 221.728 245.602 148.382 176.707 135.914" stroke="white"
                  stroke-width="1.04348" stroke-miterlimit="10"/>
            <path d="M301.498 299.327C301.649 221.456 234.491 156.612 151.748 154.846" stroke="white"
                  stroke-width="1.04348" stroke-miterlimit="10"/>
            <path d="M301.1 299.327C301.25 221.501 240.968 166.111 166.723 175.895C203.207 196.197 293.067 204.73 367.388 194.873C330.978 174.644 301.25 221.501 301.1 299.327Z"
                  stroke="white" stroke-width="1.04348" stroke-miterlimit="10"/>
            <path d="M282.531 230.575C287.572 233.216 300.098 234.328 310.485 233.007" stroke="white"
                  stroke-width="1.04348" stroke-miterlimit="10"/>
            <path d="M234.609 186.73C252.768 196.389 297.448 200.408 334.443 195.755" stroke="white"
                  stroke-width="1.04348" stroke-miterlimit="10"/>
            <path d="M301.496 299.328C301.647 222.022 264.468 174.163 218.635 192.722" stroke="white"
                  stroke-width="1.04348" stroke-miterlimit="10"/>
            <path d="M301.5 299.326C301.65 221.724 331.275 175.002 367.559 195.246C441.698 185.491 472.296 161.139 435.937 140.895C361.948 150.65 301.65 221.724 301.5 299.326Z"
                  stroke="white" stroke-width="1.04348" stroke-miterlimit="10"/>
            <path d="M310.484 233.563C320.193 232.143 324.221 228.512 319.474 225.592" stroke="white"
                  stroke-width="1.04348" stroke-miterlimit="10"/>
            <path d="M334.443 195.699C370.689 190.861 385.675 178.838 367.884 168.795" stroke="white"
                  stroke-width="1.04348" stroke-miterlimit="10"/>
            <path d="M301.5 299.327C301.65 221.909 357.611 169.078 426.292 181.59" stroke="white" stroke-width="1.04348"
                  stroke-miterlimit="10"/>
            <path d="M435.275 421.774C361.555 431.468 301.723 376.611 301.873 299.504C301.573 299.357 300.897 299.283 300.372 299.357C300.222 376.464 270.719 422.876 234.609 402.828C308.93 392.988 398.79 401.506 435.275 421.774Z"
                  stroke="white" stroke-width="1.04348" stroke-miterlimit="10"/>
            <path d="M368.387 411.924C350.033 401.405 304.942 396.984 267.555 402.091" stroke="white"
                  stroke-width="1.04348" stroke-miterlimit="10"/>
            <path d="M320.467 368.08C315.176 364.535 302.25 363.117 291.516 364.801" stroke="white"
                  stroke-width="1.04348" stroke-miterlimit="10"/>
            <path d="M383.363 405.933C338.05 424.485 301.351 376.705 301.5 299.328" stroke="white"
                  stroke-width="1.04348" stroke-miterlimit="10"/>
            <path d="M234.749 403.156C270.853 423.273 300.352 376.775 300.502 299.328C299.977 299.402 299.677 299.549 299.977 299.77C299.827 377.144 239.778 448.033 166.068 457.759C129.664 437.421 160.364 413.03 234.749 403.156Z"
                  stroke="white" stroke-width="1.04348" stroke-miterlimit="10"/>
            <path d="M267.555 401.959C230.414 407.011 215.107 419.453 233.265 429.859" stroke="white"
                  stroke-width="1.04348" stroke-miterlimit="10"/>
            <path d="M291.515 365.091C280.915 366.52 276.51 370.13 281.736 373.063" stroke="white"
                  stroke-width="1.04348" stroke-miterlimit="10"/>
            <path d="M175.709 417.077C244.36 429.538 300.35 376.746 300.501 299.328" stroke="white"
                  stroke-width="1.04348" stroke-miterlimit="10"/>
            <path d="M302.348 299.328C302.498 222.294 362.555 151.717 436.275 142.032C399.79 121.71 309.93 113.273 235.609 123.031C271.719 143.06 300.996 222.074 300.846 299.181C301.447 299.108 302.122 299.108 302.348 299.328Z"
                  stroke="white" stroke-width="1.04348" stroke-miterlimit="10"/>
            <path d="M301.5 299.327C301.651 222.254 338.788 144.447 384.362 125.95" stroke="white"
                  stroke-width="1.04348" stroke-miterlimit="10"/>
            <path d="M301.5 299.328C301.648 222.16 306.546 141.244 312.482 118.975" stroke="white"
                  stroke-width="1.04348" stroke-miterlimit="10"/>
            <path d="M300.499 298.961C300.649 221.993 271.463 143.046 235.467 122.961C161.304 132.71 130.696 157.047 167.066 177.278C240.555 167.602 300.2 222.36 300.05 299.328C299.751 299.181 299.975 299.035 300.499 298.961Z"
                  stroke="white" stroke-width="1.04348" stroke-miterlimit="10"/>
            <path d="M300.5 299.326C300.65 222.23 245.097 149.318 176.707 136.909" stroke="white" stroke-width="1.04348"
                  stroke-miterlimit="10"/>
            <path d="M299.501 299.327C299.651 222.524 233.334 158.594 151.748 156.838" stroke="white"
                  stroke-width="1.04348" stroke-miterlimit="10"/>
            <path d="M362.195 408.931C363.096 409.374 364.296 410.113 365.196 410.557C366.247 411.074 367.748 411.739 368.873 412.183C366.547 411.444 364.146 410.926 364.146 410.926C362.946 410.631 361.295 410.261 360.019 410.039C358.444 409.744 356.418 409.374 354.842 409.079C352.816 408.709 346.513 407.748 342.311 407.231C340.135 407.009 337.284 406.64 335.183 406.492C332.932 406.27 329.856 406.049 327.53 405.827C325.129 405.605 321.977 405.457 319.651 405.309C316.65 405.162 308.021 404.866 303.069 404.792C300.293 404.792 291.739 404.792 286.187 405.014C283.711 405.162 280.409 405.236 277.933 405.383C275.532 405.531 272.23 405.753 269.829 405.975C267.503 406.196 264.427 406.492 262.176 406.714C258.65 407.083 251.071 407.97 244.618 409.153C242.517 409.522 239.741 410.039 237.64 410.557C236.89 410.705 235.99 410.926 235.239 411.148C234.489 411.37 233.513 411.665 232.763 411.887C234.489 411.148 236.815 410.039 238.541 409.153C239.891 408.487 241.617 407.453 242.893 406.64C244.618 405.531 246.944 404.053 248.52 402.871C251.146 400.875 254.673 398.288 256.999 396.071C258.875 394.297 261.501 392.006 263.302 390.085C265.628 387.646 268.629 384.32 270.805 381.66C274.482 377.151 278.833 370.795 281.835 365.844C283.636 362.813 285.962 358.675 287.312 355.497C288.663 352.319 290.539 348.106 291.739 344.928C292.865 341.972 294.14 337.981 294.966 334.951C295.866 331.551 296.991 327.043 297.592 323.569C298.192 320.391 298.717 316.105 299.167 312.853C299.693 308.862 299.843 303.393 299.843 299.328C299.693 376.93 232.838 439.971 150.752 439.824C150.752 424.673 181.591 410.187 234.714 403.166C309.072 393.337 398.811 401.91 435.277 422.234C408.265 425.781 383.129 420.682 362.195 408.931Z"
                  stroke="white" stroke-width="1.04348" stroke-miterlimit="10"/>
            <path d="M435.275 421.774C361.555 431.468 301.723 376.611 301.873 299.504C301.573 299.357 300.897 299.283 300.372 299.357C300.222 376.464 270.719 422.876 234.609 402.828C308.93 392.988 398.79 401.506 435.275 421.774Z"
                  stroke="white" stroke-width="1.04348" stroke-miterlimit="10"/>
            <path d="M368.387 411.924C350.033 401.405 304.942 396.984 267.555 402.091" stroke="white"
                  stroke-width="1.04348" stroke-miterlimit="10"/>
            <path d="M320.467 368.08C315.176 364.535 302.25 363.117 291.516 364.801" stroke="white"
                  stroke-width="1.04348" stroke-miterlimit="10"/>
            <path d="M383.363 405.933C338.05 424.485 301.351 376.705 301.5 299.328" stroke="white"
                  stroke-width="1.04348" stroke-miterlimit="10"/>
            <path d="M234.749 403.156C270.853 423.273 300.352 376.775 300.502 299.328C299.977 299.402 299.677 299.549 299.977 299.77C299.827 377.144 239.778 448.033 166.068 457.759C129.664 437.421 160.364 413.03 234.749 403.156Z"
                  stroke="white" stroke-width="1.04348" stroke-miterlimit="10"/>
            <path d="M267.555 401.959C230.414 407.011 215.107 419.453 233.265 429.859" stroke="white"
                  stroke-width="1.04348" stroke-miterlimit="10"/>
            <path d="M291.515 365.091C280.915 366.52 276.51 370.13 281.736 373.063" stroke="white"
                  stroke-width="1.04348" stroke-miterlimit="10"/>
            <path d="M175.709 417.077C244.36 429.538 300.35 376.746 300.501 299.328" stroke="white"
                  stroke-width="1.04348" stroke-miterlimit="10"/>
            <path d="M302.348 299.328C302.498 222.294 362.555 151.717 436.275 142.032C399.79 121.71 309.93 113.273 235.609 123.031C271.719 143.06 300.996 222.074 300.846 299.181C301.447 299.108 302.122 299.108 302.348 299.328Z"
                  stroke="white" stroke-width="1.04348" stroke-miterlimit="10"/>
            <path d="M301.5 299.327C301.651 222.254 338.788 144.447 384.362 125.95" stroke="white"
                  stroke-width="1.04348" stroke-miterlimit="10"/>
            <path d="M301.5 299.328C301.648 222.16 306.546 141.244 312.482 118.975" stroke="white"
                  stroke-width="1.04348" stroke-miterlimit="10"/>
            <path d="M300.499 298.961C300.649 221.993 271.463 143.046 235.467 122.961C161.304 132.71 130.696 157.047 167.066 177.278C240.555 167.602 300.2 222.36 300.05 299.328C299.751 299.181 299.975 299.035 300.499 298.961Z"
                  stroke="white" stroke-width="1.04348" stroke-miterlimit="10"/>
            <path d="M300.5 299.326C300.65 222.23 245.097 149.318 176.707 136.909" stroke="white" stroke-width="1.04348"
                  stroke-miterlimit="10"/>
            <path d="M299.501 299.327C299.651 222.524 233.334 158.594 151.748 156.838" stroke="white"
                  stroke-width="1.04348" stroke-miterlimit="10"/>
            <path d="M254.631 407.512C251.186 407.954 245.494 408.836 241.825 409.498C240.027 409.865 237.631 410.38 235.834 410.748C234.86 410.968 233.587 411.409 232.613 411.703C237.481 409.792 242.349 406.777 245.569 404.645C247.292 403.469 249.613 401.851 251.261 400.601C253.507 398.837 256.503 396.41 258.6 394.425C262.419 390.822 266.313 387.072 271.63 380.382C275.225 375.823 279.494 369.426 282.414 364.427C284.137 361.486 286.159 357.442 287.582 354.427C288.855 351.633 290.353 347.81 291.476 345.016C292.824 341.855 294.097 337.443 294.996 334.061C295.969 330.311 297.242 325.238 297.767 321.341C298.665 314.871 299.339 306.195 299.564 299.651C299.564 299.504 299.789 299.43 300.163 299.357C300.687 299.283 301.361 299.357 301.661 299.504C301.586 348.472 325.55 388.469 361.797 408.689C363.07 409.424 364.867 410.306 366.14 410.968C366.814 411.262 367.713 411.63 368.387 411.924C368.087 411.85 365.316 410.895 359.55 409.792C354.008 408.689 348.616 407.88 348.391 407.88C345.246 407.439 340.903 406.851 334.687 406.263C325.85 405.454 319.26 405.16 319.185 405.16C316.713 405.086 313.418 404.939 311.022 404.866C308.551 404.792 305.181 404.719 302.709 404.719C300.612 404.719 294.172 404.645 285.859 404.939C269.908 405.527 259.199 406.924 254.631 407.512Z"
                  stroke="white" stroke-width="1.04348" stroke-miterlimit="10"/>
            <path d="M234.749 403.156C270.853 423.273 300.352 376.775 300.502 299.328C299.977 299.402 299.677 299.549 299.977 299.77C299.827 377.144 239.778 448.033 166.068 457.759C129.664 437.421 160.364 413.03 234.749 403.156Z"
                  stroke="white" stroke-width="1.04348" stroke-miterlimit="10"/>
            <path d="M267.555 401.959C230.414 407.011 215.107 419.453 233.265 429.859" stroke="white"
                  stroke-width="1.04348" stroke-miterlimit="10"/>
            <path d="M291.515 365.091C280.915 366.52 276.51 370.13 281.736 373.063" stroke="white"
                  stroke-width="1.04348" stroke-miterlimit="10"/>
            <path d="M165.725 457.504C239.445 447.765 299.501 376.793 299.652 299.328C299.952 299.476 300.628 299.549 301.153 299.476C301.003 376.94 330.281 456.397 366.39 476.611C292.069 486.424 202.209 477.866 165.725 457.504Z"
                  stroke="white" stroke-width="1.04348" stroke-miterlimit="10"/>
            <path d="M233.609 429.859C251.781 439.502 296.426 443.554 333.443 438.873" stroke="white"
                  stroke-width="1.04348" stroke-miterlimit="10"/>
            <path d="M281.533 373.062C286.825 375.721 299.751 376.784 310.485 375.521" stroke="white"
                  stroke-width="1.04348" stroke-miterlimit="10"/>
            <path d="M217.641 473.702C263.215 455.205 300.352 377.471 300.502 300.325" stroke="white"
                  stroke-width="1.04348" stroke-miterlimit="10"/>
            <path d="M366.964 476.692C330.729 456.575 301.35 377.215 301.501 299.77C302.028 299.697 302.329 299.549 302.028 299.328C301.877 376.699 361.916 431.743 435.892 422.016C472.428 442.427 441.542 466.891 366.964 476.692Z"
                  stroke="white" stroke-width="1.04348" stroke-miterlimit="10"/>
            <path d="M333.445 438.826C370.587 433.955 385.894 421.957 367.736 411.923" stroke="white"
                  stroke-width="1.04348" stroke-miterlimit="10"/>
            <path d="M310.484 375.056C321.085 373.805 325.489 370.647 320.264 368.081" stroke="white"
                  stroke-width="1.04348" stroke-miterlimit="10"/>
            <path d="M425.294 462.742C356.903 450.183 301.35 376.898 301.5 299.328" stroke="white"
                  stroke-width="1.04348" stroke-miterlimit="10"/>
            <path d="M450.25 442.813C368.663 441.045 302.347 376.669 302.496 299.328" stroke="white"
                  stroke-width="1.04348" stroke-miterlimit="10"/>
            <path d="M300.499 298.961C300.649 221.993 271.463 143.046 235.467 122.961C161.304 132.71 130.696 157.047 167.066 177.278C240.555 167.602 300.2 222.36 300.05 299.328C299.751 299.181 299.975 299.035 300.499 298.961Z"
                  stroke="white" stroke-width="1.04348" stroke-miterlimit="10"/>
            <path d="M300.124 300.147C300.274 222.418 240.443 167.119 166.723 176.891C203.207 197.323 293.067 205.91 367.388 195.99C331.279 175.78 301.776 222.566 301.626 300.295C301.1 300.369 300.424 300.295 300.124 300.147Z"
                  stroke="white" stroke-width="1.04348" stroke-miterlimit="10"/>
            <path d="M300.498 300.323C300.648 223.017 263.948 175.162 218.635 193.715" stroke="white"
                  stroke-width="1.04348" stroke-miterlimit="10"/>
            <path d="M301.5 300.324C301.65 222.951 331.154 176.38 367.265 196.497C441.664 186.696 472.37 162.231 435.883 141.893C362.235 151.62 302.176 222.509 302.026 299.956C302.326 300.103 302.101 300.251 301.5 300.324Z"
                  stroke="white" stroke-width="1.04348" stroke-miterlimit="10"/>
            <path d="M301.5 299.328C301.651 222.567 357.641 170.15 426.292 182.578" stroke="white"
                  stroke-width="1.04348" stroke-miterlimit="10"/>
            <path d="M302.496 299.327C302.646 222.328 369.401 161.094 451.248 162.854" stroke="white"
                  stroke-width="1.04348" stroke-miterlimit="10"/>
            <path d="M366.964 476.692C330.729 456.575 301.35 377.215 301.501 299.77C302.028 299.697 302.329 299.549 302.028 299.328C301.877 376.699 361.916 431.743 435.892 422.016C472.428 442.427 441.542 466.891 366.964 476.692Z"
                  stroke="white" stroke-width="1.04348" stroke-miterlimit="10"/>
            <path d="M310.484 375.056C321.085 373.805 325.489 370.647 320.264 368.081" stroke="white"
                  stroke-width="1.04348" stroke-miterlimit="10"/>
            <path d="M301.5 300.324C301.65 222.951 331.154 176.38 367.265 196.497C441.664 186.696 472.37 162.231 435.883 141.893C362.235 151.62 302.176 222.509 302.026 299.956C302.326 300.103 302.101 300.251 301.5 300.324Z"
                  stroke="white" stroke-width="1.04348" stroke-miterlimit="10"/>
            <path d="M362.396 408.935C326.218 388.637 302.348 348.485 302.497 299.328C302.571 299.402 302.646 299.402 302.646 299.476C302.795 305.38 303.392 313.278 304.063 319.183C304.436 322.726 305.481 327.302 306.301 330.771C307.793 336.823 310.553 344.721 312.716 350.625C313.91 353.799 315.924 357.933 317.565 360.959C318.982 363.616 320.922 367.085 322.563 369.668C324.353 372.547 326.964 376.163 328.903 378.894C330.917 381.847 334.05 385.39 336.512 388.047C340.018 391.737 344.866 396.461 348.82 399.709C351.282 401.701 354.638 404.137 357.249 405.909C358.666 406.794 360.83 407.975 362.396 408.935Z"
                  stroke="white" stroke-width="1.04348" stroke-miterlimit="10"/>
            <path d="M366.964 476.692C330.729 456.575 301.35 377.215 301.501 299.77C302.028 299.697 302.329 299.549 302.028 299.328C301.877 376.699 361.916 431.743 435.892 422.016C472.428 442.427 441.542 466.891 366.964 476.692Z"
                  stroke="white" stroke-width="1.04348" stroke-miterlimit="10"/>
            <path d="M333.445 438.826C370.587 433.955 385.894 421.957 367.736 411.923" stroke="white"
                  stroke-width="1.04348" stroke-miterlimit="10"/>
            <path d="M310.484 375.056C321.085 373.805 325.489 370.647 320.264 368.081" stroke="white"
                  stroke-width="1.04348" stroke-miterlimit="10"/>
            <path d="M301.5 300.324C301.65 222.951 331.154 176.38 367.265 196.497C441.664 186.696 472.37 162.231 435.883 141.893C362.235 151.62 302.176 222.509 302.026 299.956C302.326 300.103 302.101 300.251 301.5 300.324Z"
                  stroke="white" stroke-width="1.04348" stroke-miterlimit="10"/>
            <path d="M234.749 403.156C270.853 423.273 300.352 376.775 300.502 299.328C299.977 299.402 299.677 299.549 299.977 299.77C299.827 377.144 239.778 448.033 166.068 457.759C129.664 437.421 160.364 413.03 234.749 403.156Z"
                  stroke="white" stroke-width="1.04348" stroke-miterlimit="10"/>
            <path d="M217.641 473.702C263.215 455.205 300.352 377.471 300.502 300.325" stroke="white"
                  stroke-width="1.04348" stroke-miterlimit="10"/>
            <path d="M366.964 476.692C330.729 456.575 301.35 377.215 301.501 299.77C302.028 299.697 302.329 299.549 302.028 299.328C301.877 376.699 361.916 431.743 435.892 422.016C472.428 442.427 441.542 466.891 366.964 476.692Z"
                  stroke="white" stroke-width="1.04348" stroke-miterlimit="10"/>
            <path d="M425.294 462.742C356.903 450.183 301.35 376.898 301.5 299.328" stroke="white"
                  stroke-width="1.04348" stroke-miterlimit="10"/>
            <path d="M450.25 442.813C368.663 441.045 302.347 376.669 302.496 299.328" stroke="white"
                  stroke-width="1.04348" stroke-miterlimit="10"/>
            <path d="M300.499 298.961C300.649 221.993 271.463 143.046 235.467 122.961C161.304 132.71 130.696 157.047 167.066 177.278C240.555 167.602 300.2 222.36 300.05 299.328C299.751 299.181 299.975 299.035 300.499 298.961Z"
                  stroke="white" stroke-width="1.04348" stroke-miterlimit="10"/>
            <path d="M291.515 223.599C280.915 225.027 276.51 228.637 281.736 231.57" stroke="white"
                  stroke-width="1.04348" stroke-miterlimit="10"/>
            <path d="M268.551 160.825C231.41 165.697 216.103 177.694 234.261 187.729" stroke="white"
                  stroke-width="1.04348" stroke-miterlimit="10"/>
            <path d="M300.124 300.147C300.274 222.418 240.443 167.119 166.723 176.891C203.207 197.323 293.067 205.91 367.388 195.99C331.279 175.78 301.776 222.566 301.626 300.295C301.1 300.369 300.424 300.295 300.124 300.147Z"
                  stroke="white" stroke-width="1.04348" stroke-miterlimit="10"/>
            <path d="M281.533 231.572C286.825 234.231 299.751 235.294 310.485 234.031" stroke="white"
                  stroke-width="1.04348" stroke-miterlimit="10"/>
            <path d="M233.609 187.729C251.963 197.371 297.054 201.423 334.441 196.742" stroke="white"
                  stroke-width="1.04348" stroke-miterlimit="10"/>
            <path d="M300.498 300.323C300.648 223.017 263.948 175.162 218.635 193.715" stroke="white"
                  stroke-width="1.04348" stroke-miterlimit="10"/>
            <path d="M301.5 300.324C301.65 222.951 331.154 176.38 367.265 196.497C441.664 186.696 472.37 162.231 435.883 141.893C362.235 151.62 302.176 222.509 302.026 299.956C302.326 300.103 302.101 300.251 301.5 300.324Z"
                  stroke="white" stroke-width="1.04348" stroke-miterlimit="10"/>
            <path d="M310.484 234.561C321.085 233.132 325.489 229.522 320.264 226.589" stroke="white"
                  stroke-width="1.04348" stroke-miterlimit="10"/>
            <path d="M334.443 196.695C371.585 191.824 386.892 179.826 368.734 169.792" stroke="white"
                  stroke-width="1.04348" stroke-miterlimit="10"/>
            <path d="M301.5 299.328C301.651 222.567 357.641 170.15 426.292 182.578" stroke="white"
                  stroke-width="1.04348" stroke-miterlimit="10"/>
            <path d="M302.496 299.327C302.646 222.328 369.401 161.094 451.248 162.854" stroke="white"
                  stroke-width="1.04348" stroke-miterlimit="10"/>
            <path d="M234.749 403.156C270.853 423.273 300.352 376.775 300.502 299.328C299.977 299.402 299.677 299.549 299.977 299.77C299.827 377.144 239.778 448.033 166.068 457.759C129.664 437.421 160.364 413.03 234.749 403.156Z"
                  stroke="white" stroke-width="1.04348" stroke-miterlimit="10"/>
            <path d="M217.641 473.702C263.215 455.205 300.352 377.471 300.502 300.325" stroke="white"
                  stroke-width="1.04348" stroke-miterlimit="10"/>
            <path d="M366.964 476.692C330.729 456.575 301.35 377.215 301.501 299.77C302.028 299.697 302.329 299.549 302.028 299.328C301.877 376.699 361.916 431.743 435.892 422.016C472.428 442.427 441.542 466.891 366.964 476.692Z"
                  stroke="white" stroke-width="1.04348" stroke-miterlimit="10"/>
            <path d="M425.294 462.742C356.903 450.183 301.35 376.898 301.5 299.328" stroke="white"
                  stroke-width="1.04348" stroke-miterlimit="10"/>
            <path d="M450.25 442.813C368.663 441.045 302.347 376.669 302.496 299.328" stroke="white"
                  stroke-width="1.04348" stroke-miterlimit="10"/>
            <path d="M300.499 298.961C300.649 221.993 271.463 143.046 235.467 122.961C161.304 132.71 130.696 157.047 167.066 177.278C240.555 167.602 300.2 222.36 300.05 299.328C299.751 299.181 299.975 299.035 300.499 298.961Z"
                  stroke="white" stroke-width="1.04348" stroke-miterlimit="10"/>
            <path d="M291.515 223.599C280.915 225.027 276.51 228.637 281.736 231.57" stroke="white"
                  stroke-width="1.04348" stroke-miterlimit="10"/>
            <path d="M268.551 160.825C231.41 165.697 216.103 177.694 234.261 187.729" stroke="white"
                  stroke-width="1.04348" stroke-miterlimit="10"/>
            <path d="M300.124 300.147C300.274 222.418 240.443 167.119 166.723 176.891C203.207 197.323 293.067 205.91 367.388 195.99C331.279 175.78 301.776 222.566 301.626 300.295C301.1 300.369 300.424 300.295 300.124 300.147Z"
                  stroke="white" stroke-width="1.04348" stroke-miterlimit="10"/>
            <path d="M281.533 231.572C286.825 234.231 299.751 235.294 310.485 234.031" stroke="white"
                  stroke-width="1.04348" stroke-miterlimit="10"/>
            <path d="M233.609 187.729C251.963 197.371 297.054 201.423 334.441 196.742" stroke="white"
                  stroke-width="1.04348" stroke-miterlimit="10"/>
            <path d="M300.498 300.323C300.648 223.017 263.948 175.162 218.635 193.715" stroke="white"
                  stroke-width="1.04348" stroke-miterlimit="10"/>
            <path d="M301.5 300.324C301.65 222.951 331.154 176.38 367.265 196.497C441.664 186.696 472.37 162.231 435.883 141.893C362.235 151.62 302.176 222.509 302.026 299.956C302.326 300.103 302.101 300.251 301.5 300.324Z"
                  stroke="white" stroke-width="1.04348" stroke-miterlimit="10"/>
            <path d="M310.484 234.561C321.085 233.132 325.489 229.522 320.264 226.589" stroke="white"
                  stroke-width="1.04348" stroke-miterlimit="10"/>
            <path d="M334.443 196.695C371.585 191.824 386.892 179.826 368.734 169.792" stroke="white"
                  stroke-width="1.04348" stroke-miterlimit="10"/>
            <path d="M301.5 299.328C301.651 222.567 357.641 170.15 426.292 182.578" stroke="white"
                  stroke-width="1.04348" stroke-miterlimit="10"/>
            <path d="M302.496 299.327C302.646 222.328 369.401 161.094 451.248 162.854" stroke="white"
                  stroke-width="1.04348" stroke-miterlimit="10"/>
            <path d="M166.706 177.764C93.0777 187.454 33.0953 258.073 32.9453 335.152C105.524 375.527 284.347 392.411 432.279 372.958C432.429 295.878 403.187 216.817 367.123 196.703C292.819 206.54 203.071 198.024 166.706 177.764Z"
                  stroke="white" stroke-width="1.04348" stroke-miterlimit="10"/>
            <path d="M218.637 193.706C173.063 212.203 135.926 290.01 135.775 367.083" stroke="white"
                  stroke-width="1.04348" stroke-miterlimit="10"/>
            <path d="M367.389 196.442C403.505 216.524 432.788 295.749 432.638 373.062C580.856 353.568 642.05 304.944 569.443 264.486C569.593 187.247 509.75 132.297 436.016 142.007C472.508 162.236 441.723 186.659 367.389 196.442Z"
                  stroke="white" stroke-width="1.04348" stroke-miterlimit="10"/>
            <path d="M426.293 182.746C494.683 195.228 550.236 268.066 550.086 345.163" stroke="white"
                  stroke-width="1.04348" stroke-miterlimit="10"/>
            <path d="M451.248 162.817C532.909 164.585 599.151 228.962 599.001 306.302" stroke="white"
                  stroke-width="1.04348" stroke-miterlimit="10"/>
            <path d="M435.275 421.774C361.555 431.468 301.723 376.611 301.873 299.504C301.573 299.357 300.897 299.283 300.372 299.357C300.222 376.464 270.719 422.876 234.609 402.828C308.93 392.988 398.79 401.506 435.275 421.774Z"
                  stroke="white" stroke-width="1.04348" stroke-miterlimit="10"/>
            <path d="M383.363 405.933C338.05 424.485 301.351 376.705 301.5 299.328" stroke="white"
                  stroke-width="1.04348" stroke-miterlimit="10"/>
            <path d="M234.749 403.156C270.853 423.273 300.352 376.775 300.502 299.328C299.977 299.402 299.677 299.549 299.977 299.77C299.827 377.144 239.778 448.033 166.068 457.759C129.664 437.421 160.364 413.03 234.749 403.156Z"
                  stroke="white" stroke-width="1.04348" stroke-miterlimit="10"/>
            <path d="M175.709 417.077C244.36 429.538 300.35 376.746 300.501 299.328" stroke="white"
                  stroke-width="1.04348" stroke-miterlimit="10"/>
            <path d="M320.467 226.588C315.176 223.929 302.25 222.866 291.516 224.128" stroke="white"
                  stroke-width="1.04348" stroke-miterlimit="10"/>
            <path d="M368.388 169.791C350.216 160.149 305.572 156.096 268.555 160.778" stroke="white"
                  stroke-width="1.04348" stroke-miterlimit="10"/>
            <path d="M301.5 299.327C301.651 222.254 338.788 144.447 384.362 125.95" stroke="white"
                  stroke-width="1.04348" stroke-miterlimit="10"/>
            <path d="M301.5 299.328C301.648 222.16 306.546 141.244 312.482 118.975" stroke="white"
                  stroke-width="1.04348" stroke-miterlimit="10"/>
            <path d="M291.515 223.599C280.915 225.027 276.51 228.637 281.736 231.57" stroke="white"
                  stroke-width="1.04348" stroke-miterlimit="10"/>
            <path d="M268.551 160.825C231.41 165.697 216.103 177.694 234.261 187.729" stroke="white"
                  stroke-width="1.04348" stroke-miterlimit="10"/>
            <path d="M300.5 299.326C300.65 222.23 245.097 149.318 176.707 136.909" stroke="white" stroke-width="1.04348"
                  stroke-miterlimit="10"/>
            <path d="M299.501 299.327C299.651 222.524 233.334 158.594 151.748 156.838" stroke="white"
                  stroke-width="1.04348" stroke-miterlimit="10"/>
            <path d="M313 117.624C318.327 99.7974 322.521 135.568 322.388 197.401" stroke="white" stroke-width="1.04348"
                  stroke-miterlimit="10"/>
            <path d="M151.748 155.88C69.8669 154.107 3.1462 215.787 2.99609 293.349" stroke="white"
                  stroke-width="1.04348" stroke-miterlimit="10"/>
            <path d="M366.964 476.692C330.729 456.575 301.35 377.215 301.501 299.77C302.028 299.697 302.329 299.549 302.028 299.328C301.877 376.699 361.916 431.743 435.892 422.016C472.428 442.427 441.542 466.891 366.964 476.692Z"
                  stroke="white" stroke-width="1.04348" stroke-miterlimit="10"/>
            <path d="M301.5 300.324C301.65 222.951 331.154 176.38 367.265 196.497C441.664 186.696 472.37 162.231 435.883 141.893C362.235 151.62 302.176 222.509 302.026 299.956C302.326 300.103 302.101 300.251 301.5 300.324Z"
                  stroke="white" stroke-width="1.04348" stroke-miterlimit="10"/>
            <path d="M310.484 234.561C321.085 233.132 325.489 229.522 320.264 226.589" stroke="white"
                  stroke-width="1.04348" stroke-miterlimit="10"/>
            <path d="M334.443 196.695C371.585 191.824 386.892 179.826 368.734 169.792" stroke="white"
                  stroke-width="1.04348" stroke-miterlimit="10"/>
            <path d="M367.389 196.442C403.505 216.524 432.788 295.749 432.638 373.062C580.856 353.568 642.05 304.944 569.443 264.486C569.593 187.247 509.75 132.297 436.016 142.007C472.508 162.236 441.723 186.659 367.389 196.442Z"
                  stroke="white" stroke-width="1.04348" stroke-miterlimit="10"/>
            <path d="M302.348 299.328C302.498 222.294 362.555 151.717 436.275 142.032C399.79 121.71 309.93 113.273 235.609 123.031C271.719 143.06 300.996 222.074 300.846 299.181C301.447 299.108 302.122 299.108 302.348 299.328Z"
                  stroke="white" stroke-width="1.04348" stroke-miterlimit="10"/>
            <path d="M301.5 299.327C301.651 222.254 338.788 144.447 384.362 125.95" stroke="white"
                  stroke-width="1.04348" stroke-miterlimit="10"/>
            <path d="M301.5 299.328C301.648 222.16 306.546 141.244 312.482 118.975" stroke="white"
                  stroke-width="1.04348" stroke-miterlimit="10"/>
            <path d="M300.499 298.961C300.649 221.993 271.463 143.046 235.467 122.961C161.304 132.71 130.696 157.047 167.066 177.278C240.555 167.602 300.2 222.36 300.05 299.328C299.751 299.181 299.975 299.035 300.499 298.961Z"
                  stroke="white" stroke-width="1.04348" stroke-miterlimit="10"/>
            <path d="M300.5 299.326C300.65 222.23 245.097 149.318 176.707 136.909" stroke="white" stroke-width="1.04348"
                  stroke-miterlimit="10"/>
            <path d="M299.501 299.327C299.651 222.524 233.334 158.594 151.748 156.838" stroke="white"
                  stroke-width="1.04348" stroke-miterlimit="10"/>
            <path d="M300.124 300.147C300.274 222.418 240.443 167.119 166.723 176.891C203.207 197.323 293.067 205.91 367.388 195.99C331.279 175.78 301.776 222.566 301.626 300.295C301.1 300.369 300.424 300.295 300.124 300.147Z"
                  stroke="white" stroke-width="1.04348" stroke-miterlimit="10"/>
            <path d="M301.5 300.324C301.65 222.951 331.154 176.38 367.265 196.497C441.664 186.696 472.37 162.231 435.883 141.893C362.235 151.62 302.176 222.509 302.026 299.956C302.326 300.103 302.101 300.251 301.5 300.324Z"
                  stroke="white" stroke-width="1.04348" stroke-miterlimit="10"/>
            <path d="M301.5 299.328C301.651 222.567 357.641 170.15 426.292 182.578" stroke="white"
                  stroke-width="1.04348" stroke-miterlimit="10"/>
            <path d="M302.496 299.327C302.646 222.328 369.401 161.094 451.248 162.854" stroke="white"
                  stroke-width="1.04348" stroke-miterlimit="10"/>
            <path d="M313 117.624C318.327 99.7974 322.521 135.568 322.388 197.401" stroke="white" stroke-width="1.04348"
                  stroke-miterlimit="10"/>
            <path d="M151.748 155.88C69.8669 154.107 3.1462 215.787 2.99609 293.349" stroke="white"
                  stroke-width="1.04348" stroke-miterlimit="10"/>
            <path d="M166.706 177.764C93.0777 187.454 33.0953 258.073 32.9453 335.152C105.524 375.527 284.347 392.411 432.279 372.958C432.429 295.878 403.187 216.817 367.123 196.703C292.819 206.54 203.071 198.024 166.706 177.764Z"
                  stroke="white" stroke-width="1.04348" stroke-miterlimit="10"/>
            <path d="M98.8359 205.664C153.633 235.444 288.634 247.96 400.333 233.574" stroke="white"
                  stroke-width="1.04348" stroke-miterlimit="10"/>
            <path d="M50.918 261.465C118.582 299.129 285.268 314.945 423.297 296.775" stroke="white"
                  stroke-width="1.04348" stroke-miterlimit="10"/>
            <path d="M218.637 193.706C173.063 212.203 135.926 290.01 135.775 367.083" stroke="white"
                  stroke-width="1.04348" stroke-miterlimit="10"/>
            <path d="M367.389 196.442C403.505 216.524 432.788 295.749 432.638 373.062C580.856 353.568 642.05 304.944 569.443 264.486C569.593 187.247 509.75 132.297 436.016 142.007C472.508 162.236 441.723 186.659 367.389 196.442Z"
                  stroke="white" stroke-width="1.04348" stroke-miterlimit="10"/>
            <path d="M400.336 233.564C511.683 218.868 557.766 182.277 503.141 151.857" stroke="white"
                  stroke-width="1.04348" stroke-miterlimit="10"/>
            <path d="M423.297 297.335C562.094 279.091 619.454 233.592 551.376 195.7" stroke="white"
                  stroke-width="1.04348" stroke-miterlimit="10"/>
            <path d="M426.293 182.746C494.683 195.228 550.236 268.066 550.086 345.163" stroke="white"
                  stroke-width="1.04348" stroke-miterlimit="10"/>
            <path d="M451.248 162.817C532.909 164.585 599.151 228.962 599.001 306.302" stroke="white"
                  stroke-width="1.04348" stroke-miterlimit="10"/>
            <path d="M551.082 337.193C483.418 299.529 316.732 283.713 178.703 301.883" stroke="white"
                  stroke-width="1.04348" stroke-miterlimit="10"/>
            <path d="M503.161 393.987C448.364 363.331 313.363 350.447 201.664 365.257" stroke="white"
                  stroke-width="1.04348" stroke-miterlimit="10"/>
            <path d="M178.703 302.316C39.8964 320.454 -17.437 365.435 50.6086 402.955" stroke="white"
                  stroke-width="1.04348" stroke-miterlimit="10"/>
            <path d="M201.667 365.091C90.3196 379.787 44.2371 416.378 98.8618 446.798" stroke="white"
                  stroke-width="1.04348" stroke-miterlimit="10"/>
            <path d="M50.918 402.956C118.582 440.62 285.268 456.436 423.297 438.266" stroke="white"
                  stroke-width="1.04348" stroke-miterlimit="10"/>
            <path d="M98.8359 446.797C153.452 477.453 288.006 490.337 399.335 475.527" stroke="white"
                  stroke-width="1.04348" stroke-miterlimit="10"/>
            <path d="M135.776 367.085C135.626 444.391 172.326 492.247 217.639 473.693" stroke="white"
                  stroke-width="1.04348" stroke-miterlimit="10"/>
            <path d="M432.289 372.69C432.139 449.689 402.575 496.035 366.391 476.016C440.94 466.262 471.708 441.916 435.148 421.676C509.02 411.996 569.202 341.451 569.352 264.452C642.172 304.784 580.787 353.257 432.289 372.69Z"
                  stroke="white" stroke-width="1.04348" stroke-miterlimit="10"/>
            <path d="M423.297 438.827C561.21 420.583 618.205 375.084 550.561 337.192" stroke="white"
                  stroke-width="1.04348" stroke-miterlimit="10"/>
            <path d="M399.336 475.694C511.567 460.999 558.015 424.407 502.957 393.987" stroke="white"
                  stroke-width="1.04348" stroke-miterlimit="10"/>
            <path d="M550.083 345.162C549.932 422.568 493.942 475.426 425.291 462.893" stroke="white"
                  stroke-width="1.04348" stroke-miterlimit="10"/>
            <path d="M599.004 306.303C598.854 383.303 532.099 444.536 450.252 442.776" stroke="white"
                  stroke-width="1.04348" stroke-miterlimit="10"/>
            <path d="M509.113 155.083C488.083 143.41 462.998 138.345 436.035 141.869C399.534 121.607 309.632 113.164 235.278 122.928C182.178 129.903 151.31 144.291 151.235 159.341C151.235 165.361 156.192 171.527 166.556 177.327C203.058 197.589 292.959 206.105 367.313 196.267C420.413 189.293 451.282 174.904 451.357 159.855C451.357 153.835 446.4 147.668 436.035 141.869C462.998 138.345 488.158 143.41 509.113 155.083ZM509.113 155.083C514.671 158.313 522.031 162.571 527.138 166.315C530.368 168.664 534.724 171.748 537.803 174.317C541.634 177.474 546.741 181.805 550.271 185.329C552.974 188.045 556.655 191.716 559.208 194.652C562.137 197.956 565.893 202.581 568.596 206.105C573.929 213.226 578.961 221.301 582.716 228.569C588.199 239.287 590.753 246.628 592.705 252.648C594.808 259.035 596.986 267.845 597.963 274.525C598.864 280.618 600.141 288.914 599.991 301.027C599.991 304.845 599.69 309.983 599.315 313.801C598.939 317.912 598.263 323.491 597.437 327.529C596.085 334.356 594.508 342.065 590.452 353.003C585.871 365.336 580.914 373.999 579.036 377.303C575.281 383.763 569.648 392.059 564.916 397.932C561.912 401.602 557.631 406.374 554.401 409.898C551.773 412.687 548.018 416.138 545.239 418.707C541.033 422.598 535.024 427.443 530.293 430.747C527.063 433.023 522.782 436.033 519.402 438.088C515.572 440.437 510.465 443.594 506.484 445.576C499.274 449.247 489.585 454.092 482.075 456.955C475.09 459.671 465.627 462.902 458.492 465.251C454.586 466.572 449.179 467.967 445.198 469.068C425.445 474.281 407.871 477.144 402.163 478.098C397.581 478.832 391.422 479.786 386.766 480.374C382.26 480.888 376.251 481.695 371.67 482.136C367.163 482.65 361.08 483.163 356.498 483.531C351.992 483.898 345.984 484.338 341.477 484.558C336.971 484.779 330.962 485.072 326.456 485.219C321.95 485.366 316.016 485.586 311.51 485.586C307.079 485.586 301.07 485.66 296.639 485.66C292.208 485.66 286.275 485.513 281.843 485.366C277.412 485.219 271.554 484.999 267.123 484.779C262.767 484.558 256.908 484.265 252.552 483.898C240.61 482.943 233.851 482.356 223.712 481.181C219.356 480.667 213.497 479.933 209.216 479.273C205.01 478.685 199.453 477.731 195.247 477.07C190.815 476.336 184.882 475.235 180.451 474.281C172.339 472.519 161.599 469.949 153.563 467.82C148.681 466.572 142.297 464.59 137.566 462.975C131.632 460.919 123.746 458.056 117.963 455.707C114.133 454.092 109.025 451.89 105.27 450.054C100.238 447.558 93.6288 444.181 88.822 441.318C81.8372 437.207 73.0499 430.967 66.5157 426.195C63.2861 423.846 59.3807 420.249 56.3764 417.68C52.7714 414.596 48.3401 410.045 45.1106 406.594C42.4819 403.805 39.1773 399.914 36.7739 396.904C34.0701 393.527 30.6903 388.828 28.287 385.231C25.9587 381.781 22.9545 377.009 21.0768 373.265C17.6971 366.584 13.6414 357.481 10.9376 350.58C9.43545 346.763 8.08355 341.477 6.95697 337.513C5.83038 333.549 4.77891 328.19 4.10296 324.152C3.50211 320.408 2.82616 315.416 2.52574 311.598C2.22532 307.928 2 302.789 2 298.971C2.07511 294.273 2.15021 287.96 2.82616 283.335C3.42701 279.224 3.95274 273.644 4.85401 269.606C6.58144 262.339 9.28524 252.722 11.6135 245.601C12.9654 241.636 15.2186 236.497 17.0211 232.753C18.8988 228.863 21.5274 223.65 23.8557 219.98C27.7612 213.593 33.3941 205.297 38.2009 199.498C41.2802 195.827 45.6363 191.055 48.941 187.531C51.5697 184.815 55.4001 181.365 58.2541 178.795C62.6102 174.831 68.7689 169.986 73.6507 166.682C76.8803 164.48 81.2364 161.47 84.6161 159.414C88.7469 156.918 94.3047 153.835 98.5107 151.559C105.646 147.742 115.56 143.337 123.145 140.474C129.229 138.198 137.49 135.408 143.724 133.353C147.63 132.105 152.962 130.71 156.943 129.609C165.28 127.26 176.62 124.837 185.107 123.222C194.045 121.46 206.062 119.625 215.074 118.377C227.767 116.688 242.037 115.44 245.492 115.147C249.999 114.853 256.007 114.339 260.513 114.119C265.02 113.899 271.028 113.605 275.534 113.458C280.041 113.311 285.974 113.091 290.481 113.091C294.912 113.091 300.92 112.944 305.351 113.018C309.783 113.091 315.716 113.164 320.147 113.311C324.578 113.458 330.437 113.678 334.868 113.899C343.58 114.339 355.146 115.293 363.859 115.954C368.215 116.321 373.998 116.982 378.354 117.496C382.71 118.01 388.568 118.744 392.849 119.405C397.055 119.992 402.613 120.946 406.819 121.607C410.95 122.268 416.357 123.369 420.488 124.176C424.919 125.057 430.853 126.379 435.284 127.406C440.091 128.581 446.55 130.196 451.282 131.591C455.262 132.766 460.67 134.307 464.575 135.702C470.509 137.758 478.32 140.621 484.178 142.97C491.914 146.2 501.752 151.339 509.113 155.083Z"
                  stroke="white" stroke-width="1.04348" stroke-miterlimit="10"/>
            <path d="M313 117.624C318.327 99.7974 322.521 135.568 322.388 197.401" stroke="white" stroke-width="1.04348"
                  stroke-miterlimit="10"/>
            <path d="M99.055 205.663C65.6846 187.224 69.5786 166.517 102.832 149.794" stroke="white"
                  stroke-width="1.04348" stroke-miterlimit="10"/>
            <path d="M151.748 155.88C69.8669 154.107 3.1462 215.787 2.99609 293.349" stroke="white"
                  stroke-width="1.04348" stroke-miterlimit="10"/>
            <path d="M166.706 177.764C93.0777 187.454 33.0953 258.073 32.9453 335.152C105.524 375.527 284.347 392.411 432.279 372.958C432.429 295.878 403.187 216.817 367.123 196.703C292.819 206.54 203.071 198.024 166.706 177.764Z"
                  stroke="white" stroke-width="1.04348" stroke-miterlimit="10"/>
            <path d="M98.8359 205.664C153.633 235.444 288.634 247.96 400.333 233.574" stroke="white"
                  stroke-width="1.04348" stroke-miterlimit="10"/>
            <path d="M50.918 261.465C118.582 299.129 285.268 314.945 423.297 296.775" stroke="white"
                  stroke-width="1.04348" stroke-miterlimit="10"/>
            <path d="M218.637 193.706C173.063 212.203 135.926 290.01 135.775 367.083" stroke="white"
                  stroke-width="1.04348" stroke-miterlimit="10"/>
            <path d="M367.389 196.442C403.505 216.524 432.788 295.749 432.638 373.062C580.856 353.568 642.05 304.944 569.443 264.486C569.593 187.247 509.75 132.297 436.016 142.007C472.508 162.236 441.723 186.659 367.389 196.442Z"
                  stroke="white" stroke-width="1.04348" stroke-miterlimit="10"/>
            <path d="M400.336 233.564C511.683 218.868 557.766 182.277 503.141 151.857" stroke="white"
                  stroke-width="1.04348" stroke-miterlimit="10"/>
            <path d="M423.297 297.335C562.094 279.091 619.454 233.592 551.376 195.7" stroke="white"
                  stroke-width="1.04348" stroke-miterlimit="10"/>
            <path d="M426.293 182.746C494.683 195.228 550.236 268.066 550.086 345.163" stroke="white"
                  stroke-width="1.04348" stroke-miterlimit="10"/>
            <path d="M451.248 162.817C532.909 164.585 599.151 228.962 599.001 306.302" stroke="white"
                  stroke-width="1.04348" stroke-miterlimit="10"/>
            <path d="M551.082 337.193C483.418 299.529 316.732 283.713 178.703 301.883" stroke="white"
                  stroke-width="1.04348" stroke-miterlimit="10"/>
            <path d="M503.161 393.987C448.364 363.331 313.363 350.447 201.664 365.257" stroke="white"
                  stroke-width="1.04348" stroke-miterlimit="10"/>
            <path d="M178.703 302.316C39.8964 320.454 -17.437 365.435 50.6086 402.955" stroke="white"
                  stroke-width="1.04348" stroke-miterlimit="10"/>
            <path d="M201.667 365.091C90.3196 379.787 44.2371 416.378 98.8618 446.798" stroke="white"
                  stroke-width="1.04348" stroke-miterlimit="10"/>
            <path d="M50.918 402.956C118.582 440.62 285.268 456.436 423.297 438.266" stroke="white"
                  stroke-width="1.04348" stroke-miterlimit="10"/>
            <path d="M98.8359 446.797C153.452 477.453 288.006 490.337 399.335 475.527" stroke="white"
                  stroke-width="1.04348" stroke-miterlimit="10"/>
            <path d="M135.776 367.085C135.626 444.391 172.326 492.247 217.639 473.693" stroke="white"
                  stroke-width="1.04348" stroke-miterlimit="10"/>
            <path d="M432.289 372.69C432.139 449.689 402.575 496.035 366.391 476.016C440.94 466.262 471.708 441.916 435.148 421.676C509.02 411.996 569.202 341.451 569.352 264.452C642.172 304.784 580.787 353.257 432.289 372.69Z"
                  stroke="white" stroke-width="1.04348" stroke-miterlimit="10"/>
            <path d="M423.297 438.827C561.21 420.583 618.205 375.084 550.561 337.192" stroke="white"
                  stroke-width="1.04348" stroke-miterlimit="10"/>
            <path d="M399.336 475.694C511.567 460.999 558.015 424.407 502.957 393.987" stroke="white"
                  stroke-width="1.04348" stroke-miterlimit="10"/>
            <path d="M599.004 306.303C598.854 383.303 532.099 444.536 450.252 442.776" stroke="white"
                  stroke-width="1.04348" stroke-miterlimit="10"/>
        </mask>
        <g mask="url(#mask0_1105_46998)">
            <rect x="-60.998" y="26.8838" width="783" height="509" fill="url(#paint0_radial_1105_46998)"/>
        </g>
    </g>
    <defs>
        <radialGradient id="paint0_radial_1105_46998" cx="0" cy="0" r="1" gradientUnits="userSpaceOnUse"
                        gradientTransform="translate(337.002 275.884) rotate(89.2361) scale(225.02 346.151)">
            <stop offset="0.0147853" stop-color="#F08119"/>
            <stop offset="0.715004" stop-color="#9536DF"/>
        </radialGradient>
    </defs>
    </g>
        <animateTransform attributeName="transform" attributeType="XML" type="rotate" dur="8s" values="0 300 300; 15 300 300; 0 300 300; -15 300 300; 0 300 300;" repeatCount="indefinite">
        </animateTransform>
    </g>
</svg>
