<svg width="600" height="600" viewBox="0 0 600 600" fill="none" xmlns="http://www.w3.org/2000/svg">
    <g>
        <g>
            <mask id="mask0_1105_47668" style="mask-type:alpha" maskUnits="userSpaceOnUse" x="3" y="4" width="591" height="592">
                <path d="M299.502 595.043C325.216 595.043 346.061 463.029 346.061 300.181C346.061 137.334 325.216 5.31934 299.502 5.31934C273.788 5.31934 252.942 137.334 252.942 300.181C252.942 463.029 273.788 595.043 299.502 595.043Z" stroke="#F6A616" stroke-width="1.5" stroke-miterlimit="10"/>
                <path d="M298.762 346.739C461.209 346.739 592.898 325.895 592.898 300.182C592.898 274.469 461.209 253.625 298.762 253.625C136.315 253.625 4.62598 274.469 4.62598 300.182C4.62598 325.895 136.315 346.739 298.762 346.739Z" stroke="#F6A616" stroke-width="1.5" stroke-miterlimit="10"/>
                <path d="M342.084 316.878C401.418 165.482 430.25 35.201 406.483 25.887C382.715 16.573 315.348 131.753 256.014 283.149C196.68 434.545 167.847 564.826 191.615 574.14C215.383 583.454 282.75 468.274 342.084 316.878Z" stroke="#F6A616" stroke-width="1.5" stroke-miterlimit="10"/>
                <path d="M565.295 404.047C574.485 380.307 459.338 313.608 308.107 255.069C156.877 196.531 26.8298 168.321 17.6398 192.061C8.44992 215.8 123.597 282.5 274.828 341.038C426.059 399.576 556.106 427.786 565.295 404.047Z" stroke="#F6A616" stroke-width="1.5" stroke-miterlimit="10"/>
                <path d="M331.803 332.75C446.789 217.77 525.37 109.928 507.319 91.8781C489.268 73.8282 381.421 152.406 266.436 267.386C151.45 382.366 72.8693 490.208 90.92 508.258C108.971 526.308 216.818 447.731 331.803 332.75Z" stroke="#F6A616" stroke-width="1.5" stroke-miterlimit="10"/>
                <path d="M507.319 508.261C525.37 490.211 446.789 382.368 331.803 267.388C216.818 152.408 108.971 73.8304 90.92 91.8802C72.8693 109.93 151.45 217.772 266.436 332.753C381.421 447.733 489.268 526.31 507.319 508.261Z" stroke="#F6A616" stroke-width="1.5" stroke-miterlimit="10"/>
                <path d="M316.489 342.875C467.166 281.724 581.532 212.978 571.932 189.326C562.332 165.673 432.402 196.071 281.724 257.221C131.047 318.371 16.6817 387.118 26.2817 410.77C35.8816 434.423 165.812 404.025 316.489 342.875Z" stroke="#F6A616" stroke-width="1.5" stroke-miterlimit="10"/>
                <path d="M409.832 572.861C433.486 563.262 403.087 433.337 341.934 282.667C280.781 131.997 212.031 17.6362 188.378 27.2357C164.724 36.8352 195.123 166.76 256.276 317.43C317.429 468.1 386.179 582.461 409.832 572.861Z" stroke="#F6A616" stroke-width="1.5" stroke-miterlimit="10"/>
                <path d="M360.546 588.441C385.548 583.287 379.196 450.005 346.359 290.748C313.522 131.491 266.634 6.56681 241.633 11.7214C216.631 16.876 222.983 150.158 255.82 309.415C288.657 468.672 335.545 593.596 360.546 588.441Z" stroke="#F6A616" stroke-width="1.5" stroke-miterlimit="10"/>
                <path d="M310.421 345.349C469.685 312.514 594.615 265.628 589.46 240.628C584.306 215.627 451.018 221.979 291.754 254.814C132.49 287.65 7.55969 334.535 12.7145 359.536C17.8694 384.537 151.157 378.185 310.421 345.349Z" stroke="#F6A616" stroke-width="1.5" stroke-miterlimit="10"/>
                <path d="M346.541 307.828C374.08 147.57 376.009 14.1504 350.85 9.82748C325.692 5.5046 282.972 131.915 255.433 292.173C227.895 452.431 225.966 585.85 251.124 590.173C276.283 594.496 319.003 468.085 346.541 307.828Z" stroke="#F6A616" stroke-width="1.5" stroke-miterlimit="10"/>
                <path d="M591.172 349.861C595.495 324.703 469.079 281.985 308.814 254.448C148.548 226.911 15.1234 224.982 10.8003 250.139C6.47721 275.297 132.893 318.015 293.158 345.552C453.423 373.09 586.849 375.019 591.172 349.861Z" stroke="#F6A616" stroke-width="1.5" stroke-miterlimit="10"/>
                <path d="M343.565 319.107C433.003 182.518 488.123 60.4087 466.68 46.3692C445.237 32.3296 355.35 131.676 265.913 268.266C176.475 404.855 121.355 526.964 142.798 541.004C164.241 555.043 254.128 455.697 343.565 319.107Z" stroke="#F6A616" stroke-width="1.5" stroke-miterlimit="10"/>
                <path d="M547.05 461.931C561.084 440.608 462.344 350.855 326.508 261.461C190.672 172.068 69.1787 116.886 55.1449 138.209C41.1111 159.532 139.851 249.285 275.687 338.678C411.523 428.072 533.016 483.254 547.05 461.931Z" stroke="#F6A616" stroke-width="1.5" stroke-miterlimit="10"/>
                <path d="M326.746 338.477C461.971 248.161 560.097 157.738 545.919 136.511C531.74 115.284 410.625 171.292 275.401 261.607C140.177 351.923 42.0497 442.346 56.2284 463.573C70.407 484.8 191.522 428.793 326.746 338.477Z" stroke="#F6A616" stroke-width="1.5" stroke-miterlimit="10"/>
                <path d="M464.611 544.877C485.839 530.699 429.829 409.589 339.509 274.371C249.189 139.153 158.762 41.0303 137.534 55.2083C116.306 69.3863 172.316 190.496 262.636 325.714C352.956 460.932 443.383 559.055 464.611 544.877Z" stroke="#F6A616" stroke-width="1.5" stroke-miterlimit="10"/>
            </mask>
            <g mask="url(#mask0_1105_47668)">
                <rect x="-0.330078" y="2.13477" width="600.018" height="593.339" fill="url(#paint0_radial_1105_47668)"/>
            </g>
            <defs>
                <radialGradient id="paint0_radial_1105_47668" cx="0" cy="0" r="1" gradientUnits="userSpaceOnUse" gradientTransform="translate(273.964 298.281) rotate(85.0547) scale(298.303 301.558)">
                    <stop stop-color="#F08119"/>
                    <stop offset="1" stop-color="#9536DF"/>
                </radialGradient>
            </defs>
        </g>
        <animateTransform attributeName="transform" attributeType="XML" type="rotate" dur="12s" from="0 300 300" to="360 300 300" repeatCount="indefinite">
        </animateTransform>
    </g>
</svg>
