<svg width="600" height="600" viewBox="0 0 600 600" fill="none" xmlns="http://www.w3.org/2000/svg">
    <g>
        <g>
            <mask id="mask0_1428_50992" style="mask-type:alpha" maskUnits="userSpaceOnUse" x="0" y="0" width="600" height="600">
                <g id="1">
                    <path d="M157.094 570C136.224 570.002 116.841 566.064 99.3207 558.019C51.4902 536.055 25.7863 485.238 30.5662 422.083C36.4242 344.704 90.1573 244.758 167.456 167.457C244.764 90.1567 344.71 36.4237 422.085 30.5658C485.204 25.7881 536.055 51.4896 558.021 99.3223C595.183 180.258 544.702 301.251 422.976 422.976C327.595 518.356 232.656 569.996 157.094 570ZM422.169 31.704L422.254 32.8421C345.392 38.66 246.011 92.1323 169.069 169.07C92.1308 246.008 38.6605 345.39 32.8381 422.257C28.1339 484.42 53.3433 534.398 100.274 555.948C180.312 592.697 300.337 542.392 421.363 421.364C542.385 300.34 592.697 180.307 555.945 100.276C534.398 53.3473 484.438 28.1335 422.254 32.8421L422.169 31.704Z"
                          fill="#231F20"/>
                    <animateTransform attributeName="transform"
                                      attributeType="XML"
                                      type="translate"
                                      values="0 0;-10 -10; 0 0"
                                      dur="8s"
                                      repeatCount="indefinite">
                    </animateTransform>
                </g>
                <g id="2">
                    <path d="M154.386 531.704C136.095 531.704 119.269 528.428 104.306 521.853C63.1485 503.769 40.8436 462.843 43.1111 409.574C46.1091 339.135 97.0892 242.844 169.964 169.967C242.844 97.0922 339.133 46.1123 409.576 43.1098C462.926 40.878 503.772 63.1472 521.853 104.304C536.585 137.831 534.768 180.741 516.601 228.398C495.98 282.485 455.981 339.452 397.718 397.717C339.454 455.981 282.487 495.98 228.397 516.598C202.012 526.657 177.074 531.704 154.386 531.704ZM409.674 45.3906C339.761 48.3686 244.078 99.079 171.577 171.58C99.0761 244.08 48.3633 339.764 45.3919 409.672C43.1646 461.952 64.9705 502.078 105.224 519.764C177.952 551.724 286.705 505.502 396.105 396.105C505.5 286.71 551.727 177.968 519.764 105.222C502.079 64.9714 461.977 43.1588 409.674 45.3906Z"
                          fill="#231F20"/>
                    <animateTransform attributeName="transform"
                                      attributeType="XML"
                                      type="translate"
                                      values="0 0;5 -1; 0 0"
                                      dur="8s"
                                      repeatCount="indefinite">
                    </animateTransform>
                </g>
                <g id="3">
                    <path d="M153.515 497.846C137.737 497.846 123.214 495.146 110.255 489.725C75.2454 475.08 55.3461 441.309 55.6579 397.071C56.1167 332.29 103.11 242.082 172.595 172.597C242.084 103.108 332.293 56.1151 397.069 55.6607L397.078 56.8011L397.069 55.6607C397.412 55.6585 397.751 55.6562 398.09 55.6562C441.831 55.6562 475.192 75.5199 489.724 110.26C502.442 140.652 500.188 179.714 483.206 223.219C464.064 272.267 427.91 323.586 375.749 375.749C323.584 427.911 272.265 464.068 223.214 483.21C198.254 492.95 174.751 497.844 153.515 497.846ZM398.09 57.9371C397.755 57.9371 397.421 57.9393 397.087 57.9415C332.868 58.3915 243.301 105.117 174.208 174.21C105.114 243.298 58.3931 332.867 57.9387 397.089C57.6314 440.353 77.0228 473.352 111.137 487.622C162.073 508.941 257.943 490.329 374.136 374.136C490.321 257.948 508.941 162.1 487.621 111.14C473.459 77.2906 440.86 57.9371 398.09 57.9371Z"
                          fill="#231F20"/>
                    <animateTransform attributeName="transform"
                                      attributeType="XML"
                                      type="translate"
                                      values="0 0;19 10; 0 0"
                                      dur="8s"
                                      repeatCount="indefinite">
                    </animateTransform>
                </g>
                <g id="4">
                    <path d="M153.729 467.269C139.652 467.269 127.317 464.941 116.973 460.845C86.6855 448.85 69.3655 421.761 68.2028 384.564C66.3541 325.361 109.414 241.28 175.348 175.343C241.283 109.405 325.46 66.3585 384.57 68.2028C421.767 69.3655 448.856 86.6832 460.848 116.969C479.376 163.754 461.686 251.234 356.46 356.457C274.506 438.411 203.311 467.269 153.729 467.269ZM380.837 70.4257C322.448 70.4257 241.127 112.79 176.961 176.956C111.445 242.476 68.6527 325.878 70.4836 384.493C71.6151 420.723 88.4229 447.086 117.811 458.724C163.922 476.989 250.411 459.283 354.848 354.845C459.289 250.403 476.992 163.919 458.728 117.808C447.092 88.4228 420.729 71.6151 384.498 70.4836C383.291 70.4457 382.071 70.4257 380.837 70.4257Z"
                          fill="#231F20"/>
                    <animateTransform attributeName="transform"
                                      attributeType="XML"
                                      type="translate"
                                      values="0 0;34 21; 0 0"
                                      dur="8s"
                                      repeatCount="indefinite">
                    </animateTransform>
                </g>
                <g id="5">
                    <path d="M155.721 439.813C143.747 439.813 133.207 437.942 124.293 434.621C98.4466 424.996 82.9797 402.781 80.7524 372.063C76.85 318.337 116.025 240.442 178.231 178.231C240.442 116.025 318.266 76.8639 372.066 80.7484C402.781 82.9802 424.997 98.4426 434.624 124.291C450.345 166.515 433.586 245.195 339.39 339.388C265.09 413.69 200.438 439.813 155.721 439.813ZM364.845 82.7753C312.711 82.7753 237.974 121.719 179.844 179.844C119.041 240.649 79.2289 319.624 83.0243 371.898C85.1893 401.674 100.126 423.19 125.086 432.485C166.671 447.967 244.353 431.2 337.778 337.775C431.207 244.346 447.961 166.647 432.486 125.086C423.188 100.124 401.672 85.1853 371.897 83.0248C369.598 82.8577 367.246 82.7753 364.845 82.7753Z"
                          fill="#231F20"/>
                    <animateTransform attributeName="transform"
                                      attributeType="XML"
                                      type="translate"
                                      values="0 0;44 31; 0 0"
                                      dur="8s"
                                      repeatCount="indefinite">
                    </animateTransform>
                </g>
                <g id="6">
                    <path d="M158.637 414.704C148.587 414.704 139.691 413.227 132.095 410.59C110.04 402.93 96.2615 384.812 93.2991 359.572C87.7084 311.971 123.881 238.65 181.267 181.269C238.64 123.886 311.916 87.7131 359.568 93.3016C384.809 96.2662 402.926 110.045 410.584 132.098C423.752 170.016 407.969 240.39 324.18 324.181C257.176 391.183 198.747 414.701 158.637 414.704ZM349.429 95.0122C302.596 95.0122 235.949 129.813 182.88 182.882C125.957 239.804 90.0471 312.352 95.5621 359.305C98.422 383.63 111.662 401.079 132.844 408.434C179.659 424.693 254.138 390.993 322.567 322.569C390.992 254.144 424.692 179.674 408.432 132.846C401.073 111.664 383.628 98.4245 359.301 95.569C356.125 95.1948 352.828 95.0122 349.429 95.0122Z"
                          fill="#231F20"/>
                    <animateTransform attributeName="transform"
                                      attributeType="XML"
                                      type="translate"
                                      values="0 0;55 38; 0 0"
                                      dur="8s"
                                      repeatCount="indefinite">
                    </animateTransform>
                </g>
                <g id="7">
                    <path d="M162.175 391.585C154.348 391.585 147.02 390.534 140.293 388.378C121.24 382.264 109.333 367.984 105.858 347.08C98.8107 304.667 131.134 237.797 184.462 184.463C237.799 131.131 304.7 98.7981 347.083 105.859C367.989 109.334 382.266 121.241 388.378 140.298C402.014 182.805 371.459 249.631 310.545 310.545C259.271 361.821 203.796 391.585 162.175 391.585ZM334.761 107.171C293.078 107.171 234.119 138.033 186.075 186.075C133.233 238.922 101.172 304.974 108.112 346.706C111.431 366.712 122.804 380.37 140.993 386.204C182.68 399.575 248.61 369.249 308.932 308.932C369.249 248.615 399.582 182.696 386.209 140.993C380.373 122.805 366.715 111.434 346.708 108.108C342.917 107.478 338.921 107.171 334.761 107.171Z"
                          fill="#231F20"/>
                    <animateTransform attributeName="transform"
                                      attributeType="XML"
                                      type="translate"
                                      values="0 0;68 46; 0 0"
                                      dur="8s"
                                      repeatCount="indefinite">
                    </animateTransform>
                </g>
                <g id="8">
                    <path d="M166.696 370.101C160.33 370.103 154.339 369.313 148.801 367.691C132.631 362.958 122.122 351.512 118.411 334.59C110.219 297.24 138.76 236.889 187.821 187.825C236.881 138.767 297.216 110.224 334.587 118.416C351.506 122.127 362.954 132.635 367.685 148.808C378.688 186.397 351.43 245.055 298.24 298.244C252.887 343.598 203.55 370.099 166.696 370.101ZM321.316 119.347C284.783 119.347 231.936 146.937 189.433 189.438C141.665 237.21 112.731 298.05 120.639 334.1C124.158 350.157 134.119 361.016 149.443 365.502C186.217 376.273 244.013 349.244 296.628 296.632C349.238 244.021 376.27 186.248 365.498 149.447C361.012 134.125 350.156 124.165 334.097 120.643C330.123 119.772 325.842 119.347 321.316 119.347Z"
                          fill="#231F20"/>
                    <animateTransform attributeName="transform"
                                      attributeType="XML"
                                      type="translate"
                                      values="0 0;79 52; 0 0"
                                      dur="8s"
                                      repeatCount="indefinite">
                    </animateTransform>
                </g>
                <g id="9">
                    <path d="M171.849 350.028C166.797 350.028 162.022 349.458 157.571 348.287C143.931 344.698 134.736 335.642 130.972 322.095C122.12 290.197 147.521 235.217 191.374 191.364C235.226 147.514 290.198 122.096 322.103 130.969C335.65 134.729 344.706 143.924 348.297 157.562C356.943 190.42 332.919 241.262 287.093 287.088C247.477 326.708 204.106 350.028 171.849 350.028ZM308.044 131.473C276.259 131.473 230.58 155.384 192.986 192.977C149.677 236.284 124.522 290.331 133.173 321.485C136.705 334.205 145.343 342.712 158.155 346.082C190.211 354.525 240.22 330.739 285.48 285.475C330.745 240.21 354.533 190.231 346.092 158.143C342.719 145.334 334.215 136.696 321.497 133.166C317.385 132.025 312.873 131.473 308.044 131.473Z"
                          fill="#231F20"/>
                    <animateTransform attributeName="transform"
                                      attributeType="XML"
                                      type="translate"
                                      values="0 0;87 60; 0 0"
                                      dur="8s"
                                      repeatCount="indefinite">
                    </animateTransform>
                </g>
                <g id="10">
                    <path d="M177.558 331.189C173.678 331.189 169.994 330.797 166.532 329.993C155.142 327.349 147.19 320.304 143.541 309.622C134.253 282.446 155.948 234.29 195.119 195.117C234.289 155.949 282.427 134.268 309.619 143.538C320.306 147.191 327.349 155.143 329.995 166.534C336.557 194.812 315.735 238.15 276.943 276.942C242.9 310.985 205.351 331.189 177.558 331.189ZM295.408 143.652C268.248 143.652 229.416 164.048 196.731 196.73C158.14 235.319 136.681 282.486 145.698 308.882C149.083 318.783 156.465 325.316 167.045 327.772C194.602 334.165 237.082 313.575 275.331 275.329C313.579 237.081 334.164 194.578 327.772 167.048C325.317 156.464 318.782 149.082 308.879 145.699C304.843 144.318 300.313 143.652 295.408 143.652Z"
                          fill="#231F20"/>
                    <animateTransform attributeName="transform"
                                      attributeType="XML"
                                      type="translate"
                                      values="0 0;95 69; 0 0"
                                      dur="8s"
                                      repeatCount="indefinite">
                    </animateTransform>
                </g>
                <g id="11">
                    <path d="M183.79 313.391C180.943 313.391 178.226 313.14 175.647 312.625C166.274 310.754 159.521 305.399 156.108 297.136C146.789 274.539 164.862 233.3 199.083 199.078C233.305 164.855 274.533 146.78 297.141 156.108C305.4 159.516 310.759 166.272 312.63 175.644C317.383 199.466 299.734 235.583 267.66 267.655C239.056 296.256 207.235 313.391 183.79 313.391ZM283.799 155.997C261.129 155.997 228.146 173.243 200.696 200.691C167.637 233.747 149.377 274.836 158.22 296.267C161.325 303.791 167.504 308.674 176.092 310.389C199.19 314.991 234.49 297.597 266.047 266.042C297.595 234.494 315 199.185 310.389 176.09C308.679 167.501 303.792 161.32 296.268 158.215C292.633 156.716 288.432 155.997 283.799 155.997Z"
                          fill="#231F20"/>
                    <animateTransform attributeName="transform"
                                      attributeType="XML"
                                      type="translate"
                                      values="0 0;101 74; 0 0"
                                      dur="8s"
                                      repeatCount="indefinite">
                    </animateTransform>
                </g>
                <g id="12">
                    <path d="M190.515 296.522C188.555 296.522 186.67 296.375 184.866 296.075C177.337 294.825 171.742 290.883 168.691 284.673C159.906 266.791 174.776 231.806 203.286 203.294C231.797 174.783 266.771 159.911 284.666 168.698C290.876 171.752 294.818 177.345 296.07 184.878C299.295 204.336 284.799 233.488 259.14 259.147C235.859 282.43 209.697 296.522 190.515 296.522ZM272.326 168.402C254.008 168.402 227.48 182.328 204.899 204.906C177.048 232.762 162.361 266.62 170.74 283.666C173.489 289.268 178.371 292.685 185.24 293.825C204.048 296.95 232.371 282.688 257.527 257.534C282.683 232.379 296.93 204.006 293.816 185.25C292.68 178.378 289.258 173.498 283.659 170.747C280.434 169.162 276.603 168.402 272.326 168.402Z"
                          fill="#231F20"/>
                    <animateTransform attributeName="transform"
                                      attributeType="XML"
                                      type="translate"
                                      values="0 0;107 78; 0 0"
                                      dur="8s"
                                      repeatCount="indefinite">
                    </animateTransform>
                </g>
                <g id="13">
                    <path d="M197.705 280.422C196.48 280.422 195.295 280.346 194.146 280.197C188.319 279.435 183.869 276.665 181.272 272.19C173.333 258.487 184.711 230.783 207.746 207.75C230.777 184.721 258.481 173.337 272.184 181.278C276.661 183.87 279.432 188.323 280.194 194.152C282.181 209.318 270.834 231.748 251.291 251.293C233.223 269.359 212.687 280.42 197.705 280.422ZM261.675 181.048C247.576 181.048 226.844 191.88 209.359 209.363C187.397 231.324 175.93 258.418 183.245 271.045C185.504 274.941 189.272 277.259 194.444 277.936C208.927 279.816 230.612 268.742 249.679 249.68C268.741 230.618 279.828 208.937 277.931 194.448C277.254 189.274 274.937 185.507 271.044 183.251C268.469 181.759 265.288 181.048 261.675 181.048Z"
                          fill="#231F20"/>
                    <animateTransform attributeName="transform"
                                      attributeType="XML"
                                      type="translate"
                                      values="0 0;112 82; 0 0"
                                      dur="8s"
                                      repeatCount="indefinite">
                    </animateTransform>
                </g>
                <g id="14">
                    <path d="M205.345 265.018C204.694 265.018 204.057 264.989 203.438 264.929C199.211 264.528 195.901 262.726 193.856 259.715C187.267 250.006 195.277 229.706 212.486 212.497C229.69 195.288 249.986 187.286 259.706 193.87C262.713 195.912 264.517 199.226 264.918 203.45C265.956 214.388 257.755 230.32 244.03 244.043C231.084 256.989 216.174 265.018 205.345 265.018ZM251.229 193.836C241.29 193.836 226.696 201.512 214.098 214.11C197.919 230.289 189.856 249.759 195.745 258.434C197.415 260.9 200.075 262.321 203.652 262.66C213.974 263.644 229.155 255.695 242.417 242.431C255.683 229.169 263.622 213.954 262.646 203.666C262.308 200.091 260.887 197.429 258.423 195.758C256.503 194.455 254.053 193.836 251.229 193.836Z"
                          fill="#231F20"/>
                    <animateTransform attributeName="transform"
                                      attributeType="XML"
                                      type="translate"
                                      values="0 0;115 84; 0 0"
                                      dur="8s"
                                      repeatCount="indefinite">
                    </animateTransform>
                </g>

            </mask>
            <g mask="url(#mask0_1428_50992)">
                <rect width="600" height="600" fill="url(#paint0_radial_1428_50992)"/>
            </g>
            <defs>
                <radialGradient id="paint0_radial_1428_50992" cx="0" cy="0" r="1" gradientUnits="userSpaceOnUse"
                                gradientTransform="translate(274.286 299.471) rotate(114.375) scale(255.787 190.945)">
                    <stop stop-color="#F08119"/>
                    <stop offset="1" stop-color="#9536DF"/>
                </radialGradient>
            </defs>
        </g>
        <animateTransform attributeName="transform"
                          attributeType="XML"
                          type="translate"
                          values="0 0;-20 -20; 0 0"
                          dur="8s"
                          repeatCount="indefinite">
        </animateTransform>
    </g>

</svg>

