<svg width="540" height="540" viewBox="0 0 540 540" fill="none" xmlns="http://www.w3.org/2000/svg">
<mask id="mask0_1428_51128" style="mask-type:alpha" maskUnits="userSpaceOnUse" x="0" y="0" width="540" height="540">
    <path d="M127.094 540C106.224 540.002 86.8412 536.064 69.3207 528.019C21.4902 506.055 -4.21371 455.238 0.566223 392.083C6.42421 314.704 60.1573 214.758 137.456 137.457C214.764 60.1567 314.71 6.42374 392.085 0.565772C455.204 -4.21192 506.055 21.4896 528.021 69.3223C565.183 150.258 514.702 271.251 392.976 392.976C297.595 488.356 202.656 539.996 127.094 540ZM392.169 1.70395L392.254 2.84214C315.392 8.66001 216.011 62.1323 139.069 139.07C62.1308 216.008 8.66049 315.39 2.83814 392.257C-1.86607 454.42 23.3433 504.398 70.274 525.948C150.312 562.697 270.337 512.392 391.363 391.363C512.385 270.34 562.697 150.307 525.945 70.2756C504.398 23.3472 454.438 -1.86651 392.254 2.84214L392.169 1.70395Z" fill="#231F20"/>
    <path d="M140.534 510.925C122.243 510.925 105.417 507.648 90.4539 501.073C49.2965 482.989 26.9916 442.064 29.2591 388.794C32.2571 318.356 83.2372 222.065 156.112 149.188C228.992 76.3127 325.281 25.3327 395.724 22.3303C449.074 20.0984 489.92 42.3676 508.001 83.5249C522.733 117.051 520.916 159.961 502.749 207.618C482.128 261.705 442.129 318.672 383.866 376.938C325.602 435.201 268.635 475.2 214.545 495.819C188.16 505.878 163.222 510.925 140.534 510.925ZM395.822 24.6111C325.909 27.5891 230.226 78.2995 157.725 150.8C85.224 223.301 34.5112 318.984 31.5399 388.892C29.3125 441.173 51.1185 481.299 91.3715 498.984C164.1 530.944 272.853 484.722 382.253 375.325C491.648 265.93 537.875 157.188 505.912 84.4425C488.227 44.1918 448.125 22.3793 395.822 24.6111Z" fill="#231F20"/>
    <path d="M153.505 488.59C137.726 488.59 123.203 485.891 110.245 480.469C75.2347 465.825 55.3353 432.053 55.6472 387.816C56.106 323.035 103.099 232.827 172.584 163.342C242.074 93.8524 332.282 46.8595 397.059 46.4051L397.068 47.5455L397.059 46.4051C397.402 46.4029 397.74 46.4006 398.079 46.4006C441.82 46.4006 475.182 66.2643 489.713 101.004C502.431 131.397 500.177 170.458 483.196 213.963C464.054 263.012 427.899 314.33 375.738 366.493C323.573 418.656 272.255 454.812 223.203 473.954C198.243 483.695 174.74 488.588 153.505 488.59ZM398.079 48.6815C397.745 48.6815 397.411 48.6837 397.077 48.6859C332.857 49.1358 243.29 95.8615 174.197 164.954C105.104 234.043 58.3824 323.612 57.928 387.833C57.6206 431.098 77.0121 464.096 111.127 478.367C162.062 499.685 257.933 481.073 374.126 364.88C490.31 248.692 508.931 152.844 487.61 101.884C473.449 68.035 440.849 48.6815 398.079 48.6815Z" fill="#231F20"/>
    <path d="M169.882 469.556C155.805 469.556 143.47 467.229 133.126 463.133C102.838 451.138 85.5178 424.049 84.3551 386.852C82.5064 327.649 125.566 243.568 191.501 177.631C257.435 111.692 341.612 68.6464 400.722 70.4906C437.919 71.6533 465.009 88.9711 477.001 119.257C495.528 166.042 477.838 253.522 372.613 358.745C290.659 440.699 219.463 469.556 169.882 469.556ZM396.989 72.7135C338.601 72.7135 257.279 115.078 193.113 179.244C127.597 244.764 84.8051 328.166 86.636 386.781C87.7675 423.011 104.575 449.374 133.963 461.012C180.074 479.277 266.563 461.571 371 357.132C475.442 252.691 493.145 166.207 474.88 120.096C463.244 90.7106 436.881 73.9029 400.651 72.7714C399.444 72.7336 398.223 72.7135 396.989 72.7135Z" fill="#231F20"/>
    <path d="M182.262 452.774C170.288 452.774 159.748 450.903 150.834 447.582C124.988 437.957 109.521 415.741 107.293 385.024C103.391 331.298 142.566 253.402 204.772 191.192C266.983 128.986 344.807 89.8246 398.607 93.7091C429.322 95.9409 451.538 111.403 461.165 137.252C476.886 179.476 460.127 258.155 365.931 352.348C291.631 426.651 226.979 452.774 182.262 452.774ZM391.386 95.736C339.252 95.736 264.515 134.679 206.385 192.805C145.582 253.609 105.77 332.585 109.565 384.859C111.73 414.634 126.667 436.151 151.627 445.446C193.212 460.928 270.894 444.16 364.319 350.736C457.748 257.307 474.502 179.607 459.027 138.047C449.73 113.085 428.213 98.146 398.438 95.9855C396.139 95.8184 393.787 95.736 391.386 95.736Z" fill="#231F20"/>
    <path d="M195.741 434.919C185.691 434.919 176.795 433.443 169.2 430.805C147.144 423.146 133.366 405.028 130.404 379.788C124.813 332.187 160.985 258.866 218.371 201.485C275.744 144.101 349.02 107.929 396.673 113.517C421.913 116.482 440.031 130.26 447.688 152.314C460.856 190.232 445.073 260.606 361.284 344.397C294.28 411.398 235.852 434.917 195.741 434.919ZM386.534 115.228C339.701 115.228 273.053 150.028 219.984 203.098C163.061 260.02 127.152 332.568 132.667 379.52C135.526 403.845 148.766 421.295 169.948 428.649C216.763 444.909 291.242 411.209 359.671 342.784C428.096 274.36 461.796 199.89 445.537 153.062C438.177 131.88 420.733 118.64 396.405 115.785C393.229 115.411 389.932 115.228 386.534 115.228Z" fill="#231F20"/>
    <path d="M212.964 420.044C205.137 420.044 197.809 418.993 191.082 416.837C172.029 410.723 160.122 396.443 156.647 375.539C149.6 333.126 181.923 266.256 235.251 212.922C288.588 159.59 355.489 127.257 397.872 134.318C418.778 137.793 433.055 149.7 439.167 168.758C452.803 211.265 422.248 278.09 361.334 339.004C310.06 390.28 254.585 420.044 212.964 420.044ZM385.55 135.63C343.867 135.63 284.908 166.492 236.864 214.534C184.022 267.381 151.961 333.433 158.901 375.165C162.22 395.171 173.593 408.83 191.782 414.663C233.469 428.034 299.399 397.708 359.721 337.391C420.038 277.074 450.371 211.155 436.998 169.453C431.162 151.264 417.504 139.893 397.497 136.568C393.706 135.937 389.71 135.63 385.55 135.63Z" fill="#231F20"/>
    <path d="M229.025 404.134C222.659 404.136 216.668 403.345 211.131 401.724C194.96 396.991 184.451 385.544 180.74 368.623C172.548 331.272 201.09 270.922 250.15 221.857C299.21 172.8 359.545 144.256 396.916 152.448C413.835 156.159 425.283 166.668 430.014 182.841C441.018 220.43 413.759 279.087 360.569 332.277C315.216 377.63 265.879 404.131 229.025 404.134ZM383.645 153.379C347.112 153.379 294.265 180.97 251.762 223.47C203.994 271.242 175.06 332.083 182.968 368.133C186.487 384.19 196.448 395.048 211.772 399.534C248.546 410.306 306.342 383.277 358.957 330.664C411.567 278.054 438.599 220.28 427.827 183.48C423.341 168.158 412.485 158.197 396.426 154.676C392.452 153.805 388.171 153.379 383.645 153.379Z" fill="#231F20"/>
    <path d="M242.425 393.11C237.373 393.11 232.598 392.54 228.147 391.368C214.507 387.78 205.312 378.724 201.548 365.177C192.697 333.279 218.098 278.299 261.95 234.446C305.803 190.596 360.774 165.177 392.679 174.051C406.226 177.811 415.282 187.006 418.873 200.644C427.519 233.502 403.495 284.344 357.669 330.169C318.053 369.79 274.682 393.11 242.425 393.11ZM378.62 174.555C346.835 174.555 301.156 198.465 263.563 236.059C220.254 279.365 195.098 333.412 203.749 364.567C207.281 377.287 215.919 385.793 228.731 389.163C260.787 397.607 310.796 373.821 356.056 328.557C401.321 283.292 425.109 233.312 416.668 201.225C413.295 188.415 404.791 179.778 392.073 176.247C387.961 175.107 383.449 174.555 378.62 174.555Z" fill="#231F20"/>
    <path d="M256.278 383.663C252.398 383.663 248.713 383.271 245.252 382.467C233.861 379.823 225.91 372.778 222.261 362.096C212.973 334.92 234.668 286.764 273.838 247.591C313.009 208.423 361.147 186.742 388.339 196.012C399.025 199.665 406.068 207.617 408.715 219.008C415.276 247.286 394.455 290.624 355.663 329.416C321.62 363.459 284.071 383.663 256.278 383.663ZM374.128 196.126C346.967 196.126 308.135 216.522 275.451 249.204C236.859 287.793 215.401 334.96 224.417 361.356C227.803 371.257 235.184 377.79 245.764 380.247C273.321 386.639 315.802 366.049 354.05 327.803C392.299 289.555 412.884 247.052 406.492 219.522C404.037 208.938 397.502 201.556 387.599 198.173C383.563 196.792 379.033 196.126 374.128 196.126Z" fill="#231F20"/>
    <path d="M269.012 371.059C266.165 371.059 263.448 370.807 260.868 370.293C251.496 368.422 244.742 363.067 241.33 354.804C232.011 332.207 250.084 290.967 284.305 256.746C318.526 222.523 359.755 204.448 382.363 213.776C390.622 217.184 395.981 223.939 397.852 233.312C402.605 257.134 384.955 293.25 352.881 325.322C324.277 353.924 292.457 371.059 269.012 371.059ZM369.021 213.664C346.351 213.664 313.368 230.911 285.917 258.359C252.859 291.415 234.599 332.503 243.442 353.935C246.546 361.459 252.725 366.341 261.314 368.057C284.412 372.658 319.711 355.265 351.269 323.71C382.817 292.161 400.222 256.853 395.611 233.758C393.9 225.169 389.014 218.988 381.49 215.883C377.854 214.384 373.654 213.664 369.021 213.664Z" fill="#231F20"/>
    <path d="M281.748 357.76C279.788 357.76 277.904 357.613 276.099 357.312C268.571 356.063 262.976 352.12 259.924 345.91C251.139 328.029 266.009 293.044 294.52 264.531C323.03 236.021 358.004 221.149 375.899 229.936C382.109 232.99 386.051 238.583 387.303 246.116C390.528 265.574 376.033 294.726 350.373 320.385C327.093 343.668 300.93 357.76 281.748 357.76ZM363.559 229.64C345.241 229.64 318.713 243.565 296.132 266.144C268.281 294 253.594 327.858 261.973 344.904C264.722 350.506 269.604 353.922 276.474 355.063C295.282 358.188 323.605 343.926 348.761 318.772C373.917 293.616 388.163 265.244 385.049 246.488C383.913 239.616 380.492 234.736 374.892 231.985C371.667 230.399 367.836 229.64 363.559 229.64Z" fill="#231F20"/>
    <path d="M293.277 343.727C292.052 343.727 290.867 343.651 289.718 343.502C283.891 342.74 279.441 339.969 276.844 335.494C268.906 321.792 280.283 294.088 303.318 271.055C326.349 248.026 354.054 236.642 367.756 244.582C372.233 247.175 375.004 251.628 375.766 257.457C377.753 272.623 366.407 295.052 346.864 314.597C328.795 332.663 308.259 343.725 293.277 343.727ZM357.248 244.353C343.148 244.353 322.416 255.185 304.931 272.667C282.969 294.629 271.503 321.723 278.817 334.35C281.076 338.245 284.845 340.564 290.017 341.241C304.499 343.121 326.185 332.047 345.251 312.985C364.313 293.923 375.401 272.242 373.503 257.753C372.826 252.579 370.509 248.812 366.616 246.556C364.041 245.063 360.86 244.353 357.248 244.353Z" fill="#231F20"/>
    <path d="M303.61 330.541C302.96 330.541 302.323 330.512 301.704 330.452C297.476 330.051 294.166 328.249 292.122 325.238C285.533 315.529 293.543 295.229 310.751 278.02C327.956 260.811 348.251 252.809 357.972 259.393C360.979 261.435 362.783 264.749 363.184 268.973C364.222 279.911 356.021 295.843 342.295 309.566C329.35 322.512 314.44 330.541 303.61 330.541ZM349.494 259.359C339.556 259.359 324.962 267.035 312.364 279.633C296.184 295.812 288.121 315.282 294.01 323.957C295.681 326.423 298.341 327.844 301.918 328.183C312.239 329.167 327.421 321.218 340.683 307.954C353.949 294.692 361.887 279.477 360.912 269.189C360.573 265.614 359.152 262.952 356.689 261.281C354.769 259.978 352.319 259.359 349.494 259.359Z" fill="#231F20"/>
</mask>
<g mask="url(#mask0_1428_51128)">
    <rect x="-6.82275" y="-75.3213" width="647.394" height="638.387" fill="url(#paint0_radial_1428_51128)"/>
</g>
<defs>
    <radialGradient id="paint0_radial_1428_51128" cx="0" cy="0" r="1" gradientUnits="userSpaceOnUse" gradientTransform="translate(289.129 243.309) rotate(114.678) scale(272.809 205.531)">
        <stop stop-color="#F08119"/>
        <stop offset="1" stop-color="#9536DF"/>
    </radialGradient>
</defs>
</svg>

