<svg width="600" height="604" viewBox="0 0 600 604" fill="none" xmlns="http://www.w3.org/2000/svg">
    <g>
    <g>
    <mask id="mask0_1100_47087" style="mask-type:alpha" maskUnits="userSpaceOnUse" x="41" y="0" width="519"
          height="604">
        <path d="M42 155.688L302.136 302.017M42 155.688V230.896M42 155.688L107.034 117.266M42 456.522V379.27M42 456.522L302.136 302.017M42 456.522L105.079 491.807M302.136 602.034V302.017M302.136 602.034L235.371 564.688M302.136 602.034L367.854 564.806M559 456.522V379.27M559 456.522L495.085 492.73M559 456.522L302.136 302.017M559 155.688L302.136 302.017M559 155.688L495.085 117.446M559 155.688V230.896M302.136 2V302.017M302.136 2L367.854 41.3203M302.136 2L237.102 40.4219M42 230.896L367.854 41.3203M42 230.896V302.017M42 230.896L495.085 492.73M367.854 41.3203L431.17 79.2041M367.854 41.3203V564.806M431.17 79.2041L42 302.017M431.17 79.2041L495.085 117.446M431.17 79.2041V528.937M42 302.017V379.27M42 302.017L431.17 528.937M42 379.27L495.085 117.446M42 379.27L367.854 564.806M495.085 117.446V492.73M105.079 491.807L559 230.896M105.079 491.807L168.605 527.341M105.079 491.807L107.034 117.266M559 230.896V302.017M559 230.896L237.102 40.4219M559 302.017L168.605 527.341M559 302.017V379.27M559 302.017L172.068 78.8438M168.605 527.341L235.371 564.688M168.605 527.341L172.068 78.8438M235.371 564.688L559 379.27M235.371 564.688L237.102 40.4219M559 379.27L107.034 117.266M367.854 564.806L431.17 528.937M431.17 528.937L495.085 492.73M172.068 78.8438L107.034 117.266M172.068 78.8438L237.102 40.4219"
              stroke="#C1C1C1" stroke-opacity="0.2" stroke-width="1.85971"/>
        <path d="M42 155.688L302.136 302.017M42 155.688V230.896M42 155.688L107.034 117.266M42 456.522V379.27M42 456.522L302.136 302.017M42 456.522L105.079 491.807M302.136 602.034V302.017M302.136 602.034L235.371 564.688M302.136 602.034L367.854 564.806M559 456.522V379.27M559 456.522L495.085 492.73M559 456.522L302.136 302.017M559 155.688L302.136 302.017M559 155.688L495.085 117.446M559 155.688V230.896M302.136 2V302.017M302.136 2L367.854 41.3203M302.136 2L237.102 40.4219M42 230.896L367.854 41.3203M42 230.896V302.017M42 230.896L495.085 492.73M367.854 41.3203L431.17 79.2041M431.17 79.2041L42 302.017M431.17 79.2041L495.085 117.446M42 302.017V379.27M42 302.017L431.17 528.937M42 379.27L495.085 117.446M42 379.27L367.854 564.806M105.079 491.807L559 230.896M105.079 491.807L168.605 527.341M559 230.896V302.017M559 230.896L237.102 40.4219M559 302.017L168.605 527.341M559 302.017V379.27M559 302.017L172.068 78.8438M168.605 527.341L235.371 564.688M235.371 564.688L559 379.27M559 379.27L107.034 117.266M367.854 564.806L431.17 528.937M431.17 528.937L495.085 492.73M172.068 78.8438L107.034 117.266M172.068 78.8438L237.102 40.4219"
              stroke="black" stroke-opacity="0.9" stroke-width="1.85971"/>
        <path d="M42 155.687L302.136 302.016M302.136 602.034V302.016M559 155.687L302.136 302.016" stroke="black"
              stroke-width="2.47962"/>
    </mask>
    <g mask="url(#mask0_1100_47087)">
        <rect x="-15.125" y="-35.7539" width="631.246" height="675.545" fill="url(#paint0_radial_1100_47087)"/>
    </g>
    <defs>
        <radialGradient id="paint0_radial_1100_47087" cx="0" cy="0" r="1" gradientUnits="userSpaceOnUse"
                        gradientTransform="translate(273.445 301.423) rotate(85.4288) scale(339.448 317.425)">
            <stop stop-color="#F08119"/>
            <stop offset="1" stop-color="#9536DF"/>
        </radialGradient>
    </defs>
    </g>
        <animateTransform attributeName="transform" attributeType="XML" type="rotate" dur="12s" from="0 300 300" to="360 300 300" repeatCount="indefinite">
        </animateTransform>
    </g>
</svg>
