<svg width="600" height="600" viewBox="0 0 600 600" fill="none" xmlns="http://www.w3.org/2000/svg">
    <g>
    <g>
    <mask id="mask0_1100_47089" style="mask-type:alpha" maskUnits="userSpaceOnUse" x="68" y="76" width="461" height="461">
        <path d="M298.968 193.203C330.351 193.203 355.792 167.762 355.792 136.379C355.792 104.996 330.351 79.5557 298.968 79.5557C267.585 79.5557 242.145 104.996 242.145 136.379C242.145 167.762 267.585 193.203 298.968 193.203Z" stroke="black" stroke-width="3.44733" stroke-miterlimit="10" stroke-linecap="round" stroke-linejoin="round"/>
        <path d="M298.968 534.158C330.351 534.158 355.792 508.717 355.792 477.334C355.792 445.952 330.351 420.511 298.968 420.511C267.585 420.511 242.145 445.952 242.145 477.334C242.145 508.717 267.585 534.158 298.968 534.158Z" stroke="black" stroke-width="3.44733" stroke-miterlimit="10" stroke-linecap="round" stroke-linejoin="round"/>
        <path d="M128.499 193.203C159.882 193.203 185.323 167.762 185.323 136.379C185.323 104.996 159.882 79.5557 128.499 79.5557C97.1165 79.5557 71.6758 104.996 71.6758 136.379C71.6758 167.762 97.1165 193.203 128.499 193.203Z" stroke="black" stroke-width="3.44733" stroke-miterlimit="10" stroke-linecap="round" stroke-linejoin="round"/>
        <path d="M469.441 193.203C500.823 193.203 526.264 167.762 526.264 136.379C526.264 104.996 500.823 79.5557 469.441 79.5557C438.058 79.5557 412.617 104.996 412.617 136.379C412.617 167.762 438.058 193.203 469.441 193.203Z" stroke="black" stroke-width="3.44733" stroke-miterlimit="10" stroke-linecap="round" stroke-linejoin="round"/>
        <path d="M128.499 534.158C159.882 534.158 185.323 508.717 185.323 477.334C185.323 445.952 159.882 420.511 128.499 420.511C97.1165 420.511 71.6758 445.952 71.6758 477.334C71.6758 508.717 97.1165 534.158 128.499 534.158Z" stroke="black" stroke-width="3.44733" stroke-miterlimit="10" stroke-linecap="round" stroke-linejoin="round"/>
        <path d="M469.441 534.158C500.823 534.158 526.264 508.717 526.264 477.334C526.264 445.952 500.823 420.511 469.441 420.511C438.058 420.511 412.617 445.952 412.617 477.334C412.617 508.717 438.058 534.158 469.441 534.158Z" stroke="black" stroke-width="3.44733" stroke-miterlimit="10" stroke-linecap="round" stroke-linejoin="round"/>
        <path d="M128.499 363.689C159.882 363.689 185.323 338.248 185.323 306.865C185.323 275.482 159.882 250.042 128.499 250.042C97.1165 250.042 71.6758 275.482 71.6758 306.865C71.6758 338.248 97.1165 363.689 128.499 363.689Z" stroke="black" stroke-width="3.44733" stroke-miterlimit="10" stroke-linecap="round" stroke-linejoin="round"/>
        <path d="M298.968 363.689C330.351 363.689 355.792 338.248 355.792 306.865C355.792 275.482 330.351 250.042 298.968 250.042C267.585 250.042 242.145 275.482 242.145 306.865C242.145 338.248 267.585 363.689 298.968 363.689Z" stroke="black" stroke-width="3.44733" stroke-miterlimit="10" stroke-linecap="round" stroke-linejoin="round"/>
        <path d="M469.441 363.689C500.823 363.689 526.264 338.248 526.264 306.865C526.264 275.482 500.823 250.042 469.441 250.042C438.058 250.042 412.617 275.482 412.617 306.865C412.617 338.248 438.058 363.689 469.441 363.689Z" stroke="black" stroke-width="3.44733" stroke-miterlimit="10" stroke-linecap="round" stroke-linejoin="round"/>
        <path d="M298.969 363.688V420.494V363.688Z" stroke="black" stroke-width="3.44733" stroke-miterlimit="10" stroke-linecap="round" stroke-linejoin="round"/>
        <path d="M298.969 193.202V250.025V193.202Z" stroke="black" stroke-width="3.44733" stroke-miterlimit="10" stroke-linecap="round" stroke-linejoin="round"/>
        <path d="M168.676 176.562L258.787 266.672L168.676 176.562Z" stroke="black" stroke-width="3.44733" stroke-miterlimit="10" stroke-linecap="round" stroke-linejoin="round"/>
        <path d="M429.265 437.146L339.148 347.019L429.265 437.146Z" stroke="black" stroke-width="3.44733" stroke-miterlimit="10" stroke-linecap="round" stroke-linejoin="round"/>
        <path d="M429.306 176.587L339.184 266.698L429.306 176.587Z" stroke="black" stroke-width="3.44733" stroke-miterlimit="10" stroke-linecap="round" stroke-linejoin="round"/>
        <path d="M168.723 437.191L258.828 347.081L168.723 437.191Z" stroke="black" stroke-width="3.44733" stroke-miterlimit="10" stroke-linecap="round" stroke-linejoin="round"/>
        <path d="M355.805 306.86H412.623H355.805Z" stroke="black" stroke-width="3.44733" stroke-miterlimit="10" stroke-linecap="round" stroke-linejoin="round"/>
        <path d="M185.32 306.86H242.15H185.32Z" stroke="black" stroke-width="3.44733" stroke-miterlimit="10" stroke-linecap="round" stroke-linejoin="round"/>
    </mask>
    <g mask="url(#mask0_1100_47089)">
        <rect x="68.9688" y="76.8477" width="470.455" height="470.455" fill="url(#paint0_radial_1100_47089)"/>
    </g>
    <defs>
        <radialGradient id="paint0_radial_1100_47089" cx="0" cy="0" r="1" gradientUnits="userSpaceOnUse" gradientTransform="translate(284.034 311.66) rotate(85.1095) scale(236.503 236.461)">
            <stop stop-color="#F08119"/>
            <stop offset="1" stop-color="#9536DF"/>
        </radialGradient>
    </defs>
    </g>
        <animateTransform attributeName="transform" attributeType="XML" type="rotate" dur="12s" from="0 300 300" to="360 300 300" repeatCount="indefinite">
        </animateTransform>
    </g>
</svg>
