<svg width="600" height="600" viewBox="0 0 600 600" fill="none" xmlns="http://www.w3.org/2000/svg">
    <g>
        <g>
            <mask id="mask0_1105_47553" style="mask-type:alpha" maskUnits="userSpaceOnUse" x="10" y="10" width="580"
                  height="580">
                <g clip-path="url(#clip0_1105_47553)">
                    <path d="M187.172 260.89L220.695 226.015L254.422 193.186" stroke="black" stroke-width="0.986348"
                          stroke-linecap="round" stroke-linejoin="round"/>
                    <path d="M59.6026 482.992L92.6457 449.042L124.422 413.833L156.498 379.61L190.409 348.608L196.868 348.063L205.442 344.923L215.857 339.36L227.804 331.58L240.985 321.787L253.067 311.281L255.087 309.525L257.228 307.667L258.388 306.652"
                          stroke="black" stroke-width="0.986348" stroke-linecap="round" stroke-linejoin="round"/>
                    <path d="M74.5158 484.197L105.714 449.49L135.424 413.714L165.283 379.157L196.865 348.062L214.832 334.93L231.686 322.62"
                          stroke="black" stroke-width="0.986348" stroke-linecap="round" stroke-linejoin="round"/>
                    <path d="M51.7969 474.74L85.5028 442.643L118.169 409.104L151.323 376.318L186.479 346.501L207.036 333.407L225.105 321.901L227.647 323.056L231.687 322.618L236.961 320.631L237.753 320.207L241.13 318.387L241.606 318.134L241.922 317.963L243.292 317.226L244.499 316.438L248.087 314.092L250.497 312.521L252.38 311.116L257.085 307.618L258.386 306.65L262.008 303.679L265.407 300.879L266.349 300.108"
                          stroke="black" stroke-width="0.986348" stroke-linecap="round" stroke-linejoin="round"/>
                    <path d="M340.399 185.708L318.148 224.619L314.771 240.559L315.548 245.506" stroke="black"
                          stroke-width="0.986348" stroke-linecap="round" stroke-linejoin="round"/>
                    <path d="M95.8094 478.084L124.003 443.831L150.55 408.71L177.151 374.997L205.438 344.922L222.173 332.03L234.827 322.276L236.959 320.632"
                          stroke="black" stroke-width="0.986348" stroke-linecap="round" stroke-linejoin="round"/>
                    <path d="M56.3516 441.312L88.3223 415.263L119.643 387.528L151.815 360.191L186.332 335.395L224.687 315.37L240.468 312.665L241.959 308.65L244.494 303.83L248.014 298.324"
                          stroke="black" stroke-width="0.986348" stroke-linecap="round" stroke-linejoin="round"/>
                    <path d="M122.893 464.854L146.986 432.324L169.341 399.057L191.735 367.336L215.853 339.359L231.611 326.647L241.303 318.829L243.29 317.228"
                          stroke="black" stroke-width="0.986348" stroke-linecap="round" stroke-linejoin="round"/>
                    <path d="M103.307 361.594L127.597 329.748L155.616 296.065L187.174 260.887L198.721 261.996L227.453 232.083L256.39 203.934L254.424 193.183L287.967 162.652L320.884 134.75"
                          stroke="black" stroke-width="0.986348" stroke-linecap="round" stroke-linejoin="round"/>
                    <path d="M67.2422 417.955L97.1487 395.742L126.534 371.816L156.899 348.186L189.758 326.956L226.618 310.309L229.855 304.256L234.317 297.347L239.931 289.722L246.601 281.511"
                          stroke="black" stroke-width="0.986348" stroke-linecap="round" stroke-linejoin="round"/>
                    <path d="M155.052 444.84L174.034 415.281L191.27 385.055L208.613 356.434L227.803 331.578L243.065 318.764L247.753 314.82L250.497 312.521"
                          stroke="black" stroke-width="0.986348" stroke-linecap="round" stroke-linejoin="round"/>
                    <path d="M83.0647 391.175L110.274 373.174L127.285 348.093L147.859 320.956L171.733 292.153L198.727 262.001L209.551 261.994L221.278 262.572L239.936 243.118L258.756 224.82L277.431 207.909L295.651 192.606L313.091 179.179L329.397 167.914L347.604 140.884L366.067 114.934L382.856 88.5426"
                          stroke="black" stroke-width="0.986348" stroke-linecap="round" stroke-linejoin="round"/>
                    <path d="M191.388 418.527L204.398 393.143L215.735 367.079L227.329 342.59L240.98 321.785L253.609 311.406L255.047 310.224"
                          stroke="black" stroke-width="0.986348" stroke-linecap="round" stroke-linejoin="round"/>
                    <path d="M393.708 222.106L372.327 230.043L340.931 265.949L306.556 302.044L271.638 335.823L237.248 366.44L230.882 386.549"
                          stroke="black" stroke-width="0.986348" stroke-linecap="round" stroke-linejoin="round"/>
                    <path d="M127.594 329.749L147.849 320.952L167.63 310.678L187.265 286.918L209.545 261.994L233.311 237.227L257.256 213.941L281.042 192.363L285.138 177.81L287.963 162.654"
                          stroke="black" stroke-width="0.986348" stroke-linecap="round" stroke-linejoin="round"/>
                    <path d="M299.039 267.53L299.981 266.46L300.696 265.651L302.147 264.002L306.266 259.319L312.483 252.255L329.567 243.198L345.892 222.816L371.52 209.682L398.741 196.752L425.285 182.12L450.274 146.349L468.434 115.54L479.672 90.2851L484.001 71.0325L481.518 58.0949L472.37 51.7119L456.705 52.0419L427.908 85.1433L397.493 117.449L367.596 150.478L357.067 153.195L333.067 187.403L313.792 225.479L308.334 227.796L301.969 231.406L294.867 236.181L287.212 241.978L279.16 248.661L270.884 256.115L262.536 264.215L254.282 272.846L246.601 281.511L223.023 279.674L203.814 282.136L188.499 300.746L167.635 310.682L150.821 332.981L127.281 348.092L103.309 361.598L83.0601 391.175L67.2419 417.955L56.3509 441.314L50.9695 460.524L51.7956 474.742L59.5998 482.991L74.5151 484.198L95.8098 478.084L122.893 464.855L155.05 444.841L191.391 418.53L230.883 386.551L272.35 349.705L271.639 335.825L269.602 321.013L268.297 307.446L269.657 297.143L272.195 294.69L277.538 289.51L282.997 284.222L284.448 282.814L288.156 278.927L293.088 273.763L297.793 268.836L297.904 268.716L299.039 267.53ZM299.039 267.53L310.369 265.04L325.01 265.151L350.207 236.412L371.52 209.682L388.686 185.516L419.82 166.808L450.274 146.349"
                          stroke="black" stroke-width="0.986348" stroke-linecap="round" stroke-linejoin="round"/>
                    <path d="M334.072 292.398L334.367 293.018L334.658 293.626L341.48 308.069L341.976 309.036L347.832 320.457L348.054 320.851L348.546 321.548L355.635 332.319L356.012 332.901L356.345 333.346L360.944 339.546L364.739 344.608L364.752 345.486L364.88 345.648L373.659 356.876L373.398 357.882L372.875 359.081L372.1 360.446L371.081 361.953L369.831 363.571L368.371 365.28L366.774 366.962L365.143 368.533L363.52 369.959L361.932 371.214L360.417 372.275L359.017 373.119L357.75 373.719L356.675 374.049L355.811 374.092L355.22 373.826L344.459 365.411L344.326 365.193L334.018 357.462L332.73 356.611L331.964 356.153L321.086 348.914L320.65 348.529L319.285 347.832L308.809 342.46L307.85 341.963L306.811 341.523L293.386 335.18L292.757 334.885L292.124 334.585L290.973 334.042"
                          stroke="black" stroke-width="0.986348" stroke-linecap="round" stroke-linejoin="round"/>
                    <path d="M155.621 296.069L171.732 292.152L187.274 286.922L203.818 282.136L221.277 262.571"
                          stroke="black" stroke-width="0.986348" stroke-linecap="round" stroke-linejoin="round"/>
                    <path d="M313.797 225.476L311.323 241.18L312.968 249.478L312.981 249.543" stroke="black"
                          stroke-width="0.986348" stroke-linecap="round" stroke-linejoin="round"/>
                    <path d="M296.268 249.58L302.089 263.844" stroke="black" stroke-width="0.986348"
                          stroke-linecap="round" stroke-linejoin="round"/>
                    <path d="M355.637 332.319L356.014 332.901L356.018 333.966L355.662 335.255L355.773 335.4L364.45 346.62L364.552 346.748L373.4 357.882L373.49 357.998L381.939 369.247"
                          stroke="black" stroke-width="0.986348" stroke-linecap="round" stroke-linejoin="round"/>
                    <path d="M364.401 344.019L364.739 344.459L365.171 345.011L373.342 355.58L373.642 356.051L373.834 356.689L373.774 357.031L373.928 357.237L382.147 368.418"
                          stroke="black" stroke-width="0.986348" stroke-linecap="round" stroke-linejoin="round"/>
                    <path d="M373.341 355.579L373.641 356.05L373.803 356.323L373.983 356.563L381.427 366.808L382.124 367.77"
                          stroke="black" stroke-width="0.986348" stroke-linecap="round" stroke-linejoin="round"/>
                    <path d="M347.833 320.456L348.055 320.85L348.286 321.243L348.521 321.607L355.174 331.702L356.012 332.977L356.346 333.345L364.397 344.017L364.74 344.607L364.924 344.842L364.936 345.292L364.448 346.619L363.84 347.98L362.945 349.542L361.772 351.263L360.342 353.113L358.663 355.065L356.835 356.996L354.969 358.794L353.106 360.425L351.295 361.868L349.562 363.088L347.965 364.06L346.531 364.75L345.302 365.14L344.339 365.315L343.663 364.905L332.73 356.609L331.965 356.152"
                          stroke="black" stroke-width="0.986348" stroke-linecap="round" stroke-linejoin="round"/>
                    <path d="M371.279 381.091L360.419 372.278L349.563 363.092L338.648 354.043L327.591 345.632L316.303 338.368L302.652 330.043L296.559 326.304"
                          stroke="black" stroke-width="0.986348" stroke-linecap="round" stroke-linejoin="round"/>
                    <path d="M372.525 380.225L361.931 371.214L351.294 361.87L340.614 352.637L329.891 343.977L319.124 336.328L306.154 327.494L299.809 323.151"
                          stroke="black" stroke-width="0.986348" stroke-linecap="round" stroke-linejoin="round"/>
                    <path d="M373.835 379.193L363.523 369.96L353.109 360.427L342.686 350.989L332.322 342.03L322.104 333.935L309.862 324.501L303.508 319.585"
                          stroke="black" stroke-width="0.986348" stroke-linecap="round" stroke-linejoin="round"/>
                    <path d="M375.172 378.024L365.143 368.534L354.968 358.796L344.806 349.122L334.819 339.829L325.162 331.225L313.669 321.119L307.516 315.702"
                          stroke="black" stroke-width="0.986348" stroke-linecap="round" stroke-linejoin="round"/>
                    <path d="M257.083 307.617L244.493 303.829L229.855 304.253L195.282 316.927L189.757 326.953L186.331 335.394L185.182 342.003L149.864 369.696L116.719 400.137L84.2588 431.125L50.9688 460.521"
                          stroke="black" stroke-width="0.986348" stroke-linecap="round" stroke-linejoin="round"/>
                    <path d="M306.986 242.973L309.769 253.993" stroke="black" stroke-width="0.986348"
                          stroke-linecap="round" stroke-linejoin="round"/>
                    <path d="M300.914 265.302L302.083 263.842L306.108 258.834L307.774 256.766L309.854 254.343L310.514 253.581L313.164 250.503L323.97 237.951L333.364 224.902L359.14 204.304L369.165 188.033L375.837 174.326L409.845 146.804L413.637 133.026L412.844 123.379L407.461 118.117L397.493 117.448L383.578 121.368L366.755 129.351L347.599 140.883L326.623 155.492L304.298 172.777L281.047 192.365L277.426 207.906L276.145 226.097L262.655 238.286L249.058 251.489L235.589 265.549L223.023 279.672L212.041 293.076L188.499 300.744L175.453 318.137L164.855 334.058L137.03 353.489L126.534 371.814L119.643 387.528L116.72 400.138L118.168 409.104L124.42 413.831L135.424 413.712L150.551 408.709L169.343 399.056L191.269 385.054L215.738 367.08L242.088 345.565L269.603 321.011L297.508 293.996L325.011 265.149L340.932 265.949L355.959 265.384L393.708 222.107L425.285 182.118"
                          stroke="black" stroke-width="0.986348" stroke-linecap="round" stroke-linejoin="round"/>
                    <path d="M307.77 256.761L309.766 253.987L312.973 249.54L313.409 248.932L315.567 246.329L315.661 246.218L317.481 244.03L318.256 243.092L319.356 241.77L333.361 224.898L340.546 213.348L345.42 203.537L375.834 174.322L379.064 163.475L378.801 155.737L412.841 123.375L447.826 91.3501L481.515 58.0889"
                          stroke="black" stroke-width="0.986348" stroke-linecap="round" stroke-linejoin="round"/>
                    <path d="M313.417 248.937L315.553 245.508L317.309 242.7L317.673 242.113L317.771 241.955L318.041 241.42L319.36 238.8L320.773 235.975L322.263 234.014L332.668 220.333L345.427 203.543L347.916 195.68L379.071 163.481L413.641 133.027L449.375 102.744L484.005 71.0317"
                          stroke="black" stroke-width="0.986348" stroke-linecap="round" stroke-linejoin="round"/>
                    <path d="M311.754 311.607L317.505 317.409L328.24 328.247L337.324 337.407L346.938 347.064L356.835 356.995L366.774 366.96L376.512 376.733"
                          stroke="black" stroke-width="0.986348" stroke-linecap="round" stroke-linejoin="round"/>
                    <path d="M316.03 307.344L321.279 313.442L331.265 325.063L339.788 334.819L349.026 344.861L358.665 355.066L368.373 365.279L377.825 375.347"
                          stroke="black" stroke-width="0.986348" stroke-linecap="round" stroke-linejoin="round"/>
                    <path d="M320.016 303.156L324.752 309.45L334.049 321.855L342.045 332.198L350.944 342.638L360.34 353.113L369.83 363.57L379.02 373.942"
                          stroke="black" stroke-width="0.986348" stroke-linecap="round" stroke-linejoin="round"/>
                    <path d="M248.083 314.094L240.465 312.667" stroke="black" stroke-width="0.986348"
                          stroke-linecap="round" stroke-linejoin="round"/>
                    <path d="M323.568 299.427L327.73 305.679L336.436 318.82L343.987 329.719L352.586 340.528L361.772 351.263L371.082 361.952L380.041 372.606"
                          stroke="black" stroke-width="0.986348" stroke-linecap="round" stroke-linejoin="round"/>
                    <path d="M326.61 296.227L330.182 302.197L338.395 316.01L345.573 327.427L353.933 338.57L362.948 349.545L372.104 360.448L380.879 371.372"
                          stroke="black" stroke-width="0.986348" stroke-linecap="round" stroke-linejoin="round"/>
                    <path d="M296.261 249.578L301.916 245.806L306.984 242.971L308.337 227.79L323.987 191.439L344.186 159.132L366.754 129.349L389.601 100.573L410.736 71.3082L435.623 58.8716L456.704 52.0387"
                          stroke="black" stroke-width="0.986348" stroke-linecap="round" stroke-linejoin="round"/>
                    <path d="M284.449 282.812L289.477 286.933L297.509 293.996L306.558 302.044L314.5 308.949"
                          stroke="black" stroke-width="0.986348" stroke-linecap="round" stroke-linejoin="round"/>
                    <path d="M329.094 293.625L332.067 299.063L330.183 302.197L327.734 305.682L324.758 309.453L321.281 313.443L317.51 317.412L313.674 321.119L309.863 324.502L306.16 327.495L302.654 330.042L299.427 332.08L296.559 333.554L294.136 334.402L292.231 334.578L290.977 334.043L289.355 333.269"
                          stroke="black" stroke-width="0.986348" stroke-linecap="round" stroke-linejoin="round"/>
                    <path d="M374.995 151.34L378.807 155.744" stroke="black" stroke-width="0.986348"
                          stroke-linecap="round" stroke-linejoin="round"/>
                    <path d="M330.965 291.657L333.36 296.347L333.519 296.651L340.927 311.277L341.261 311.885L347.626 323.55L347.746 323.73L355.66 335.258L354.958 336.799L353.93 338.571L352.586 340.532L350.946 342.642L349.023 344.864L346.938 347.069L344.806 349.124L342.683 350.99L340.615 352.639L338.646 354.043L336.827 355.161L335.2 355.957L333.809 356.407L332.709 356.48L330.073 354.743L321.087 348.917L320.518 348.545L319.79 348.168L308.728 342.509L307.774 341.974L305.579 340.892L293.442 335.152L292.826 334.861L292.227 334.579L289.398 333.223"
                          stroke="black" stroke-width="0.986348" stroke-linecap="round" stroke-linejoin="round"/>
                    <path d="M320.767 235.972L322.361 231.126L322.486 227.535L323.578 225.921L335.109 208.905L347.937 189.966L378.802 155.739"
                          stroke="black" stroke-width="0.986348" stroke-linecap="round" stroke-linejoin="round"/>
                    <path d="M306.988 242.972L311.32 241.182L314.774 240.56L317.102 241.176L317.663 242.096L317.671 242.113"
                          stroke="black" stroke-width="0.986348" stroke-linecap="round" stroke-linejoin="round"/>
                    <path d="M297.908 268.714L298.936 267.55L300.443 265.837L300.918 265.302L302.125 263.941L306.257 259.279L312.491 252.249L313.313 251.23L323.974 237.951L345.896 222.814L359.144 204.304L388.689 185.515L401.501 164.419L409.848 146.805L445.222 119.347L449.374 102.743L447.832 91.355L440.652 85.4165L427.911 85.1421L410.451 90.4245L389.605 100.574L366.065 114.932L340.453 132.903L326.626 155.492L313.09 179.177L301.805 205.532L294.87 236.179L296.266 249.579L290.153 254.178L283.731 259.495L277.121 265.429L270.464 271.89L263.884 278.778L257.77 285.696L252.461 292.246L248.016 298.325L234.321 297.345L202.758 305.563L175.456 318.137L150.825 332.979L137.033 353.488L110.273 373.171L97.1527 395.739L88.3259 415.263L84.2638 431.126L85.5058 442.643L92.6472 449.039L105.718 449.489L124.008 443.829L146.991 432.322L174.036 415.28L204.405 393.144L237.253 366.44L242.092 345.565L247.4 326.136L268.301 307.444L289.48 286.932L310.372 265.038L329.57 243.196L350.21 236.411L372.331 230.044L398.744 196.751L419.823 166.806L435.359 140.839L445.222 119.347L479.676 90.284"
                          stroke="black" stroke-width="0.986348" stroke-linecap="round" stroke-linejoin="round"/>
                    <path d="M190.403 348.605L186.475 346.5L185.18 342.002" stroke="black" stroke-width="0.986348"
                          stroke-linecap="round" stroke-linejoin="round"/>
                    <path d="M313.797 225.478L318.154 224.62L321.107 225.33L322.493 227.538L320.946 233.098L319.777 237.289L319.361 238.8"
                          stroke="black" stroke-width="0.986348" stroke-linecap="round" stroke-linejoin="round"/>
                    <path d="M332.208 290.346L334.043 294.099L334.24 294.51L334.493 295.036L341.465 309.458L341.631 309.779L345.109 316.425L348.056 322.052L348.98 323.438L350.011 324.983L356.018 333.969L356.163 334.157L364.938 345.296L373.645 356.108L373.833 356.69L381.868 367.337L382.124 367.773L382.145 368.419L381.94 369.25L381.511 370.243L380.878 371.373L380.043 372.61L379.024 373.946L377.825 375.35L376.515 376.737L375.175 378.026L373.835 379.195L372.529 380.226L371.279 381.091L370.119 381.781L369.079 382.273L368.184 382.535L367.469 382.565L356.472 374.239L345.467 365.272L345.304 365.143L333.995 356.548L333.811 356.407L322.527 348.839L321.936 348.437L314.841 344.707L313.224 343.851L309.407 341.841L295.045 334.852L294.134 334.403L290.184 332.465"
                          stroke="black" stroke-width="0.986348" stroke-linecap="round" stroke-linejoin="round"/>
                    <path d="M332.803 289.724L334.074 292.398L334.043 294.097L333.362 296.345L332.064 299.063L332.205 299.315L339.897 313.48L340.016 313.685L346.792 325.359L346.899 325.508L354.959 336.797L363.841 347.982L372.877 359.081L372.959 359.18L381.511 370.241"
                          stroke="black" stroke-width="0.986348" stroke-linecap="round" stroke-linejoin="round"/>
                    <path d="M225.099 321.901L224.145 319.286L224.681 315.37L226.613 310.306" stroke="black"
                          stroke-width="0.986348" stroke-linecap="round" stroke-linejoin="round"/>
                    <path d="M282.999 284.219L281.3 282.546L270.462 271.888L262.538 264.212L249.06 251.487L239.933 243.114L233.318 237.227L227.456 232.084L220.699 226.013"
                          stroke="black" stroke-width="0.986348" stroke-linecap="round" stroke-linejoin="round"/>
                    <path d="M288.154 278.923L286.721 277.285L277.116 265.428L270.883 256.112L262.653 238.284L258.75 224.816L257.259 213.941L256.389 203.935L285.141 177.81L313.306 154.009L340.448 132.901L352.695 109.879"
                          stroke="black" stroke-width="0.986348" stroke-linecap="round" stroke-linejoin="round"/>
                    <path d="M265.407 300.879L266.674 299.132L270.977 293.794L275.944 288.152L281.3 282.547L286.724 277.286L292.105 272.461L297.341 268.149L300.44 265.837"
                          stroke="black" stroke-width="0.986348" stroke-linecap="round" stroke-linejoin="round"/>
                    <path d="M277.542 289.511L275.946 288.155L263.884 278.781L254.286 272.848L235.593 265.552L221.277 262.573"
                          stroke="black" stroke-width="0.986348" stroke-linecap="round" stroke-linejoin="round"/>
                    <path d="M293.089 273.761L292.105 272.46L283.729 259.494L279.161 248.658L276.146 226.095L289.276 215.113L301.802 205.531L313.468 197.562L323.99 191.439L333.069 187.4L340.401 185.707L367.598 150.475L374.993 151.337L407.463 118.115L440.651 85.4145L472.371 51.7087"
                          stroke="black" stroke-width="0.986348" stroke-linecap="round" stroke-linejoin="round"/>
                    <path d="M272.196 294.688L270.977 293.794L257.767 285.696L246.602 281.509" stroke="black"
                          stroke-width="0.986348" stroke-linecap="round" stroke-linejoin="round"/>
                    <path d="M341.481 308.059L341.463 309.455L340.928 311.274L339.896 313.478L338.393 316.008L336.436 318.821L334.051 321.856L331.264 325.062L328.241 328.248L325.163 331.223L322.102 333.933L319.127 336.327L316.301 338.365L313.69 339.992L311.37 341.165L309.405 341.838L307.775 341.971L306.82 341.522"
                          stroke="black" stroke-width="0.986348" stroke-linecap="round" stroke-linejoin="round"/>
                    <path d="M348.062 320.901L348.057 322.052L347.629 323.55L346.794 325.361L345.573 327.428L343.989 329.723L342.049 332.202L339.789 334.822L337.327 337.412L334.823 339.831L332.322 342.031L329.895 343.98L327.592 345.632L325.46 346.951L323.555 347.898L321.937 348.437L320.52 348.545L319.793 348.168"
                          stroke="black" stroke-width="0.986348" stroke-linecap="round" stroke-linejoin="round"/>
                    <path d="M241.927 317.965L240.912 317.833L240.441 317.953L231.872 320.164L225.109 321.904"
                          stroke="black" stroke-width="0.986348" stroke-linecap="round" stroke-linejoin="round"/>
                    <path d="M297.792 268.837L297.338 268.152L290.148 254.18L287.211 241.979L289.273 215.117L295.644 192.606L304.296 172.779L313.307 154.013L320.884 134.755L352.696 109.883L382.85 88.5426L410.735 71.3117"
                          stroke="black" stroke-width="0.986348" stroke-linecap="round" stroke-linejoin="round"/>
                    <path d="M241.602 318.135L240.905 317.831L240.092 315.768L240.466 312.664" stroke="black"
                          stroke-width="0.986348" stroke-linecap="round" stroke-linejoin="round"/>
                    <path d="M367.466 382.561L366.969 382.338L356.13 374.488L355.219 373.825" stroke="black"
                          stroke-width="0.986348" stroke-linecap="round" stroke-linejoin="round"/>
                    <path d="M355.964 265.384L332.806 289.722L332.211 290.343L330.97 291.653L329.094 293.622L326.611 296.225L323.571 299.428L320.022 303.157L316.032 307.344L314.504 308.949L311.759 311.608L307.521 315.701L303.509 319.584L299.815 323.15L296.561 326.301L293.821 328.947L291.676 331.023L290.186 332.462L289.403 333.22L289.356 333.267L272.355 349.703"
                          stroke="black" stroke-width="0.986348" stroke-linecap="round" stroke-linejoin="round"/>
                    <path d="M322.368 231.128L323.639 229.36L325.746 226.44L335.097 213.461L347.917 195.678L347.944 189.968L345.459 186.583L340.404 185.708"
                          stroke="black" stroke-width="0.986348" stroke-linecap="round" stroke-linejoin="round"/>
                    <path d="M317.765 241.954L318.852 240.593L319.538 239.737L327.822 229.33L340.547 213.353L369.162 188.033L401.496 164.419L435.353 140.839L468.432 115.539"
                          stroke="black" stroke-width="0.986348" stroke-linecap="round" stroke-linejoin="round"/>
                    <path d="M306.109 258.836L306.075 258.734L301.918 245.809L301.97 231.407L313.467 197.566L329.393 167.914L344.188 159.136L357.068 153.196L383.579 121.371L410.449 90.4269L435.629 58.8717"
                          stroke="black" stroke-width="0.986348" stroke-linecap="round" stroke-linejoin="round"/>
                    <path d="M262.01 303.681L261.868 303.625L248.016 298.327" stroke="black" stroke-width="0.986348"
                          stroke-linecap="round" stroke-linejoin="round"/>
                    <path d="M368.183 382.533L356.822 374.161L356.471 374.238L355.812 374.092L344.562 365.377"
                          stroke="black" stroke-width="0.986348" stroke-linecap="round" stroke-linejoin="round"/>
                    <path d="M369.073 382.269L357.866 373.802L357.746 373.717L346.655 364.852L346.527 364.749L335.338 356.06L335.196 355.953L323.724 348.017L323.549 347.893L311.366 341.164L296.846 333.7L296.551 333.55L291.668 331.022"
                          stroke="black" stroke-width="0.986348" stroke-linecap="round" stroke-linejoin="round"/>
                    <path d="M370.117 381.78L359.107 373.193L359.017 373.12L347.965 364.063L336.827 355.16L325.457 346.95L313.886 340.105L313.694 339.998L299.658 332.213L299.422 332.08L293.816 328.949"
                          stroke="black" stroke-width="0.986348" stroke-linecap="round" stroke-linejoin="round"/>
                    <path d="M252.378 311.115L252.211 311.077L241.957 308.649L226.617 310.306" stroke="black"
                          stroke-width="0.986348" stroke-linecap="round" stroke-linejoin="round"/>
                    <path d="M244.495 316.438L244.303 316.408L240.091 315.767L224.147 319.286L185.18 342.003"
                          stroke="black" stroke-width="0.986348" stroke-linecap="round" stroke-linejoin="round"/>
                    <path d="M317.305 242.7L317.288 242.563L317.1 241.176L317.246 240.62L319.389 232.111L321.103 225.331L332.72 206.85L345.455 186.585L374.993 151.339"
                          stroke="black" stroke-width="0.986348" stroke-linecap="round" stroke-linejoin="round"/>
                    <path d="M269.659 297.143L267.121 299.417L266.35 300.11L265.267 301.082L262.257 303.775L255.052 310.227L247.399 326.138L227.334 342.592L208.614 356.435L191.739 367.337L177.154 374.998L165.285 379.157L156.498 379.609L151.324 376.32L149.867 369.699L151.817 360.193L156.901 348.186L164.858 334.059L195.285 316.93L202.757 305.565L212.044 293.077L239.933 289.722L252.46 292.248L266.676 299.134L267.121 299.417"
                          stroke="black" stroke-width="0.986348" stroke-linecap="round" stroke-linejoin="round"/>
                    <path d="M237.751 320.206L237.375 320.309L233.244 321.478L227.645 323.055L223.014 326.232L209.888 335.241L190.406 348.605"
                          stroke="black" stroke-width="0.986348" stroke-linecap="round" stroke-linejoin="round"/>
                </g>
            </mask>
            <g mask="url(#mask0_1105_47553)">
                <rect x="-89.7852" y="385.044" width="673.63" height="387.157" transform="rotate(-45 -89.7852 385.044)"
                      fill="url(#paint0_radial_1105_47553)"/>
            </g>
            <defs>
                <radialGradient id="paint0_radial_1105_47553" cx="0" cy="0" r="1" gradientUnits="userSpaceOnUse"
                                gradientTransform="translate(247.527 569.168) rotate(90) scale(99.0286 169.77)">
                    <stop stop-color="#F08119"/>
                    <stop offset="1" stop-color="#9536DF"/>
                </radialGradient>
                <clipPath id="clip0_1105_47553">
                    <rect width="600" height="217.962" fill="white" transform="translate(10.8047 435.052) rotate(-45)"/>
                </clipPath>
            </defs>
        </g>
        <animateTransform attributeName="transform" attributeType="XML" type="rotate" dur="8s"
                          values="0 300 300; 30 300 300; 0 300 300" repeatCount="indefinite">
        </animateTransform>
    </g>
</svg>

